{"glyphs":{"0":{"ha":833,"x_min":72,"x_max":800,"o":"m 353 -14 q 192 24 257 -14 q 100 128 128 61 q 86 286 72 196 l 157 728 q 220 886 172 819 q 345 990 268 953 q 518 1028 422 1028 q 680 990 615 1028 q 772 886 744 953 q 785 728 800 819 l 714 286 q 651 128 700 196 q 525 24 601 61 q 353 -14 449 -14 m 374 115 q 506 163 453 115 q 571 286 558 210 l 642 728 q 615 851 654 804 q 499 899 576 899 q 366 851 419 899 q 300 728 313 804 l 229 286 q 257 163 217 210 q 374 115 297 115 m 436 421 q 372 446 396 421 q 347 511 347 471 q 372 574 347 550 q 436 599 396 599 q 499 574 475 599 q 522 511 522 550 q 499 446 522 471 q 436 421 475 421 z "},"1":{"ha":833,"x_min":60,"x_max":718,"o":"m 60 0 l 81 133 l 350 133 l 469 883 l 167 682 l 193 844 l 451 1014 l 640 1014 l 500 133 l 718 133 l 697 0 l 60 0 z "},"2":{"ha":833,"x_min":57,"x_max":792,"o":"m 57 0 l 82 149 l 446 472 q 574 608 531 547 q 626 728 617 668 q 603 850 639 806 q 494 894 568 894 q 360 848 414 894 q 293 721 307 801 l 144 721 q 213 884 161 815 q 342 990 264 953 q 517 1028 419 1028 q 673 992 610 1028 q 764 890 736 956 q 778 736 792 825 q 703 556 764 644 q 521 364 642 467 l 256 136 l 697 136 l 676 0 l 57 0 z "},"3":{"ha":833,"x_min":60,"x_max":786,"o":"m 340 -14 q 180 22 244 -14 q 88 124 115 58 q 74 278 60 190 l 224 278 q 247 158 210 201 q 363 115 285 115 q 492 160 442 115 q 554 278 543 204 l 565 353 q 542 473 578 431 q 426 515 506 515 l 318 515 l 340 657 l 608 882 l 213 882 l 233 1014 l 786 1014 l 763 872 l 442 606 l 449 646 q 665 567 593 646 q 715 354 736 488 l 704 278 q 642 124 692 190 q 514 22 592 58 q 340 -14 436 -14 z "},"4":{"ha":833,"x_min":72,"x_max":764,"o":"m 494 0 l 526 211 l 72 211 l 108 436 l 596 1014 l 764 1014 l 249 399 l 240 346 l 549 346 l 588 583 l 736 583 l 643 0 l 494 0 z "},"5":{"ha":833,"x_min":76,"x_max":789,"o":"m 350 -14 q 147 53 218 -14 q 83 235 76 121 l 233 235 q 267 149 231 179 q 372 118 303 118 q 500 160 453 118 q 560 279 547 203 l 575 378 q 554 498 588 456 q 442 540 521 540 q 351 517 392 540 q 289 454 311 494 l 140 454 l 236 1014 l 789 1014 l 767 878 l 358 878 l 304 563 l 343 563 l 297 526 q 365 629 308 592 q 508 667 422 667 q 689 591 632 667 q 725 378 746 515 l 708 279 q 592 65 686 144 q 350 -14 497 -14 z "},"6":{"ha":833,"x_min":58,"x_max":753,"o":"m 354 -14 q 186 28 254 -14 q 88 145 118 69 q 75 319 58 221 q 122 470 86 394 q 210 615 157 546 l 521 1014 l 688 1014 l 322 547 l 328 543 q 410 605 363 583 q 517 626 458 626 q 653 588 599 626 q 731 478 708 549 q 738 313 753 408 q 669 142 722 215 q 535 27 615 68 q 354 -14 454 -14 m 374 115 q 516 169 457 115 q 589 313 575 224 q 560 456 603 401 q 436 510 518 510 q 294 456 353 510 q 222 313 236 401 q 250 169 208 224 q 374 115 292 115 z "},"7":{"ha":833,"x_min":151,"x_max":849,"o":"m 175 0 l 675 876 l 324 876 l 301 728 l 151 728 l 197 1014 l 849 1014 l 826 869 l 339 0 l 175 0 z "},"8":{"ha":833,"x_min":60,"x_max":788,"o":"m 353 -14 q 133 60 207 -14 q 79 258 60 135 q 155 415 94 350 q 328 529 215 481 l 483 597 q 581 667 543 624 q 626 764 619 711 q 603 863 638 826 q 499 899 568 899 q 381 862 428 899 q 325 763 335 825 q 340 667 317 711 q 414 599 364 624 l 549 532 q 690 415 650 481 q 714 258 729 349 q 652 114 701 175 q 526 19 603 53 q 353 -14 450 -14 m 374 117 q 504 158 451 117 q 567 265 557 199 q 553 366 576 319 q 479 439 529 413 l 340 510 q 205 621 244 558 q 179 771 165 683 q 237 906 192 847 q 354 997 282 964 q 518 1029 426 1029 q 672 997 610 1029 q 760 906 733 964 q 775 771 788 847 q 702 621 761 682 q 531 508 643 560 l 368 438 q 274 367 311 413 q 228 268 238 321 q 256 158 217 200 q 374 117 296 117 z "},"9":{"ha":833,"x_min":119,"x_max":813,"o":"m 185 0 l 554 467 l 547 471 q 464 409 514 431 q 356 388 414 388 q 219 426 275 388 q 142 536 164 465 q 135 701 119 607 q 203 873 150 800 q 337 987 256 946 q 517 1028 418 1028 q 685 986 617 1028 q 783 869 754 944 q 797 694 813 794 q 751 544 786 621 q 661 399 715 468 l 351 0 l 185 0 m 435 504 q 577 558 518 504 q 650 701 636 613 q 622 844 664 790 q 499 899 581 899 q 356 844 415 899 q 283 701 297 790 q 311 558 269 613 q 435 504 353 504 z "},"A":{"ha":833,"x_min":-1,"x_max":713,"o":"m -1 0 l 418 1014 l 615 1014 l 713 0 l 565 0 l 546 257 l 258 257 l 156 0 l -1 0 m 306 381 l 536 381 l 513 674 q 503 809 507 751 q 500 888 500 867 q 473 809 493 867 q 422 675 453 751 l 306 381 z "},"Á":{"ha":833,"x_min":-1,"x_max":782,"o":"m -1 0 l 418 1014 l 615 1014 l 713 0 l 565 0 l 546 257 l 258 257 l 156 0 l -1 0 m 306 381 l 536 381 l 513 674 q 503 809 507 751 q 500 888 500 867 q 473 809 493 867 q 422 675 453 751 l 306 381 m 436 1125 l 614 1319 l 782 1319 l 594 1125 l 436 1125 z "},"Ă":{"ha":833,"x_min":-1,"x_max":796,"o":"m -1 0 l 418 1014 l 615 1014 l 713 0 l 565 0 l 546 257 l 258 257 l 156 0 l -1 0 m 306 381 l 536 381 l 513 674 q 503 809 507 751 q 500 888 500 867 q 473 809 493 867 q 422 675 453 751 l 306 381 m 532 1117 q 373 1172 428 1117 q 332 1319 318 1228 l 447 1319 q 466 1239 439 1269 q 544 1208 493 1208 q 634 1239 597 1208 q 678 1319 671 1269 l 796 1319 q 709 1172 782 1228 q 532 1117 636 1117 z "},"Ắ":{"ha":833,"x_min":-1,"x_max":800,"o":"m -1 0 l 418 1014 l 615 1014 l 713 0 l 565 0 l 546 257 l 258 257 l 156 0 l -1 0 m 306 381 l 536 381 l 513 674 q 503 809 507 751 q 500 888 500 867 q 473 809 493 867 q 422 675 453 751 l 306 381 m 461 1251 l 632 1417 l 786 1417 l 606 1251 l 461 1251 m 489 1083 q 347 1133 394 1083 q 313 1265 299 1182 l 419 1265 q 435 1200 413 1225 q 503 1175 457 1175 l 579 1175 q 656 1200 625 1175 q 692 1265 686 1225 l 800 1265 q 724 1133 786 1182 q 565 1083 661 1083 l 489 1083 z "},"Ặ":{"ha":833,"x_min":-1,"x_max":796,"o":"m 532 1117 q 373 1172 428 1117 q 332 1319 318 1228 l 447 1319 q 466 1239 439 1269 q 544 1208 493 1208 q 634 1239 597 1208 q 678 1319 671 1269 l 796 1319 q 709 1172 782 1228 q 532 1117 636 1117 m -1 0 l 418 1014 l 615 1014 l 713 0 l 565 0 l 546 257 l 258 257 l 156 0 l -1 0 m 306 381 l 536 381 l 513 674 q 503 809 507 751 q 500 888 500 867 q 473 809 493 867 q 422 675 453 751 l 306 381 m 321 -304 q 248 -279 272 -304 q 229 -210 224 -254 q 269 -141 236 -167 q 351 -115 303 -115 q 426 -141 401 -115 q 442 -210 450 -167 q 403 -279 436 -254 q 321 -304 369 -304 z "},"Ằ":{"ha":833,"x_min":-1,"x_max":800,"o":"m -1 0 l 418 1014 l 615 1014 l 713 0 l 565 0 l 546 257 l 258 257 l 156 0 l -1 0 m 306 381 l 536 381 l 513 674 q 503 809 507 751 q 500 888 500 867 q 473 809 493 867 q 422 675 453 751 l 306 381 m 489 1083 q 347 1133 394 1083 q 313 1265 299 1182 l 419 1265 q 435 1200 413 1225 q 503 1175 457 1175 l 579 1175 q 656 1200 625 1175 q 692 1265 686 1225 l 800 1265 q 724 1133 786 1182 q 565 1083 661 1083 l 489 1083 m 513 1251 l 401 1417 l 539 1417 l 640 1251 l 513 1251 z "},"Ẳ":{"ha":833,"x_min":-1,"x_max":800,"o":"m -1 0 l 418 1014 l 615 1014 l 713 0 l 565 0 l 546 257 l 258 257 l 156 0 l -1 0 m 306 381 l 536 381 l 513 674 q 503 809 507 751 q 500 888 500 867 q 473 809 493 867 q 422 675 453 751 l 306 381 m 479 1226 l 546 1293 q 557 1306 553 1300 q 563 1317 561 1313 q 547 1329 565 1329 l 451 1329 l 467 1417 l 601 1417 q 665 1397 644 1417 q 678 1343 685 1378 q 666 1303 675 1322 q 643 1269 657 1285 l 603 1226 l 479 1226 m 489 1083 q 347 1133 394 1083 q 313 1265 299 1182 l 419 1265 q 435 1200 413 1225 q 503 1175 457 1175 l 579 1175 q 656 1200 625 1175 q 692 1265 686 1225 l 800 1265 q 724 1133 786 1182 q 565 1083 661 1083 l 489 1083 z "},"Ẵ":{"ha":833,"x_min":-1,"x_max":814,"o":"m -1 0 l 418 1014 l 615 1014 l 713 0 l 565 0 l 546 257 l 258 257 l 156 0 l -1 0 m 306 381 l 536 381 l 513 674 q 503 809 507 751 q 500 888 500 867 q 473 809 493 867 q 422 675 453 751 l 306 381 m 486 1083 q 351 1124 397 1083 q 318 1246 306 1165 l 425 1246 q 440 1192 419 1210 q 497 1175 460 1175 l 586 1175 q 650 1192 625 1175 q 681 1246 675 1210 l 789 1246 q 717 1124 775 1165 q 569 1083 658 1083 l 486 1083 m 665 1274 q 599 1283 625 1274 q 553 1303 574 1292 q 515 1324 533 1315 q 469 1333 496 1333 q 424 1294 431 1333 l 422 1286 l 324 1286 l 325 1294 q 374 1383 333 1350 q 475 1417 415 1417 q 540 1408 514 1417 q 586 1387 567 1399 q 624 1366 606 1375 q 668 1357 642 1357 q 699 1368 686 1357 q 714 1396 711 1379 l 715 1404 l 814 1404 l 813 1396 q 765 1307 804 1340 q 665 1274 725 1274 z "},"Ǎ":{"ha":833,"x_min":-1,"x_max":825,"o":"m -1 0 l 418 1014 l 615 1014 l 713 0 l 565 0 l 546 257 l 258 257 l 156 0 l -1 0 m 306 381 l 536 381 l 513 674 q 503 809 507 751 q 500 888 500 867 q 473 809 493 867 q 422 675 453 751 l 306 381 m 464 1125 l 303 1319 l 451 1319 l 546 1214 l 667 1319 l 825 1319 l 603 1125 l 464 1125 z "},"Â":{"ha":833,"x_min":-1,"x_max":794,"o":"m -1 0 l 418 1014 l 615 1014 l 713 0 l 565 0 l 546 257 l 258 257 l 156 0 l -1 0 m 306 381 l 536 381 l 513 674 q 503 809 507 751 q 500 888 500 867 q 473 809 493 867 q 422 675 453 751 l 306 381 m 272 1125 l 494 1319 l 633 1319 l 794 1125 l 646 1125 l 553 1231 l 431 1125 l 272 1125 z "},"Ấ":{"ha":833,"x_min":-1,"x_max":1044,"o":"m 706 1251 l 878 1417 l 1044 1417 l 863 1251 l 706 1251 m 268 1083 l 489 1278 l 628 1278 l 789 1083 l 639 1083 l 549 1189 l 425 1083 l 268 1083 m -1 0 l 418 1014 l 615 1014 l 713 0 l 565 0 l 546 257 l 258 257 l 156 0 l -1 0 m 306 381 l 536 381 l 513 674 q 503 809 507 751 q 500 888 500 867 q 473 809 493 867 q 422 675 453 751 l 306 381 z "},"Ậ":{"ha":833,"x_min":-1,"x_max":794,"o":"m 272 1125 l 494 1319 l 633 1319 l 794 1125 l 646 1125 l 553 1231 l 431 1125 l 272 1125 m -1 0 l 418 1014 l 615 1014 l 713 0 l 565 0 l 546 257 l 258 257 l 156 0 l -1 0 m 306 381 l 536 381 l 513 674 q 503 809 507 751 q 500 888 500 867 q 473 809 493 867 q 422 675 453 751 l 306 381 m 321 -304 q 248 -279 272 -304 q 229 -210 224 -254 q 269 -141 236 -167 q 351 -115 303 -115 q 426 -141 401 -115 q 442 -210 450 -167 q 403 -279 436 -254 q 321 -304 369 -304 z "},"Ầ":{"ha":833,"x_min":-1,"x_max":904,"o":"m -1 0 l 418 1014 l 615 1014 l 713 0 l 565 0 l 546 257 l 258 257 l 156 0 l -1 0 m 306 381 l 536 381 l 513 674 q 503 809 507 751 q 500 888 500 867 q 473 809 493 867 q 422 675 453 751 l 306 381 m 763 1251 l 625 1417 l 775 1417 l 904 1251 l 763 1251 m 268 1083 l 489 1278 l 628 1278 l 789 1083 l 639 1083 l 549 1189 l 425 1083 l 268 1083 z "},"Ẩ":{"ha":833,"x_min":-1,"x_max":938,"o":"m 718 1218 l 789 1278 q 801 1292 797 1285 q 806 1306 804 1299 q 785 1329 810 1329 l 696 1329 l 711 1417 l 832 1417 q 910 1392 883 1417 q 929 1322 938 1367 q 917 1288 926 1304 q 893 1258 907 1271 l 846 1218 l 718 1218 m 268 1083 l 489 1278 l 628 1278 l 789 1083 l 639 1083 l 549 1189 l 425 1083 l 268 1083 m -1 0 l 418 1014 l 615 1014 l 713 0 l 565 0 l 546 257 l 258 257 l 156 0 l -1 0 m 306 381 l 536 381 l 513 674 q 503 809 507 751 q 500 888 500 867 q 473 809 493 867 q 422 675 453 751 l 306 381 z "},"Ẫ":{"ha":833,"x_min":-1,"x_max":814,"o":"m -1 0 l 418 1014 l 615 1014 l 713 0 l 565 0 l 546 257 l 258 257 l 156 0 l -1 0 m 306 381 l 536 381 l 513 674 q 503 809 507 751 q 500 888 500 867 q 473 809 493 867 q 422 675 453 751 l 306 381 m 665 1274 q 599 1283 625 1274 q 553 1303 574 1292 q 515 1324 533 1315 q 469 1333 496 1333 q 424 1294 431 1333 l 422 1286 l 324 1286 l 325 1294 q 374 1383 333 1350 q 475 1417 415 1417 q 540 1408 514 1417 q 586 1387 567 1399 q 624 1366 606 1375 q 668 1357 642 1357 q 699 1368 686 1357 q 714 1396 711 1379 l 715 1404 l 814 1404 l 813 1396 q 765 1307 804 1340 q 665 1274 725 1274 m 268 1083 l 443 1233 l 658 1233 l 788 1083 l 636 1083 l 546 1186 l 424 1083 l 268 1083 z "},"Ä":{"ha":833,"x_min":-1,"x_max":810,"o":"m -1 0 l 418 1014 l 615 1014 l 713 0 l 565 0 l 546 257 l 258 257 l 156 0 l -1 0 m 306 381 l 536 381 l 513 674 q 503 809 507 751 q 500 888 500 867 q 473 809 493 867 q 422 675 453 751 l 306 381 m 693 1129 q 627 1154 649 1129 q 613 1222 606 1179 q 649 1292 619 1267 q 724 1318 679 1318 q 788 1292 767 1318 q 803 1222 810 1267 q 767 1154 797 1179 q 693 1129 736 1129 m 375 1129 q 310 1154 332 1129 q 294 1222 289 1179 q 332 1292 301 1267 q 406 1318 363 1318 q 472 1292 450 1318 q 485 1222 493 1267 q 449 1154 479 1179 q 375 1129 419 1129 z "},"Ạ":{"ha":833,"x_min":-1,"x_max":713,"o":"m -1 0 l 418 1014 l 615 1014 l 713 0 l 565 0 l 546 257 l 258 257 l 156 0 l -1 0 m 306 381 l 536 381 l 513 674 q 503 809 507 751 q 500 888 500 867 q 473 809 493 867 q 422 675 453 751 l 306 381 m 321 -304 q 248 -279 272 -304 q 229 -210 224 -254 q 269 -141 236 -167 q 351 -115 303 -115 q 426 -141 401 -115 q 442 -210 450 -167 q 403 -279 436 -254 q 321 -304 369 -304 z "},"À":{"ha":833,"x_min":-1,"x_max":713,"o":"m -1 0 l 418 1014 l 615 1014 l 713 0 l 565 0 l 546 257 l 258 257 l 156 0 l -1 0 m 306 381 l 536 381 l 513 674 q 503 809 507 751 q 500 888 500 867 q 473 809 493 867 q 422 675 453 751 l 306 381 m 479 1125 l 349 1319 l 507 1319 l 626 1125 l 479 1125 z "},"Ả":{"ha":833,"x_min":-1,"x_max":713,"o":"m -1 0 l 418 1014 l 615 1014 l 713 0 l 565 0 l 546 257 l 258 257 l 156 0 l -1 0 m 306 381 l 536 381 l 513 674 q 503 809 507 751 q 500 888 500 867 q 473 809 493 867 q 422 675 453 751 l 306 381 m 449 1132 l 531 1218 q 549 1242 543 1231 q 557 1261 556 1253 q 524 1288 561 1288 l 417 1288 l 432 1386 l 578 1386 q 665 1357 635 1386 q 688 1278 694 1328 q 674 1237 685 1257 q 649 1200 664 1217 l 585 1132 l 449 1132 z "},"Ā":{"ha":833,"x_min":-1,"x_max":789,"o":"m -1 0 l 418 1014 l 615 1014 l 713 0 l 565 0 l 546 257 l 258 257 l 156 0 l -1 0 m 306 381 l 536 381 l 513 674 q 503 809 507 751 q 500 888 500 867 q 473 809 493 867 q 422 675 453 751 l 306 381 m 308 1158 l 328 1276 l 789 1276 l 769 1158 l 308 1158 z "},"Ą":{"ha":833,"x_min":-1,"x_max":715,"o":"m 579 -292 q 459 -253 500 -292 q 428 -154 418 -214 q 472 -69 435 -112 q 583 14 510 -26 l 693 14 l 664 -7 q 594 -70 618 -42 q 567 -125 571 -99 q 579 -171 563 -153 q 629 -189 596 -189 l 715 -189 l 700 -292 l 579 -292 m -1 0 l 418 1014 l 615 1014 l 713 0 l 565 0 l 546 257 l 258 257 l 156 0 l -1 0 m 306 381 l 536 381 l 513 674 q 503 809 507 751 q 500 888 500 867 q 473 809 493 867 q 422 675 453 751 l 306 381 z "},"Å":{"ha":833,"x_min":-1,"x_max":735,"o":"m -1 0 l 418 1014 l 615 1014 l 713 0 l 565 0 l 546 257 l 258 257 l 156 0 l -1 0 m 306 381 l 536 381 l 513 674 q 503 809 507 751 q 500 888 500 867 q 473 809 493 867 q 422 675 453 751 l 306 381 m 522 1058 q 403 1103 444 1058 q 374 1222 363 1149 q 440 1341 385 1296 q 575 1386 496 1386 q 694 1341 653 1386 q 724 1222 735 1296 q 657 1103 713 1149 q 522 1058 601 1058 m 536 1139 q 600 1162 574 1139 q 632 1222 626 1185 q 619 1283 639 1260 q 563 1307 600 1307 q 499 1283 525 1307 q 465 1222 472 1260 q 479 1162 460 1185 q 536 1139 499 1139 z "},"Ã":{"ha":833,"x_min":-1,"x_max":794,"o":"m -1 0 l 418 1014 l 615 1014 l 713 0 l 565 0 l 546 257 l 258 257 l 156 0 l -1 0 m 306 381 l 536 381 l 513 674 q 503 809 507 751 q 500 888 500 867 q 473 809 493 867 q 422 675 453 751 l 306 381 m 631 1126 q 565 1140 589 1126 q 525 1172 540 1154 q 495 1205 510 1190 q 458 1219 481 1219 q 426 1207 440 1219 q 410 1171 413 1194 l 403 1133 l 304 1133 l 311 1176 q 365 1280 322 1242 q 468 1318 408 1318 q 534 1304 510 1318 q 574 1272 558 1290 q 603 1240 589 1254 q 640 1225 618 1225 q 672 1237 660 1225 q 689 1271 685 1249 l 696 1311 l 794 1311 l 788 1268 q 734 1165 776 1203 q 631 1126 692 1126 z "},"Æ":{"ha":833,"x_min":-32,"x_max":896,"o":"m -32 0 l 328 1014 l 896 1014 l 875 882 l 629 882 l 583 590 l 794 590 l 772 456 l 563 456 l 510 132 l 756 132 l 735 0 l 354 0 l 396 267 l 208 267 l 117 0 l -32 0 m 247 383 l 414 383 l 494 882 l 419 882 l 247 383 z "},"Ǽ":{"ha":833,"x_min":-32,"x_max":896,"o":"m -32 0 l 328 1014 l 896 1014 l 875 882 l 629 882 l 583 590 l 794 590 l 772 456 l 563 456 l 510 132 l 756 132 l 735 0 l 354 0 l 396 267 l 208 267 l 117 0 l -32 0 m 247 383 l 414 383 l 494 882 l 419 882 l 247 383 m 443 1125 l 621 1319 l 789 1319 l 601 1125 l 443 1125 z "},"B":{"ha":833,"x_min":57,"x_max":803,"o":"m 57 0 l 218 1014 l 517 1014 q 732 944 661 1014 q 783 753 803 875 q 735 633 774 683 q 640 554 697 582 q 511 526 582 526 l 513 540 q 644 512 590 542 q 722 424 697 482 q 732 285 746 365 q 670 134 718 199 q 547 35 622 69 q 375 0 471 0 l 57 0 m 224 129 l 382 129 q 518 172 464 129 q 585 292 572 215 q 556 417 596 369 q 436 464 517 464 l 276 464 l 224 129 m 296 589 l 447 589 q 572 629 522 589 q 632 738 621 669 q 606 845 643 806 q 496 885 569 885 l 343 885 l 296 589 z "},"C":{"ha":833,"x_min":81,"x_max":801,"o":"m 358 -14 q 199 22 264 -14 q 108 124 135 57 q 94 282 81 192 l 165 732 q 229 890 181 824 q 353 992 278 957 q 524 1028 429 1028 q 681 992 618 1028 q 773 890 744 956 q 786 732 801 824 l 636 732 q 615 853 650 811 q 503 894 579 894 q 377 853 426 894 q 315 733 328 811 l 244 282 q 268 162 232 204 q 379 119 304 119 q 504 162 456 119 q 565 282 553 204 l 715 282 q 653 125 701 192 q 528 22 604 58 q 358 -14 453 -14 z "},"Ć":{"ha":833,"x_min":81,"x_max":801,"o":"m 358 -14 q 199 22 264 -14 q 108 124 135 57 q 94 282 81 192 l 165 732 q 229 890 181 824 q 353 992 278 957 q 524 1028 429 1028 q 681 992 618 1028 q 773 890 744 956 q 786 732 801 824 l 636 732 q 615 853 650 811 q 503 894 579 894 q 377 853 426 894 q 315 733 328 811 l 244 282 q 268 162 232 204 q 379 119 304 119 q 504 162 456 119 q 565 282 553 204 l 715 282 q 653 125 701 192 q 528 22 604 58 q 358 -14 453 -14 m 443 1125 l 621 1319 l 789 1319 l 601 1125 l 443 1125 z "},"Č":{"ha":833,"x_min":81,"x_max":832,"o":"m 358 -14 q 199 22 264 -14 q 108 124 135 57 q 94 282 81 192 l 165 732 q 229 890 181 824 q 353 992 278 957 q 524 1028 429 1028 q 681 992 618 1028 q 773 890 744 956 q 786 732 801 824 l 636 732 q 615 853 650 811 q 503 894 579 894 q 377 853 426 894 q 315 733 328 811 l 244 282 q 268 162 232 204 q 379 119 304 119 q 504 162 456 119 q 565 282 553 204 l 715 282 q 653 125 701 192 q 528 22 604 58 q 358 -14 453 -14 m 471 1125 l 310 1319 l 458 1319 l 553 1214 l 674 1319 l 832 1319 l 610 1125 l 471 1125 z "},"Ç":{"ha":833,"x_min":81,"x_max":801,"o":"m 181 -292 l 193 -208 l 294 -208 q 349 -192 326 -208 q 372 -158 371 -176 q 341 -114 378 -132 q 233 -96 304 -96 l 301 32 l 388 32 l 346 -50 q 422 -68 383 -54 q 485 -108 461 -82 q 503 -172 508 -133 q 442 -256 496 -221 q 308 -292 388 -292 l 181 -292 m 358 -14 q 199 22 264 -14 q 108 124 135 57 q 94 282 81 192 l 165 732 q 229 890 181 824 q 353 992 278 957 q 524 1028 429 1028 q 681 992 618 1028 q 773 890 744 956 q 786 732 801 824 l 636 732 q 615 853 650 811 q 503 894 579 894 q 377 853 426 894 q 315 733 328 811 l 244 282 q 268 162 232 204 q 379 119 304 119 q 504 162 456 119 q 565 282 553 204 l 715 282 q 653 125 701 192 q 528 22 604 58 q 358 -14 453 -14 z "},"Ĉ":{"ha":833,"x_min":81,"x_max":801,"o":"m 358 -14 q 199 22 264 -14 q 108 124 135 57 q 94 282 81 192 l 165 732 q 229 890 181 824 q 353 992 278 957 q 524 1028 429 1028 q 681 992 618 1028 q 773 890 744 956 q 786 732 801 824 l 636 732 q 615 853 650 811 q 503 894 579 894 q 377 853 426 894 q 315 733 328 811 l 244 282 q 268 162 232 204 q 379 119 304 119 q 504 162 456 119 q 565 282 553 204 l 715 282 q 653 125 701 192 q 528 22 604 58 q 358 -14 453 -14 m 279 1125 l 501 1319 l 640 1319 l 801 1125 l 653 1125 l 560 1231 l 438 1125 l 279 1125 z "},"Ċ":{"ha":833,"x_min":81,"x_max":801,"o":"m 358 -14 q 199 22 264 -14 q 108 124 135 57 q 94 282 81 192 l 165 732 q 229 890 181 824 q 353 992 278 957 q 524 1028 429 1028 q 681 992 618 1028 q 773 890 744 956 q 786 732 801 824 l 636 732 q 615 853 650 811 q 503 894 579 894 q 377 853 426 894 q 315 733 328 811 l 244 282 q 268 162 232 204 q 379 119 304 119 q 504 162 456 119 q 565 282 553 204 l 715 282 q 653 125 701 192 q 528 22 604 58 q 358 -14 453 -14 m 540 1128 q 467 1153 492 1128 q 449 1222 443 1179 q 490 1291 457 1265 q 572 1317 522 1317 q 645 1291 621 1317 q 663 1222 669 1265 q 623 1153 656 1179 q 540 1128 590 1128 z "},"D":{"ha":833,"x_min":54,"x_max":793,"o":"m 54 0 l 215 1014 l 499 1014 q 667 976 599 1014 q 764 868 735 938 q 778 704 793 799 l 717 311 q 649 147 701 218 q 517 38 597 76 q 338 0 438 0 l 54 0 m 226 136 l 358 136 q 498 183 442 136 q 567 311 554 229 l 628 704 q 601 831 642 785 q 476 878 560 878 l 343 878 l 226 136 z "},"Ð":{"ha":833,"x_min":14,"x_max":793,"o":"m 14 461 l 14 574 l 403 574 l 403 461 l 14 461 m 54 0 l 215 1014 l 499 1014 q 667 976 599 1014 q 764 868 735 938 q 778 704 793 799 l 717 311 q 649 147 701 218 q 517 38 597 76 q 338 0 438 0 l 54 0 m 226 136 l 358 136 q 498 183 442 136 q 567 311 554 229 l 628 704 q 601 831 642 785 q 476 878 560 878 l 343 878 l 226 136 z "},"Ď":{"ha":833,"x_min":54,"x_max":825,"o":"m 54 0 l 215 1014 l 499 1014 q 667 976 599 1014 q 764 868 735 938 q 778 704 793 799 l 717 311 q 649 147 701 218 q 517 38 597 76 q 338 0 438 0 l 54 0 m 226 136 l 358 136 q 498 183 442 136 q 567 311 554 229 l 628 704 q 601 831 642 785 q 476 878 560 878 l 343 878 l 226 136 m 464 1125 l 303 1319 l 451 1319 l 546 1214 l 667 1319 l 825 1319 l 603 1125 l 464 1125 z "},"Đ":{"ha":833,"x_min":14,"x_max":793,"o":"m 14 461 l 14 574 l 403 574 l 403 461 l 14 461 m 54 0 l 215 1014 l 499 1014 q 667 976 599 1014 q 764 868 735 938 q 778 704 793 799 l 717 311 q 649 147 701 218 q 517 38 597 76 q 338 0 438 0 l 54 0 m 226 136 l 358 136 q 498 183 442 136 q 567 311 554 229 l 628 704 q 601 831 642 785 q 476 878 560 878 l 343 878 l 226 136 z "},"E":{"ha":833,"x_min":69,"x_max":826,"o":"m 69 0 l 231 1014 l 826 1014 l 806 881 l 357 881 l 311 593 l 711 593 l 689 461 l 290 461 l 238 133 l 686 133 l 665 0 l 69 0 z "},"É":{"ha":833,"x_min":69,"x_max":826,"o":"m 69 0 l 231 1014 l 826 1014 l 806 881 l 357 881 l 311 593 l 711 593 l 689 461 l 290 461 l 238 133 l 686 133 l 665 0 l 69 0 m 464 1125 l 642 1319 l 810 1319 l 622 1125 l 464 1125 z "},"Ĕ":{"ha":833,"x_min":69,"x_max":826,"o":"m 69 0 l 231 1014 l 826 1014 l 806 881 l 357 881 l 311 593 l 711 593 l 689 461 l 290 461 l 238 133 l 686 133 l 665 0 l 69 0 m 560 1117 q 401 1172 456 1117 q 360 1319 346 1228 l 475 1319 q 494 1239 467 1269 q 572 1208 521 1208 q 662 1239 625 1208 q 706 1319 699 1269 l 824 1319 q 737 1172 810 1228 q 560 1117 664 1117 z "},"Ě":{"ha":833,"x_min":69,"x_max":853,"o":"m 69 0 l 231 1014 l 826 1014 l 806 881 l 357 881 l 311 593 l 711 593 l 689 461 l 290 461 l 238 133 l 686 133 l 665 0 l 69 0 m 492 1125 l 331 1319 l 479 1319 l 574 1214 l 694 1319 l 853 1319 l 631 1125 l 492 1125 z "},"Ê":{"ha":833,"x_min":69,"x_max":826,"o":"m 69 0 l 231 1014 l 826 1014 l 806 881 l 357 881 l 311 593 l 711 593 l 689 461 l 290 461 l 238 133 l 686 133 l 665 0 l 69 0 m 300 1125 l 522 1319 l 661 1319 l 822 1125 l 674 1125 l 581 1231 l 458 1125 l 300 1125 z "},"Ế":{"ha":833,"x_min":69,"x_max":1044,"o":"m 69 0 l 231 1014 l 826 1014 l 806 881 l 357 881 l 311 593 l 711 593 l 689 461 l 290 461 l 238 133 l 686 133 l 665 0 l 69 0 m 706 1251 l 878 1417 l 1044 1417 l 863 1251 l 706 1251 m 268 1083 l 489 1278 l 628 1278 l 789 1083 l 639 1083 l 549 1189 l 425 1083 l 268 1083 z "},"Ệ":{"ha":833,"x_min":69,"x_max":826,"o":"m 272 1125 l 494 1319 l 633 1319 l 794 1125 l 646 1125 l 553 1231 l 431 1125 l 272 1125 m 69 0 l 231 1014 l 826 1014 l 806 881 l 357 881 l 311 593 l 711 593 l 689 461 l 290 461 l 238 133 l 686 133 l 665 0 l 69 0 m 335 -304 q 262 -279 286 -304 q 243 -210 238 -254 q 283 -141 250 -167 q 365 -115 317 -115 q 440 -141 415 -115 q 456 -210 464 -167 q 417 -279 450 -254 q 335 -304 383 -304 z "},"Ề":{"ha":833,"x_min":69,"x_max":904,"o":"m 69 0 l 231 1014 l 826 1014 l 806 881 l 357 881 l 311 593 l 711 593 l 689 461 l 290 461 l 238 133 l 686 133 l 665 0 l 69 0 m 763 1251 l 625 1417 l 775 1417 l 904 1251 l 763 1251 m 268 1083 l 489 1278 l 628 1278 l 789 1083 l 639 1083 l 549 1189 l 425 1083 l 268 1083 z "},"Ể":{"ha":833,"x_min":69,"x_max":938,"o":"m 69 0 l 231 1014 l 826 1014 l 806 881 l 357 881 l 311 593 l 711 593 l 689 461 l 290 461 l 238 133 l 686 133 l 665 0 l 69 0 m 718 1218 l 789 1278 q 801 1292 797 1285 q 806 1306 804 1299 q 785 1329 810 1329 l 696 1329 l 711 1417 l 832 1417 q 910 1392 883 1417 q 929 1322 938 1367 q 917 1288 926 1304 q 893 1258 907 1271 l 846 1218 l 718 1218 m 268 1083 l 489 1278 l 628 1278 l 789 1083 l 639 1083 l 549 1189 l 425 1083 l 268 1083 z "},"Ễ":{"ha":833,"x_min":69,"x_max":826,"o":"m 69 0 l 231 1014 l 826 1014 l 806 881 l 357 881 l 311 593 l 711 593 l 689 461 l 290 461 l 238 133 l 686 133 l 665 0 l 69 0 m 665 1274 q 599 1283 625 1274 q 553 1303 574 1292 q 515 1324 533 1315 q 469 1333 496 1333 q 424 1294 431 1333 l 422 1286 l 324 1286 l 325 1294 q 374 1383 333 1350 q 475 1417 415 1417 q 540 1408 514 1417 q 586 1387 567 1399 q 624 1366 606 1375 q 668 1357 642 1357 q 699 1368 686 1357 q 714 1396 711 1379 l 715 1404 l 814 1404 l 813 1396 q 765 1307 804 1340 q 665 1274 725 1274 m 268 1083 l 443 1233 l 658 1233 l 788 1083 l 636 1083 l 546 1186 l 424 1083 l 268 1083 z "},"Ë":{"ha":833,"x_min":69,"x_max":838,"o":"m 69 0 l 231 1014 l 826 1014 l 806 881 l 357 881 l 311 593 l 711 593 l 689 461 l 290 461 l 238 133 l 686 133 l 665 0 l 69 0 m 721 1129 q 655 1154 676 1129 q 640 1222 633 1179 q 677 1292 647 1267 q 751 1318 707 1318 q 816 1292 794 1318 q 831 1222 838 1267 q 794 1154 825 1179 q 721 1129 764 1129 m 403 1129 q 338 1154 360 1129 q 322 1222 317 1179 q 360 1292 329 1267 q 433 1318 390 1318 q 499 1292 478 1318 q 513 1222 521 1267 q 477 1154 507 1179 q 403 1129 447 1129 z "},"Ė":{"ha":833,"x_min":69,"x_max":826,"o":"m 69 0 l 231 1014 l 826 1014 l 806 881 l 357 881 l 311 593 l 711 593 l 689 461 l 290 461 l 238 133 l 686 133 l 665 0 l 69 0 m 561 1128 q 488 1153 513 1128 q 469 1222 464 1179 q 510 1291 478 1265 q 593 1317 543 1317 q 666 1291 642 1317 q 683 1222 690 1265 q 644 1153 676 1179 q 561 1128 611 1128 z "},"Ẹ":{"ha":833,"x_min":69,"x_max":826,"o":"m 69 0 l 231 1014 l 826 1014 l 806 881 l 357 881 l 311 593 l 711 593 l 689 461 l 290 461 l 238 133 l 686 133 l 665 0 l 69 0 m 335 -304 q 262 -279 286 -304 q 243 -210 238 -254 q 283 -141 250 -167 q 365 -115 317 -115 q 440 -141 415 -115 q 456 -210 464 -167 q 417 -279 450 -254 q 335 -304 383 -304 z "},"È":{"ha":833,"x_min":69,"x_max":826,"o":"m 69 0 l 231 1014 l 826 1014 l 806 881 l 357 881 l 311 593 l 711 593 l 689 461 l 290 461 l 238 133 l 686 133 l 665 0 l 69 0 m 507 1125 l 376 1319 l 535 1319 l 654 1125 l 507 1125 z "},"Ẻ":{"ha":833,"x_min":69,"x_max":826,"o":"m 69 0 l 231 1014 l 826 1014 l 806 881 l 357 881 l 311 593 l 711 593 l 689 461 l 290 461 l 238 133 l 686 133 l 665 0 l 69 0 m 458 1110 l 540 1194 q 559 1219 553 1208 q 567 1238 565 1229 q 533 1265 571 1265 l 426 1265 l 442 1363 l 588 1363 q 674 1334 644 1363 q 697 1256 704 1306 q 684 1214 694 1235 q 658 1178 674 1193 l 594 1110 l 458 1110 z "},"Ē":{"ha":833,"x_min":69,"x_max":826,"o":"m 69 0 l 231 1014 l 826 1014 l 806 881 l 357 881 l 311 593 l 711 593 l 689 461 l 290 461 l 238 133 l 686 133 l 665 0 l 69 0 m 336 1158 l 356 1276 l 817 1276 l 797 1158 l 336 1158 z "},"Ę":{"ha":833,"x_min":69,"x_max":826,"o":"m 506 -292 q 385 -253 426 -292 q 354 -154 343 -214 q 399 -69 361 -112 q 510 14 436 -26 l 618 14 l 590 -7 q 521 -70 544 -42 q 492 -125 497 -99 q 505 -171 489 -153 q 554 -189 521 -189 l 642 -189 l 625 -292 l 506 -292 m 69 0 l 231 1014 l 826 1014 l 806 881 l 357 881 l 311 593 l 711 593 l 689 461 l 290 461 l 238 133 l 686 133 l 665 0 l 69 0 z "},"Ẽ":{"ha":833,"x_min":69,"x_max":826,"o":"m 69 0 l 231 1014 l 826 1014 l 806 881 l 357 881 l 311 593 l 711 593 l 689 461 l 290 461 l 238 133 l 686 133 l 665 0 l 69 0 m 658 1126 q 592 1140 617 1126 q 553 1172 568 1154 q 523 1205 538 1190 q 486 1219 508 1219 q 454 1207 468 1219 q 438 1171 440 1194 l 431 1133 l 332 1133 l 339 1176 q 393 1280 350 1242 q 496 1318 436 1318 q 562 1304 538 1318 q 601 1272 586 1290 q 631 1240 617 1254 q 668 1225 646 1225 q 700 1237 688 1225 q 717 1271 713 1249 l 724 1311 l 822 1311 l 815 1268 q 762 1165 804 1203 q 658 1126 719 1126 z "},"F":{"ha":833,"x_min":61,"x_max":835,"o":"m 61 0 l 222 1015 l 835 1015 l 813 876 l 346 876 l 299 574 l 729 574 l 707 435 l 279 435 l 210 0 l 61 0 z "},"G":{"ha":833,"x_min":81,"x_max":801,"o":"m 358 -14 q 199 22 264 -14 q 108 124 135 57 q 94 282 81 192 l 165 732 q 229 890 181 824 q 353 992 278 957 q 524 1028 429 1028 q 681 992 618 1028 q 773 890 744 956 q 786 732 801 824 l 636 732 q 615 853 650 811 q 503 894 579 894 q 377 853 426 894 q 315 733 328 811 l 244 282 q 268 161 232 204 q 379 118 304 118 q 504 161 456 118 q 565 282 553 204 l 583 396 l 394 396 l 415 528 l 754 528 l 715 282 q 653 125 701 192 q 528 22 604 58 q 358 -14 453 -14 z "},"Ǵ":{"ha":833,"x_min":81,"x_max":801,"o":"m 358 -14 q 199 22 264 -14 q 108 124 135 57 q 94 282 81 192 l 165 732 q 229 890 181 824 q 353 992 278 957 q 524 1028 429 1028 q 681 992 618 1028 q 773 890 744 956 q 786 732 801 824 l 636 732 q 615 853 650 811 q 503 894 579 894 q 377 853 426 894 q 315 733 328 811 l 244 282 q 268 161 232 204 q 379 118 304 118 q 504 161 456 118 q 565 282 553 204 l 583 396 l 394 396 l 415 528 l 754 528 l 715 282 q 653 125 701 192 q 528 22 604 58 q 358 -14 453 -14 m 436 1125 l 614 1319 l 782 1319 l 594 1125 l 436 1125 z "},"Ğ":{"ha":833,"x_min":81,"x_max":801,"o":"m 358 -14 q 199 22 264 -14 q 108 124 135 57 q 94 282 81 192 l 165 732 q 229 890 181 824 q 353 992 278 957 q 524 1028 429 1028 q 681 992 618 1028 q 773 890 744 956 q 786 732 801 824 l 636 732 q 615 853 650 811 q 503 894 579 894 q 377 853 426 894 q 315 733 328 811 l 244 282 q 268 161 232 204 q 379 118 304 118 q 504 161 456 118 q 565 282 553 204 l 583 396 l 394 396 l 415 528 l 754 528 l 715 282 q 653 125 701 192 q 528 22 604 58 q 358 -14 453 -14 m 532 1117 q 373 1172 428 1117 q 332 1319 318 1228 l 447 1319 q 466 1239 439 1269 q 544 1208 493 1208 q 634 1239 597 1208 q 678 1319 671 1269 l 796 1319 q 709 1172 782 1228 q 532 1117 636 1117 z "},"Ǧ":{"ha":833,"x_min":81,"x_max":825,"o":"m 358 -14 q 199 22 264 -14 q 108 124 135 57 q 94 282 81 192 l 165 732 q 229 890 181 824 q 353 992 278 957 q 524 1028 429 1028 q 681 992 618 1028 q 773 890 744 956 q 786 732 801 824 l 636 732 q 615 853 650 811 q 503 894 579 894 q 377 853 426 894 q 315 733 328 811 l 244 282 q 268 161 232 204 q 379 118 304 118 q 504 161 456 118 q 565 282 553 204 l 583 396 l 394 396 l 415 528 l 754 528 l 715 282 q 653 125 701 192 q 528 22 604 58 q 358 -14 453 -14 m 464 1125 l 303 1319 l 451 1319 l 546 1214 l 667 1319 l 825 1319 l 603 1125 l 464 1125 z "},"Ĝ":{"ha":833,"x_min":81,"x_max":801,"o":"m 358 -14 q 199 22 264 -14 q 108 124 135 57 q 94 282 81 192 l 165 732 q 229 890 181 824 q 353 992 278 957 q 524 1028 429 1028 q 681 992 618 1028 q 773 890 744 956 q 786 732 801 824 l 636 732 q 615 853 650 811 q 503 894 579 894 q 377 853 426 894 q 315 733 328 811 l 244 282 q 268 161 232 204 q 379 118 304 118 q 504 161 456 118 q 565 282 553 204 l 583 396 l 394 396 l 415 528 l 754 528 l 715 282 q 653 125 701 192 q 528 22 604 58 q 358 -14 453 -14 m 272 1125 l 494 1319 l 633 1319 l 794 1125 l 646 1125 l 553 1231 l 431 1125 l 272 1125 z "},"Ģ":{"ha":833,"x_min":81,"x_max":801,"o":"m 358 -14 q 199 22 264 -14 q 108 124 135 57 q 94 282 81 192 l 165 732 q 229 890 181 824 q 353 992 278 957 q 524 1028 429 1028 q 681 992 618 1028 q 773 890 744 956 q 786 732 801 824 l 636 732 q 615 853 650 811 q 503 894 579 894 q 377 853 426 894 q 315 733 328 811 l 244 282 q 268 161 232 204 q 379 118 304 118 q 504 161 456 118 q 565 282 553 204 l 583 396 l 394 396 l 415 528 l 754 528 l 715 282 q 653 125 701 192 q 528 22 604 58 q 358 -14 453 -14 m 150 -333 l 314 -132 l 476 -132 l 294 -333 l 150 -333 z "},"Ġ":{"ha":833,"x_min":81,"x_max":801,"o":"m 358 -14 q 199 22 264 -14 q 108 124 135 57 q 94 282 81 192 l 165 732 q 229 890 181 824 q 353 992 278 957 q 524 1028 429 1028 q 681 992 618 1028 q 773 890 744 956 q 786 732 801 824 l 636 732 q 615 853 650 811 q 503 894 579 894 q 377 853 426 894 q 315 733 328 811 l 244 282 q 268 161 232 204 q 379 118 304 118 q 504 161 456 118 q 565 282 553 204 l 583 396 l 394 396 l 415 528 l 754 528 l 715 282 q 653 125 701 192 q 528 22 604 58 q 358 -14 453 -14 m 533 1128 q 460 1153 485 1128 q 442 1222 436 1179 q 483 1291 450 1265 q 565 1317 515 1317 q 638 1291 614 1317 q 656 1222 663 1265 q 616 1153 649 1179 q 533 1128 583 1128 z "},"H":{"ha":833,"x_min":57,"x_max":815,"o":"m 57 0 l 218 1014 l 368 1014 l 300 594 l 599 594 l 665 1014 l 815 1014 l 654 0 l 504 0 l 576 456 l 279 456 l 207 0 l 57 0 z "},"Ħ":{"ha":833,"x_min":57,"x_max":892,"o":"m 69 729 l 88 842 l 892 842 l 874 729 l 69 729 m 57 0 l 218 1014 l 368 1014 l 300 594 l 599 594 l 665 1014 l 815 1014 l 654 0 l 504 0 l 576 456 l 279 456 l 207 0 l 57 0 z "},"Ĥ":{"ha":833,"x_min":57,"x_max":815,"o":"m 57 0 l 218 1014 l 368 1014 l 300 594 l 599 594 l 665 1014 l 815 1014 l 654 0 l 504 0 l 576 456 l 279 456 l 207 0 l 57 0 m 272 1125 l 494 1319 l 633 1319 l 794 1125 l 646 1125 l 553 1231 l 431 1125 l 272 1125 z "},"I":{"ha":833,"x_min":75,"x_max":797,"o":"m 75 0 l 96 133 l 301 133 l 419 881 l 214 881 l 236 1014 l 797 1014 l 776 881 l 571 881 l 453 133 l 658 133 l 636 0 l 75 0 z "},"Í":{"ha":833,"x_min":75,"x_max":797,"o":"m 75 0 l 96 133 l 301 133 l 419 881 l 214 881 l 236 1014 l 797 1014 l 776 881 l 571 881 l 453 133 l 658 133 l 636 0 l 75 0 m 436 1125 l 614 1319 l 782 1319 l 594 1125 l 436 1125 z "},"Ĭ":{"ha":833,"x_min":75,"x_max":797,"o":"m 75 0 l 96 133 l 301 133 l 419 881 l 214 881 l 236 1014 l 797 1014 l 776 881 l 571 881 l 453 133 l 658 133 l 636 0 l 75 0 m 532 1117 q 373 1172 428 1117 q 332 1319 318 1228 l 447 1319 q 466 1239 439 1269 q 544 1208 493 1208 q 634 1239 597 1208 q 678 1319 671 1269 l 796 1319 q 709 1172 782 1228 q 532 1117 636 1117 z "},"Î":{"ha":833,"x_min":75,"x_max":797,"o":"m 75 0 l 96 133 l 301 133 l 419 881 l 214 881 l 236 1014 l 797 1014 l 776 881 l 571 881 l 453 133 l 658 133 l 636 0 l 75 0 m 272 1125 l 494 1319 l 633 1319 l 794 1125 l 646 1125 l 553 1231 l 431 1125 l 272 1125 z "},"Ï":{"ha":833,"x_min":75,"x_max":810,"o":"m 75 0 l 96 133 l 301 133 l 419 881 l 214 881 l 236 1014 l 797 1014 l 776 881 l 571 881 l 453 133 l 658 133 l 636 0 l 75 0 m 693 1129 q 627 1154 649 1129 q 613 1222 606 1179 q 649 1292 619 1267 q 724 1318 679 1318 q 788 1292 767 1318 q 803 1222 810 1267 q 767 1154 797 1179 q 693 1129 736 1129 m 375 1129 q 310 1154 332 1129 q 294 1222 289 1179 q 332 1292 301 1267 q 406 1318 363 1318 q 472 1292 450 1318 q 485 1222 493 1267 q 449 1154 479 1179 q 375 1129 419 1129 z "},"İ":{"ha":833,"x_min":75,"x_max":797,"o":"m 75 0 l 96 133 l 301 133 l 419 881 l 214 881 l 236 1014 l 797 1014 l 776 881 l 571 881 l 453 133 l 658 133 l 636 0 l 75 0 m 533 1128 q 460 1153 485 1128 q 442 1222 436 1179 q 483 1291 450 1265 q 565 1317 515 1317 q 638 1291 614 1317 q 656 1222 663 1265 q 616 1153 649 1179 q 533 1128 583 1128 z "},"Ị":{"ha":833,"x_min":75,"x_max":797,"o":"m 75 0 l 96 133 l 301 133 l 419 881 l 214 881 l 236 1014 l 797 1014 l 776 881 l 571 881 l 453 133 l 658 133 l 636 0 l 75 0 m 311 -304 q 238 -279 263 -304 q 219 -210 214 -254 q 260 -141 226 -167 q 342 -115 293 -115 q 416 -141 392 -115 q 432 -210 440 -167 q 393 -279 426 -254 q 311 -304 360 -304 z "},"Ì":{"ha":833,"x_min":75,"x_max":797,"o":"m 75 0 l 96 133 l 301 133 l 419 881 l 214 881 l 236 1014 l 797 1014 l 776 881 l 571 881 l 453 133 l 658 133 l 636 0 l 75 0 m 479 1125 l 349 1319 l 507 1319 l 626 1125 l 479 1125 z "},"Ỉ":{"ha":833,"x_min":75,"x_max":797,"o":"m 75 0 l 96 133 l 301 133 l 419 881 l 214 881 l 236 1014 l 797 1014 l 776 881 l 571 881 l 453 133 l 658 133 l 636 0 l 75 0 m 482 1110 l 564 1194 q 583 1219 576 1208 q 590 1238 589 1229 q 557 1265 594 1265 l 450 1265 l 465 1363 l 611 1363 q 698 1334 668 1363 q 721 1256 728 1306 q 708 1214 718 1235 q 682 1178 697 1193 l 618 1110 l 482 1110 z "},"Ī":{"ha":833,"x_min":75,"x_max":797,"o":"m 75 0 l 96 133 l 301 133 l 419 881 l 214 881 l 236 1014 l 797 1014 l 776 881 l 571 881 l 453 133 l 658 133 l 636 0 l 75 0 m 308 1158 l 328 1276 l 789 1276 l 769 1158 l 308 1158 z "},"Į":{"ha":833,"x_min":75,"x_max":797,"o":"m 315 -292 q 194 -253 236 -292 q 164 -154 153 -214 q 208 -69 171 -112 q 319 14 246 -26 l 428 14 l 400 -7 q 331 -70 354 -42 q 301 -125 307 -99 q 315 -171 299 -153 q 364 -189 331 -189 l 451 -189 l 435 -292 l 315 -292 m 75 0 l 96 133 l 301 133 l 419 881 l 214 881 l 236 1014 l 797 1014 l 776 881 l 571 881 l 453 133 l 658 133 l 636 0 l 75 0 z "},"Ĩ":{"ha":833,"x_min":75,"x_max":797,"o":"m 75 0 l 96 133 l 301 133 l 419 881 l 214 881 l 236 1014 l 797 1014 l 776 881 l 571 881 l 453 133 l 658 133 l 636 0 l 75 0 m 631 1126 q 565 1140 589 1126 q 525 1172 540 1154 q 495 1205 510 1190 q 458 1219 481 1219 q 426 1207 440 1219 q 410 1171 413 1194 l 403 1133 l 304 1133 l 311 1176 q 365 1280 322 1242 q 468 1318 408 1318 q 534 1304 510 1318 q 574 1272 558 1290 q 603 1240 589 1254 q 640 1225 618 1225 q 672 1237 660 1225 q 689 1271 685 1249 l 696 1311 l 794 1311 l 788 1268 q 734 1165 776 1203 q 631 1126 692 1126 z "},"J":{"ha":833,"x_min":15,"x_max":797,"o":"m 311 -14 q 88 69 161 -14 q 38 296 15 153 l 188 296 q 213 165 175 211 q 332 118 251 118 q 467 165 414 118 q 533 294 521 211 l 626 876 l 388 876 l 410 1014 l 797 1014 l 683 294 q 619 131 669 200 q 490 24 568 61 q 311 -14 411 -14 z "},"Ĵ":{"ha":833,"x_min":15,"x_max":878,"o":"m 311 -14 q 88 69 161 -14 q 38 296 15 153 l 188 296 q 213 165 175 211 q 332 118 251 118 q 467 165 414 118 q 533 294 521 211 l 626 876 l 388 876 l 410 1014 l 797 1014 l 683 294 q 619 131 669 200 q 490 24 568 61 q 311 -14 411 -14 m 356 1125 l 578 1319 l 717 1319 l 878 1125 l 729 1125 l 636 1231 l 514 1125 l 356 1125 z "},"K":{"ha":833,"x_min":56,"x_max":872,"o":"m 56 0 l 217 1014 l 367 1014 l 299 592 l 431 592 l 707 1014 l 872 1014 l 553 521 l 722 0 l 560 0 l 415 457 l 278 457 l 206 0 l 56 0 z "},"Ķ":{"ha":833,"x_min":56,"x_max":872,"o":"m 56 0 l 217 1014 l 367 1014 l 299 592 l 431 592 l 707 1014 l 872 1014 l 553 521 l 722 0 l 560 0 l 415 457 l 278 457 l 206 0 l 56 0 m 144 -333 l 308 -132 l 471 -132 l 289 -333 l 144 -333 z "},"L":{"ha":833,"x_min":90,"x_max":706,"o":"m 90 0 l 251 1014 l 401 1014 l 263 138 l 706 138 l 683 0 l 90 0 z "},"Ĺ":{"ha":833,"x_min":90,"x_max":706,"o":"m 90 0 l 251 1014 l 401 1014 l 263 138 l 706 138 l 683 0 l 90 0 m 247 1125 l 425 1319 l 593 1319 l 406 1125 l 247 1125 z "},"Ľ":{"ha":833,"x_min":90,"x_max":744,"o":"m 90 0 l 251 1014 l 401 1014 l 263 138 l 706 138 l 683 0 l 90 0 m 550 764 l 604 1014 l 744 1014 l 676 764 l 550 764 z "},"Ļ":{"ha":833,"x_min":90,"x_max":706,"o":"m 90 0 l 251 1014 l 401 1014 l 263 138 l 706 138 l 683 0 l 90 0 m 172 -333 l 336 -132 l 499 -132 l 317 -333 l 172 -333 z "},"Ŀ":{"ha":833,"x_min":90,"x_max":715,"o":"m 90 0 l 251 1014 l 401 1014 l 263 138 l 706 138 l 683 0 l 90 0 z "},"Ł":{"ha":833,"x_min":17,"x_max":710,"o":"m 17 314 l 39 456 l 608 783 l 586 642 l 17 314 m 94 0 l 256 1014 l 406 1014 l 267 138 l 710 138 l 688 0 l 94 0 z "},"M":{"ha":833,"x_min":31,"x_max":842,"o":"m 31 0 l 192 1014 l 374 1014 l 422 689 q 435 601 429 643 q 442 538 440 558 q 466 601 450 558 q 504 689 482 643 l 654 1014 l 842 1014 l 681 0 l 539 0 l 593 342 q 620 490 604 410 q 656 650 636 569 q 694 804 675 731 q 726 933 713 878 l 500 440 l 354 440 l 279 933 q 274 808 278 879 q 263 656 269 736 q 247 494 256 575 q 226 342 239 413 l 172 0 l 31 0 z "},"N":{"ha":833,"x_min":51,"x_max":821,"o":"m 51 0 l 213 1014 l 400 1014 l 564 171 q 572 267 567 211 q 583 382 576 322 q 599 490 590 442 l 682 1014 l 821 1014 l 660 0 l 472 0 l 310 843 q 302 753 307 807 q 290 640 297 699 q 275 532 283 582 l 190 0 l 51 0 z "},"Ń":{"ha":833,"x_min":51,"x_max":821,"o":"m 51 0 l 213 1014 l 400 1014 l 564 171 q 572 267 567 211 q 583 382 576 322 q 599 490 590 442 l 682 1014 l 821 1014 l 660 0 l 472 0 l 310 843 q 302 753 307 807 q 290 640 297 699 q 275 532 283 582 l 190 0 l 51 0 m 436 1125 l 614 1319 l 782 1319 l 594 1125 l 436 1125 z "},"Ň":{"ha":833,"x_min":51,"x_max":825,"o":"m 51 0 l 213 1014 l 400 1014 l 564 171 q 572 267 567 211 q 583 382 576 322 q 599 490 590 442 l 682 1014 l 821 1014 l 660 0 l 472 0 l 310 843 q 302 753 307 807 q 290 640 297 699 q 275 532 283 582 l 190 0 l 51 0 m 464 1125 l 303 1319 l 451 1319 l 546 1214 l 667 1319 l 825 1319 l 603 1125 l 464 1125 z "},"Ņ":{"ha":833,"x_min":51,"x_max":821,"o":"m 51 0 l 213 1014 l 400 1014 l 564 171 q 572 267 567 211 q 583 382 576 322 q 599 490 590 442 l 682 1014 l 821 1014 l 660 0 l 472 0 l 310 843 q 302 753 307 807 q 290 640 297 699 q 275 532 283 582 l 190 0 l 51 0 m 144 -333 l 308 -132 l 472 -132 l 290 -333 l 144 -333 z "},"Ŋ":{"ha":833,"x_min":51,"x_max":821,"o":"m 236 -250 l 258 -110 l 346 -110 q 459 -72 414 -110 q 514 32 504 -33 l 310 843 q 302 753 307 807 q 290 640 297 699 q 275 532 283 582 l 190 0 l 51 0 l 213 1014 l 399 1014 l 582 281 q 590 377 585 321 q 601 494 594 433 q 615 606 608 556 l 682 1014 l 821 1014 l 664 25 q 603 -119 651 -57 q 483 -216 556 -182 q 321 -250 410 -250 l 236 -250 z "},"Ñ":{"ha":833,"x_min":51,"x_max":821,"o":"m 51 0 l 213 1014 l 400 1014 l 564 171 q 572 267 567 211 q 583 382 576 322 q 599 490 590 442 l 682 1014 l 821 1014 l 660 0 l 472 0 l 310 843 q 302 753 307 807 q 290 640 297 699 q 275 532 283 582 l 190 0 l 51 0 m 631 1126 q 565 1140 589 1126 q 525 1172 540 1154 q 495 1205 510 1190 q 458 1219 481 1219 q 426 1207 440 1219 q 410 1171 413 1194 l 403 1133 l 304 1133 l 311 1176 q 365 1280 322 1242 q 468 1318 408 1318 q 534 1304 510 1318 q 574 1272 558 1290 q 603 1240 589 1254 q 640 1225 618 1225 q 672 1237 660 1225 q 689 1271 685 1249 l 696 1311 l 794 1311 l 788 1268 q 734 1165 776 1203 q 631 1126 692 1126 z "},"O":{"ha":833,"x_min":81,"x_max":793,"o":"m 353 -14 q 197 22 260 -14 q 107 124 133 57 q 94 282 81 192 l 165 732 q 228 890 181 824 q 350 992 275 957 q 518 1028 425 1028 q 676 992 613 1028 q 766 890 739 957 q 778 733 793 824 l 707 282 q 644 124 693 192 q 522 22 596 57 q 353 -14 447 -14 m 374 119 q 497 162 450 119 q 557 282 544 204 l 628 732 q 607 853 640 811 q 497 894 574 894 q 374 853 421 894 q 315 732 328 811 l 244 282 q 265 162 232 204 q 374 119 299 119 z "},"Ó":{"ha":833,"x_min":81,"x_max":793,"o":"m 353 -14 q 197 22 260 -14 q 107 124 133 57 q 94 282 81 192 l 165 732 q 228 890 181 824 q 350 992 275 957 q 518 1028 425 1028 q 676 992 613 1028 q 766 890 739 957 q 778 733 793 824 l 707 282 q 644 124 693 192 q 522 22 596 57 q 353 -14 447 -14 m 374 119 q 497 162 450 119 q 557 282 544 204 l 628 732 q 607 853 640 811 q 497 894 574 894 q 374 853 421 894 q 315 732 328 811 l 244 282 q 265 162 232 204 q 374 119 299 119 m 436 1125 l 614 1319 l 782 1319 l 594 1125 l 436 1125 z "},"Ŏ":{"ha":833,"x_min":81,"x_max":796,"o":"m 353 -14 q 197 22 260 -14 q 107 124 133 57 q 94 282 81 192 l 165 732 q 228 890 181 824 q 350 992 275 957 q 518 1028 425 1028 q 676 992 613 1028 q 766 890 739 957 q 778 733 793 824 l 707 282 q 644 124 693 192 q 522 22 596 57 q 353 -14 447 -14 m 374 119 q 497 162 450 119 q 557 282 544 204 l 628 732 q 607 853 640 811 q 497 894 574 894 q 374 853 421 894 q 315 732 328 811 l 244 282 q 265 162 232 204 q 374 119 299 119 m 532 1117 q 373 1172 428 1117 q 332 1319 318 1228 l 447 1319 q 466 1239 439 1269 q 544 1208 493 1208 q 634 1239 597 1208 q 678 1319 671 1269 l 796 1319 q 709 1172 782 1228 q 532 1117 636 1117 z "},"Ô":{"ha":833,"x_min":81,"x_max":794,"o":"m 353 -14 q 197 22 260 -14 q 107 124 133 57 q 94 282 81 192 l 165 732 q 228 890 181 824 q 350 992 275 957 q 518 1028 425 1028 q 676 992 613 1028 q 766 890 739 957 q 778 733 793 824 l 707 282 q 644 124 693 192 q 522 22 596 57 q 353 -14 447 -14 m 374 119 q 497 162 450 119 q 557 282 544 204 l 628 732 q 607 853 640 811 q 497 894 574 894 q 374 853 421 894 q 315 732 328 811 l 244 282 q 265 162 232 204 q 374 119 299 119 m 272 1125 l 494 1319 l 633 1319 l 794 1125 l 646 1125 l 553 1231 l 431 1125 l 272 1125 z "},"Ố":{"ha":833,"x_min":81,"x_max":1044,"o":"m 353 -14 q 197 22 260 -14 q 107 124 133 57 q 94 282 81 192 l 165 732 q 228 890 181 824 q 350 992 275 957 q 518 1028 425 1028 q 676 992 613 1028 q 766 890 739 957 q 778 733 793 824 l 707 282 q 644 124 693 192 q 522 22 596 57 q 353 -14 447 -14 m 374 119 q 497 162 450 119 q 557 282 544 204 l 628 732 q 607 853 640 811 q 497 894 574 894 q 374 853 421 894 q 315 732 328 811 l 244 282 q 265 162 232 204 q 374 119 299 119 m 706 1251 l 878 1417 l 1044 1417 l 863 1251 l 706 1251 m 268 1083 l 489 1278 l 628 1278 l 789 1083 l 639 1083 l 549 1189 l 425 1083 l 268 1083 z "},"Ộ":{"ha":833,"x_min":81,"x_max":794,"o":"m 272 1125 l 494 1319 l 633 1319 l 794 1125 l 646 1125 l 553 1231 l 431 1125 l 272 1125 m 353 -14 q 197 22 260 -14 q 107 124 133 57 q 94 282 81 192 l 165 732 q 228 890 181 824 q 350 992 275 957 q 518 1028 425 1028 q 676 992 613 1028 q 766 890 739 957 q 778 733 793 824 l 707 282 q 644 124 693 192 q 522 22 596 57 q 353 -14 447 -14 m 374 119 q 497 162 450 119 q 557 282 544 204 l 628 732 q 607 853 640 811 q 497 894 574 894 q 374 853 421 894 q 315 732 328 811 l 244 282 q 265 162 232 204 q 374 119 299 119 m 307 -304 q 234 -279 258 -304 q 215 -210 210 -254 q 256 -141 222 -167 q 338 -115 289 -115 q 412 -141 388 -115 q 428 -210 436 -167 q 389 -279 422 -254 q 307 -304 356 -304 z "},"Ồ":{"ha":833,"x_min":81,"x_max":904,"o":"m 353 -14 q 197 22 260 -14 q 107 124 133 57 q 94 282 81 192 l 165 732 q 228 890 181 824 q 350 992 275 957 q 518 1028 425 1028 q 676 992 613 1028 q 766 890 739 957 q 778 733 793 824 l 707 282 q 644 124 693 192 q 522 22 596 57 q 353 -14 447 -14 m 374 119 q 497 162 450 119 q 557 282 544 204 l 628 732 q 607 853 640 811 q 497 894 574 894 q 374 853 421 894 q 315 732 328 811 l 244 282 q 265 162 232 204 q 374 119 299 119 m 763 1251 l 625 1417 l 775 1417 l 904 1251 l 763 1251 m 268 1083 l 489 1278 l 628 1278 l 789 1083 l 639 1083 l 549 1189 l 425 1083 l 268 1083 z "},"Ổ":{"ha":833,"x_min":81,"x_max":938,"o":"m 353 -14 q 197 22 260 -14 q 107 124 133 57 q 94 282 81 192 l 165 732 q 228 890 181 824 q 350 992 275 957 q 518 1028 425 1028 q 676 992 613 1028 q 766 890 739 957 q 778 733 793 824 l 707 282 q 644 124 693 192 q 522 22 596 57 q 353 -14 447 -14 m 374 119 q 497 162 450 119 q 557 282 544 204 l 628 732 q 607 853 640 811 q 497 894 574 894 q 374 853 421 894 q 315 732 328 811 l 244 282 q 265 162 232 204 q 374 119 299 119 m 718 1218 l 789 1278 q 801 1292 797 1285 q 806 1306 804 1299 q 785 1329 810 1329 l 696 1329 l 711 1417 l 832 1417 q 910 1392 883 1417 q 929 1322 938 1367 q 917 1288 926 1304 q 893 1258 907 1271 l 846 1218 l 718 1218 m 268 1083 l 489 1278 l 628 1278 l 789 1083 l 639 1083 l 549 1189 l 425 1083 l 268 1083 z "},"Ỗ":{"ha":833,"x_min":81,"x_max":814,"o":"m 353 -14 q 197 22 260 -14 q 107 124 133 57 q 94 282 81 192 l 165 732 q 228 890 181 824 q 350 992 275 957 q 518 1028 425 1028 q 676 992 613 1028 q 766 890 739 957 q 778 733 793 824 l 707 282 q 644 124 693 192 q 522 22 596 57 q 353 -14 447 -14 m 374 119 q 497 162 450 119 q 557 282 544 204 l 628 732 q 607 853 640 811 q 497 894 574 894 q 374 853 421 894 q 315 732 328 811 l 244 282 q 265 162 232 204 q 374 119 299 119 m 665 1274 q 599 1283 625 1274 q 553 1303 574 1292 q 515 1324 533 1315 q 469 1333 496 1333 q 424 1294 431 1333 l 422 1286 l 324 1286 l 325 1294 q 374 1383 333 1350 q 475 1417 415 1417 q 540 1408 514 1417 q 586 1387 567 1399 q 624 1366 606 1375 q 668 1357 642 1357 q 699 1368 686 1357 q 714 1396 711 1379 l 715 1404 l 814 1404 l 813 1396 q 765 1307 804 1340 q 665 1274 725 1274 m 268 1083 l 443 1233 l 658 1233 l 788 1083 l 636 1083 l 546 1186 l 424 1083 l 268 1083 z "},"Ö":{"ha":833,"x_min":81,"x_max":810,"o":"m 353 -14 q 197 22 260 -14 q 107 124 133 57 q 94 282 81 192 l 165 732 q 228 890 181 824 q 350 992 275 957 q 518 1028 425 1028 q 676 992 613 1028 q 766 890 739 957 q 778 733 793 824 l 707 282 q 644 124 693 192 q 522 22 596 57 q 353 -14 447 -14 m 374 119 q 497 162 450 119 q 557 282 544 204 l 628 732 q 607 853 640 811 q 497 894 574 894 q 374 853 421 894 q 315 732 328 811 l 244 282 q 265 162 232 204 q 374 119 299 119 m 693 1129 q 627 1154 649 1129 q 613 1222 606 1179 q 649 1292 619 1267 q 724 1318 679 1318 q 788 1292 767 1318 q 803 1222 810 1267 q 767 1154 797 1179 q 693 1129 736 1129 m 375 1129 q 310 1154 332 1129 q 294 1222 289 1179 q 332 1292 301 1267 q 406 1318 363 1318 q 472 1292 450 1318 q 485 1222 493 1267 q 449 1154 479 1179 q 375 1129 419 1129 z "},"Ọ":{"ha":833,"x_min":81,"x_max":793,"o":"m 353 -14 q 197 22 260 -14 q 107 124 133 57 q 94 282 81 192 l 165 732 q 228 890 181 824 q 350 992 275 957 q 518 1028 425 1028 q 676 992 613 1028 q 766 890 739 957 q 778 733 793 824 l 707 282 q 644 124 693 192 q 522 22 596 57 q 353 -14 447 -14 m 374 119 q 497 162 450 119 q 557 282 544 204 l 628 732 q 607 853 640 811 q 497 894 574 894 q 374 853 421 894 q 315 732 328 811 l 244 282 q 265 162 232 204 q 374 119 299 119 m 321 -304 q 248 -279 272 -304 q 229 -210 224 -254 q 269 -141 236 -167 q 351 -115 303 -115 q 426 -141 401 -115 q 442 -210 450 -167 q 403 -279 436 -254 q 321 -304 369 -304 z "},"Ò":{"ha":833,"x_min":81,"x_max":793,"o":"m 353 -14 q 197 22 260 -14 q 107 124 133 57 q 94 282 81 192 l 165 732 q 228 890 181 824 q 350 992 275 957 q 518 1028 425 1028 q 676 992 613 1028 q 766 890 739 957 q 778 733 793 824 l 707 282 q 644 124 693 192 q 522 22 596 57 q 353 -14 447 -14 m 374 119 q 497 162 450 119 q 557 282 544 204 l 628 732 q 607 853 640 811 q 497 894 574 894 q 374 853 421 894 q 315 732 328 811 l 244 282 q 265 162 232 204 q 374 119 299 119 m 479 1125 l 349 1319 l 507 1319 l 626 1125 l 479 1125 z "},"Ỏ":{"ha":833,"x_min":81,"x_max":793,"o":"m 353 -14 q 197 22 260 -14 q 107 124 133 57 q 94 282 81 192 l 165 732 q 228 890 181 824 q 350 992 275 957 q 518 1028 425 1028 q 676 992 613 1028 q 766 890 739 957 q 778 733 793 824 l 707 282 q 644 124 693 192 q 522 22 596 57 q 353 -14 447 -14 m 374 119 q 497 162 450 119 q 557 282 544 204 l 628 732 q 607 853 640 811 q 497 894 574 894 q 374 853 421 894 q 315 732 328 811 l 244 282 q 265 162 232 204 q 374 119 299 119 m 482 1110 l 564 1194 q 583 1219 576 1208 q 590 1238 589 1229 q 557 1265 594 1265 l 450 1265 l 465 1363 l 611 1363 q 698 1334 668 1363 q 721 1256 728 1306 q 708 1214 718 1235 q 682 1178 697 1193 l 618 1110 l 482 1110 z "},"Ơ":{"ha":833,"x_min":81,"x_max":876,"o":"m 625 868 l 640 972 l 681 972 q 719 985 704 972 q 736 1021 733 999 l 753 1125 l 876 1125 l 860 1015 q 798 908 849 949 q 674 868 747 868 l 625 868 m 353 -14 q 197 22 260 -14 q 107 124 133 57 q 94 282 81 192 l 165 732 q 228 890 181 824 q 350 992 275 957 q 518 1028 425 1028 q 676 992 613 1028 q 766 890 739 957 q 778 733 793 824 l 707 282 q 644 124 693 192 q 522 22 596 57 q 353 -14 447 -14 m 374 119 q 497 162 450 119 q 557 282 544 204 l 628 732 q 607 853 640 811 q 497 894 574 894 q 374 853 421 894 q 315 732 328 811 l 244 282 q 265 162 232 204 q 374 119 299 119 z "},"Ớ":{"ha":833,"x_min":81,"x_max":876,"o":"m 625 868 l 640 972 l 681 972 q 719 985 704 972 q 736 1021 733 999 l 753 1125 l 876 1125 l 860 1015 q 798 908 849 949 q 674 868 747 868 l 625 868 m 353 -14 q 197 22 260 -14 q 107 124 133 57 q 94 282 81 192 l 165 732 q 228 890 181 824 q 350 992 275 957 q 518 1028 425 1028 q 676 992 613 1028 q 766 890 739 957 q 778 733 793 824 l 707 282 q 644 124 693 192 q 522 22 596 57 q 353 -14 447 -14 m 374 119 q 497 162 450 119 q 557 282 544 204 l 628 732 q 607 853 640 811 q 497 894 574 894 q 374 853 421 894 q 315 732 328 811 l 244 282 q 265 162 232 204 q 374 119 299 119 m 422 1125 l 600 1319 l 768 1319 l 581 1125 l 422 1125 z "},"Ợ":{"ha":833,"x_min":81,"x_max":876,"o":"m 625 868 l 640 972 l 681 972 q 719 985 704 972 q 736 1021 733 999 l 753 1125 l 876 1125 l 860 1015 q 798 908 849 949 q 674 868 747 868 l 625 868 m 353 -14 q 197 22 260 -14 q 107 124 133 57 q 94 282 81 192 l 165 732 q 228 890 181 824 q 350 992 275 957 q 518 1028 425 1028 q 676 992 613 1028 q 766 890 739 957 q 778 733 793 824 l 707 282 q 644 124 693 192 q 522 22 596 57 q 353 -14 447 -14 m 374 119 q 497 162 450 119 q 557 282 544 204 l 628 732 q 607 853 640 811 q 497 894 574 894 q 374 853 421 894 q 315 732 328 811 l 244 282 q 265 162 232 204 q 374 119 299 119 m 321 -304 q 248 -279 272 -304 q 229 -210 224 -254 q 269 -141 236 -167 q 351 -115 303 -115 q 426 -141 401 -115 q 442 -210 450 -167 q 403 -279 436 -254 q 321 -304 369 -304 z "},"Ờ":{"ha":833,"x_min":81,"x_max":876,"o":"m 625 868 l 640 972 l 681 972 q 719 985 704 972 q 736 1021 733 999 l 753 1125 l 876 1125 l 860 1015 q 798 908 849 949 q 674 868 747 868 l 625 868 m 353 -14 q 197 22 260 -14 q 107 124 133 57 q 94 282 81 192 l 165 732 q 228 890 181 824 q 350 992 275 957 q 518 1028 425 1028 q 676 992 613 1028 q 766 890 739 957 q 778 733 793 824 l 707 282 q 644 124 693 192 q 522 22 596 57 q 353 -14 447 -14 m 374 119 q 497 162 450 119 q 557 282 544 204 l 628 732 q 607 853 640 811 q 497 894 574 894 q 374 853 421 894 q 315 732 328 811 l 244 282 q 265 162 232 204 q 374 119 299 119 m 465 1125 l 335 1319 l 493 1319 l 613 1125 l 465 1125 z "},"Ở":{"ha":833,"x_min":81,"x_max":876,"o":"m 625 868 l 640 972 l 681 972 q 719 985 704 972 q 736 1021 733 999 l 753 1125 l 876 1125 l 860 1015 q 798 908 849 949 q 674 868 747 868 l 625 868 m 353 -14 q 197 22 260 -14 q 107 124 133 57 q 94 282 81 192 l 165 732 q 228 890 181 824 q 350 992 275 957 q 518 1028 425 1028 q 676 992 613 1028 q 766 890 739 957 q 778 733 793 824 l 707 282 q 644 124 693 192 q 522 22 596 57 q 353 -14 447 -14 m 374 119 q 497 162 450 119 q 557 282 544 204 l 628 732 q 607 853 640 811 q 497 894 574 894 q 374 853 421 894 q 315 732 328 811 l 244 282 q 265 162 232 204 q 374 119 299 119 m 458 1110 l 540 1194 q 559 1219 553 1208 q 567 1238 565 1229 q 533 1265 571 1265 l 426 1265 l 442 1363 l 588 1363 q 674 1334 644 1363 q 697 1256 704 1306 q 684 1214 694 1235 q 658 1178 674 1193 l 594 1110 l 458 1110 z "},"Ỡ":{"ha":833,"x_min":81,"x_max":876,"o":"m 625 868 l 640 972 l 681 972 q 719 985 704 972 q 736 1021 733 999 l 753 1125 l 876 1125 l 860 1015 q 798 908 849 949 q 674 868 747 868 l 625 868 m 353 -14 q 197 22 260 -14 q 107 124 133 57 q 94 282 81 192 l 165 732 q 228 890 181 824 q 350 992 275 957 q 518 1028 425 1028 q 676 992 613 1028 q 766 890 739 957 q 778 733 793 824 l 707 282 q 644 124 693 192 q 522 22 596 57 q 353 -14 447 -14 m 374 119 q 497 162 450 119 q 557 282 544 204 l 628 732 q 607 853 640 811 q 497 894 574 894 q 374 853 421 894 q 315 732 328 811 l 244 282 q 265 162 232 204 q 374 119 299 119 m 617 1126 q 551 1140 575 1126 q 511 1172 526 1154 q 481 1205 496 1190 q 444 1219 467 1219 q 413 1207 426 1219 q 396 1171 399 1194 l 389 1133 l 290 1133 l 297 1176 q 351 1280 308 1242 q 454 1318 394 1318 q 520 1304 496 1318 q 560 1272 544 1290 q 590 1240 575 1254 q 626 1225 604 1225 q 658 1237 646 1225 q 675 1271 671 1249 l 682 1311 l 781 1311 l 774 1268 q 720 1165 763 1203 q 617 1126 678 1126 z "},"Ő":{"ha":833,"x_min":81,"x_max":903,"o":"m 353 -14 q 197 22 260 -14 q 107 124 133 57 q 94 282 81 192 l 165 732 q 228 890 181 824 q 350 992 275 957 q 518 1028 425 1028 q 676 992 613 1028 q 766 890 739 957 q 778 733 793 824 l 707 282 q 644 124 693 192 q 522 22 596 57 q 353 -14 447 -14 m 374 119 q 497 162 450 119 q 557 282 544 204 l 628 732 q 607 853 640 811 q 497 894 574 894 q 374 853 421 894 q 315 732 328 811 l 244 282 q 265 162 232 204 q 374 119 299 119 m 568 1125 l 749 1319 l 903 1319 l 713 1125 l 568 1125 m 299 1125 l 481 1319 l 633 1319 l 443 1125 l 299 1125 z "},"Ō":{"ha":833,"x_min":81,"x_max":793,"o":"m 353 -14 q 197 22 260 -14 q 107 124 133 57 q 94 282 81 192 l 165 732 q 228 890 181 824 q 350 992 275 957 q 518 1028 425 1028 q 676 992 613 1028 q 766 890 739 957 q 778 733 793 824 l 707 282 q 644 124 693 192 q 522 22 596 57 q 353 -14 447 -14 m 374 119 q 497 162 450 119 q 557 282 544 204 l 628 732 q 607 853 640 811 q 497 894 574 894 q 374 853 421 894 q 315 732 328 811 l 244 282 q 265 162 232 204 q 374 119 299 119 m 308 1158 l 328 1276 l 789 1276 l 769 1158 l 308 1158 z "},"Ǫ":{"ha":833,"x_min":81,"x_max":793,"o":"m 410 -292 q 290 -253 331 -292 q 258 -154 249 -214 q 279 -105 261 -132 q 325 -51 297 -78 q 388 -1 353 -24 q 376 -9 385 -4 q 353 -14 367 -14 q 197 22 260 -14 q 107 124 133 57 q 94 282 81 192 l 165 732 q 228 890 181 824 q 351 992 276 957 q 518 1028 425 1028 q 676 992 614 1028 q 766 890 739 957 q 778 733 793 824 l 707 282 q 651 134 693 199 q 543 33 608 69 l 489 -6 q 422 -69 443 -40 q 396 -125 401 -99 q 409 -171 393 -153 q 458 -189 425 -189 l 546 -189 l 531 -292 l 410 -292 m 375 119 q 498 162 451 119 q 557 282 544 204 l 628 732 q 608 853 642 811 q 497 894 574 894 q 376 853 422 894 q 315 732 329 811 l 244 282 q 266 162 232 204 q 375 119 300 119 z "},"Ø":{"ha":833,"x_min":-29,"x_max":897,"o":"m -29 -56 l 764 1042 l 897 1042 l 104 -56 l -29 -56 m 353 -14 q 197 22 260 -14 q 107 124 133 57 q 94 282 81 192 l 165 732 q 228 890 181 824 q 350 992 275 957 q 518 1028 425 1028 q 675 992 613 1028 q 765 890 738 957 q 778 733 792 824 l 707 282 q 644 124 693 192 q 522 22 596 57 q 353 -14 447 -14 m 374 119 q 499 162 451 119 q 558 282 546 204 l 629 732 q 608 853 643 811 q 497 894 574 894 q 374 853 421 894 q 313 732 326 811 l 242 282 q 264 162 229 204 q 374 119 299 119 z "},"Ǿ":{"ha":833,"x_min":-29,"x_max":897,"o":"m -29 -56 l 764 1042 l 897 1042 l 104 -56 l -29 -56 m 353 -14 q 197 22 260 -14 q 107 124 133 57 q 94 282 81 192 l 165 732 q 228 890 181 824 q 350 992 275 957 q 518 1028 425 1028 q 675 992 613 1028 q 765 890 738 957 q 778 733 792 824 l 707 282 q 644 124 693 192 q 522 22 596 57 q 353 -14 447 -14 m 374 119 q 499 162 451 119 q 558 282 546 204 l 629 732 q 608 853 643 811 q 497 894 574 894 q 374 853 421 894 q 313 732 326 811 l 242 282 q 264 162 229 204 q 374 119 299 119 m 436 1125 l 614 1319 l 782 1319 l 594 1125 l 436 1125 z "},"Õ":{"ha":833,"x_min":81,"x_max":794,"o":"m 353 -14 q 197 22 260 -14 q 107 124 133 57 q 94 282 81 192 l 165 732 q 228 890 181 824 q 350 992 275 957 q 518 1028 425 1028 q 676 992 613 1028 q 766 890 739 957 q 778 733 793 824 l 707 282 q 644 124 693 192 q 522 22 596 57 q 353 -14 447 -14 m 374 119 q 497 162 450 119 q 557 282 544 204 l 628 732 q 607 853 640 811 q 497 894 574 894 q 374 853 421 894 q 315 732 328 811 l 244 282 q 265 162 232 204 q 374 119 299 119 m 631 1126 q 565 1140 589 1126 q 525 1172 540 1154 q 495 1205 510 1190 q 458 1219 481 1219 q 426 1207 440 1219 q 410 1171 413 1194 l 403 1133 l 304 1133 l 311 1176 q 365 1280 322 1242 q 468 1318 408 1318 q 534 1304 510 1318 q 574 1272 558 1290 q 603 1240 589 1254 q 640 1225 618 1225 q 672 1237 660 1225 q 689 1271 685 1249 l 696 1311 l 794 1311 l 788 1268 q 734 1165 776 1203 q 631 1126 692 1126 z "},"Œ":{"ha":833,"x_min":18,"x_max":900,"o":"m 199 -11 q 91 21 133 -11 q 33 113 49 53 q 32 256 18 174 l 111 760 q 159 904 125 844 q 246 996 193 964 q 364 1028 299 1028 q 442 1008 413 1028 q 484 959 471 988 q 497 903 497 931 l 504 903 l 522 1014 l 900 1014 l 879 882 l 640 882 l 593 589 l 797 589 l 776 457 l 572 457 l 521 132 l 761 132 l 739 0 l 361 0 l 379 114 l 372 114 q 342 58 364 88 q 284 9 319 29 q 199 -11 249 -11 m 265 118 q 353 155 318 118 q 400 256 389 192 l 479 760 q 465 862 489 825 q 390 899 442 899 q 302 862 338 899 q 257 760 267 825 l 178 256 q 190 156 167 193 q 265 118 214 118 z "},"P":{"ha":833,"x_min":56,"x_max":838,"o":"m 56 0 l 217 1014 l 549 1014 q 714 976 647 1014 q 809 870 781 939 q 824 708 838 801 q 758 547 810 617 q 628 440 707 478 q 453 403 550 403 l 269 403 l 206 0 l 56 0 m 290 538 l 474 538 q 604 584 550 538 q 671 708 658 631 q 644 833 683 788 q 528 879 604 879 l 344 879 l 290 538 z "},"Þ":{"ha":833,"x_min":56,"x_max":815,"o":"m 56 0 l 217 1014 l 367 1014 l 335 811 l 533 811 q 744 734 674 811 q 794 528 815 657 q 734 376 782 440 q 612 278 686 313 q 443 244 538 244 l 244 244 l 206 0 l 56 0 m 264 374 l 453 374 q 581 415 531 374 q 642 528 631 457 q 615 641 653 600 q 501 682 578 682 l 313 682 l 264 374 z "},"Q":{"ha":833,"x_min":72,"x_max":800,"o":"m 481 -250 l 371 -1 l 392 -11 q 373 -12 383 -11 q 353 -14 363 -14 q 193 24 258 -14 q 100 128 128 61 q 86 286 72 196 l 157 728 q 221 886 172 819 q 347 990 269 953 q 518 1028 424 1028 q 678 990 614 1028 q 772 886 743 953 q 785 728 800 819 l 714 286 q 635 108 697 182 q 476 6 572 33 l 489 81 l 638 -250 l 481 -250 m 374 118 q 501 164 451 118 q 564 286 551 210 l 635 728 q 610 851 647 806 q 499 896 574 896 q 371 851 422 896 q 307 728 319 806 l 236 286 q 260 164 224 210 q 374 118 297 118 z "},"R":{"ha":833,"x_min":56,"x_max":818,"o":"m 56 0 l 217 1014 l 535 1014 q 695 977 631 1014 q 789 874 760 940 q 803 717 818 807 q 753 581 792 642 q 655 479 714 519 q 522 425 596 439 l 540 500 l 704 0 l 540 0 l 414 417 l 271 417 l 206 0 l 56 0 m 292 549 l 460 549 q 587 594 535 549 q 650 714 639 639 q 625 836 663 792 q 513 881 588 881 l 344 881 l 292 549 z "},"Ŕ":{"ha":833,"x_min":56,"x_max":818,"o":"m 56 0 l 217 1014 l 535 1014 q 695 977 631 1014 q 789 874 760 940 q 803 717 818 807 q 753 581 792 642 q 655 479 714 519 q 522 425 596 439 l 540 500 l 704 0 l 540 0 l 414 417 l 271 417 l 206 0 l 56 0 m 292 549 l 460 549 q 587 594 535 549 q 650 714 639 639 q 625 836 663 792 q 513 881 588 881 l 344 881 l 292 549 m 436 1125 l 614 1319 l 782 1319 l 594 1125 l 436 1125 z "},"Ř":{"ha":833,"x_min":56,"x_max":825,"o":"m 56 0 l 217 1014 l 535 1014 q 695 977 631 1014 q 789 874 760 940 q 803 717 818 807 q 753 581 792 642 q 655 479 714 519 q 522 425 596 439 l 540 500 l 704 0 l 540 0 l 414 417 l 271 417 l 206 0 l 56 0 m 292 549 l 460 549 q 587 594 535 549 q 650 714 639 639 q 625 836 663 792 q 513 881 588 881 l 344 881 l 292 549 m 464 1125 l 303 1319 l 451 1319 l 546 1214 l 667 1319 l 825 1319 l 603 1125 l 464 1125 z "},"Ŗ":{"ha":833,"x_min":56,"x_max":818,"o":"m 56 0 l 217 1014 l 535 1014 q 695 977 631 1014 q 789 874 760 940 q 803 717 818 807 q 753 581 792 642 q 655 479 714 519 q 522 425 596 439 l 540 500 l 704 0 l 540 0 l 414 417 l 271 417 l 206 0 l 56 0 m 292 549 l 460 549 q 587 594 535 549 q 650 714 639 639 q 625 836 663 792 q 513 881 588 881 l 344 881 l 292 549 m 144 -333 l 308 -132 l 472 -132 l 290 -333 l 144 -333 z "},"S":{"ha":833,"x_min":51,"x_max":807,"o":"m 357 -14 q 128 62 204 -14 q 71 268 51 138 l 221 268 q 251 159 210 199 q 379 119 293 119 q 512 158 460 119 q 575 265 564 197 q 560 367 585 325 q 482 426 535 410 l 361 463 q 206 571 256 494 q 171 751 156 647 q 232 897 185 835 q 354 994 279 960 q 524 1029 429 1029 q 735 954 663 1029 q 788 753 807 879 l 638 753 q 613 858 649 819 q 501 896 578 896 q 380 860 426 896 q 324 761 333 825 q 338 660 314 703 q 414 600 361 617 l 539 561 q 692 453 643 529 q 725 271 742 376 q 662 121 713 185 q 533 22 611 57 q 357 -14 454 -14 z "},"Ś":{"ha":833,"x_min":51,"x_max":807,"o":"m 357 -14 q 128 62 204 -14 q 71 268 51 138 l 221 268 q 251 159 210 199 q 379 119 293 119 q 512 158 460 119 q 575 265 564 197 q 560 367 585 325 q 482 426 535 410 l 361 463 q 206 571 256 494 q 171 751 156 647 q 232 897 185 835 q 354 994 279 960 q 524 1029 429 1029 q 735 954 663 1029 q 788 753 807 879 l 638 753 q 613 858 649 819 q 501 896 578 896 q 380 860 426 896 q 324 761 333 825 q 338 660 314 703 q 414 600 361 617 l 539 561 q 692 453 643 529 q 725 271 742 376 q 662 121 713 185 q 533 22 611 57 q 357 -14 454 -14 m 436 1125 l 614 1319 l 782 1319 l 594 1125 l 436 1125 z "},"Š":{"ha":833,"x_min":51,"x_max":825,"o":"m 357 -14 q 128 62 204 -14 q 71 268 51 138 l 221 268 q 251 159 210 199 q 379 119 293 119 q 512 158 460 119 q 575 265 564 197 q 560 367 585 325 q 482 426 535 410 l 361 463 q 206 571 256 494 q 171 751 156 647 q 232 897 185 835 q 354 994 279 960 q 524 1029 429 1029 q 735 954 663 1029 q 788 753 807 879 l 638 753 q 613 858 649 819 q 501 896 578 896 q 380 860 426 896 q 324 761 333 825 q 338 660 314 703 q 414 600 361 617 l 539 561 q 692 453 643 529 q 725 271 742 376 q 662 121 713 185 q 533 22 611 57 q 357 -14 454 -14 m 464 1125 l 303 1319 l 451 1319 l 546 1214 l 667 1319 l 825 1319 l 603 1125 l 464 1125 z "},"Ş":{"ha":833,"x_min":51,"x_max":807,"o":"m 174 -292 l 186 -208 l 288 -208 q 342 -192 319 -208 q 365 -158 364 -176 q 334 -114 371 -132 q 226 -96 297 -96 l 294 32 l 381 32 l 339 -50 q 415 -68 376 -54 q 478 -108 454 -82 q 496 -172 501 -133 q 435 -256 489 -221 q 301 -292 381 -292 l 174 -292 m 357 -14 q 128 62 204 -14 q 71 268 51 138 l 221 268 q 251 159 210 199 q 379 119 293 119 q 512 158 460 119 q 575 265 564 197 q 560 367 585 325 q 482 426 535 410 l 361 463 q 206 571 256 494 q 171 751 156 647 q 232 897 185 835 q 354 994 279 960 q 524 1029 429 1029 q 735 954 663 1029 q 788 753 807 879 l 638 753 q 613 858 649 819 q 501 896 578 896 q 380 860 426 896 q 324 761 333 825 q 338 660 314 703 q 414 600 361 617 l 539 561 q 692 453 643 529 q 725 271 742 376 q 662 121 713 185 q 533 22 611 57 q 357 -14 454 -14 z "},"Ŝ":{"ha":833,"x_min":51,"x_max":807,"o":"m 357 -14 q 128 62 204 -14 q 71 268 51 138 l 221 268 q 251 159 210 199 q 379 119 293 119 q 512 158 460 119 q 575 265 564 197 q 560 367 585 325 q 482 426 535 410 l 361 463 q 206 571 256 494 q 171 751 156 647 q 232 897 185 835 q 354 994 279 960 q 524 1029 429 1029 q 735 954 663 1029 q 788 753 807 879 l 638 753 q 613 858 649 819 q 501 896 578 896 q 380 860 426 896 q 324 761 333 825 q 338 660 314 703 q 414 600 361 617 l 539 561 q 692 453 643 529 q 725 271 742 376 q 662 121 713 185 q 533 22 611 57 q 357 -14 454 -14 m 272 1125 l 494 1319 l 633 1319 l 794 1125 l 646 1125 l 553 1231 l 431 1125 l 272 1125 z "},"Ș":{"ha":833,"x_min":51,"x_max":807,"o":"m 357 -14 q 128 62 204 -14 q 71 268 51 138 l 221 268 q 251 159 210 199 q 379 119 293 119 q 512 158 460 119 q 575 265 564 197 q 560 367 585 325 q 482 426 535 410 l 361 463 q 206 571 256 494 q 171 751 156 647 q 232 897 185 835 q 354 994 279 960 q 524 1029 429 1029 q 735 954 663 1029 q 788 753 807 879 l 638 753 q 613 858 649 819 q 501 896 578 896 q 380 860 426 896 q 324 761 333 825 q 338 660 314 703 q 414 600 361 617 l 539 561 q 692 453 643 529 q 725 271 742 376 q 662 121 713 185 q 533 22 611 57 q 357 -14 454 -14 m 144 -333 l 308 -132 l 472 -132 l 290 -333 l 144 -333 z "},"ẞ":{"ha":833,"x_min":53,"x_max":842,"o":"m 53 0 l 168 722 q 230 876 182 811 q 352 978 278 942 q 517 1014 426 1014 l 842 1014 l 818 869 l 511 539 l 513 589 q 702 512 639 592 q 744 299 765 432 q 681 142 731 210 q 555 38 631 75 q 385 0 479 0 l 297 0 l 318 132 l 393 132 q 524 178 472 132 q 590 304 576 225 q 565 426 603 381 q 447 472 526 472 l 385 472 l 403 593 l 667 882 l 496 882 q 374 840 424 882 q 311 722 324 797 l 197 0 l 53 0 z "},"Ə":{"ha":833,"x_min":82,"x_max":797,"o":"m 353 -14 q 197 23 260 -14 q 108 126 135 60 q 96 282 82 193 l 140 563 l 599 563 l 625 733 q 607 853 639 811 q 499 896 575 896 q 377 853 424 896 q 318 732 331 811 l 168 732 q 229 890 182 824 q 351 992 276 956 q 518 1028 425 1028 q 729 949 661 1028 q 775 732 797 869 l 704 282 q 643 126 690 193 q 522 23 596 60 q 353 -14 447 -14 m 372 107 q 498 152 454 107 q 554 282 542 197 l 581 449 l 261 449 l 275 460 l 246 282 q 264 151 233 196 q 372 107 294 107 z "},"T":{"ha":833,"x_min":149,"x_max":863,"o":"m 281 0 l 419 876 l 149 876 l 171 1015 l 863 1015 l 840 876 l 569 876 l 431 0 l 281 0 z "},"Ŧ":{"ha":833,"x_min":149,"x_max":863,"o":"m 151 401 l 171 522 l 707 522 l 688 401 l 151 401 m 281 0 l 419 876 l 149 876 l 171 1015 l 863 1015 l 840 876 l 569 876 l 431 0 l 281 0 z "},"Ť":{"ha":833,"x_min":149,"x_max":863,"o":"m 281 0 l 419 876 l 149 876 l 171 1015 l 863 1015 l 840 876 l 569 876 l 431 0 l 281 0 m 464 1125 l 303 1319 l 451 1319 l 546 1214 l 667 1319 l 825 1319 l 603 1125 l 464 1125 z "},"Ţ":{"ha":833,"x_min":149,"x_max":863,"o":"m 240 -292 l 253 -208 l 354 -208 q 408 -192 386 -208 q 432 -158 431 -176 q 401 -114 438 -132 q 292 -96 364 -96 l 361 32 l 431 0 l 406 -50 q 482 -68 443 -54 q 544 -108 521 -82 q 563 -172 568 -133 q 501 -256 554 -221 q 368 -292 447 -292 l 240 -292 m 281 0 l 419 876 l 149 876 l 171 1015 l 863 1015 l 840 876 l 569 876 l 431 0 l 281 0 z "},"Ț":{"ha":833,"x_min":93,"x_max":863,"o":"m 281 0 l 419 876 l 149 876 l 171 1015 l 863 1015 l 840 876 l 569 876 l 431 0 l 281 0 m 94 -333 l 258 -132 l 422 -132 l 240 -333 l 94 -333 z "},"U":{"ha":833,"x_min":75,"x_max":821,"o":"m 353 -14 q 141 66 207 -14 q 97 283 75 146 l 213 1014 l 363 1014 l 247 283 q 265 163 233 207 q 374 118 297 118 q 497 163 450 118 q 556 283 543 207 l 671 1014 l 821 1014 l 706 283 q 644 124 690 192 q 524 22 597 57 q 353 -14 450 -14 z "},"Ú":{"ha":833,"x_min":75,"x_max":821,"o":"m 353 -14 q 141 66 207 -14 q 97 283 75 146 l 213 1014 l 363 1014 l 247 283 q 265 163 233 207 q 374 118 297 118 q 497 163 450 118 q 556 283 543 207 l 671 1014 l 821 1014 l 706 283 q 644 124 690 192 q 524 22 597 57 q 353 -14 450 -14 m 436 1125 l 614 1319 l 782 1319 l 594 1125 l 436 1125 z "},"Ŭ":{"ha":833,"x_min":75,"x_max":821,"o":"m 353 -14 q 141 66 207 -14 q 97 283 75 146 l 213 1014 l 363 1014 l 247 283 q 265 163 233 207 q 374 118 297 118 q 497 163 450 118 q 556 283 543 207 l 671 1014 l 821 1014 l 706 283 q 644 124 690 192 q 524 22 597 57 q 353 -14 450 -14 m 532 1117 q 373 1172 428 1117 q 332 1319 318 1228 l 447 1319 q 466 1239 439 1269 q 544 1208 493 1208 q 634 1239 597 1208 q 678 1319 671 1269 l 796 1319 q 709 1172 782 1228 q 532 1117 636 1117 z "},"Û":{"ha":833,"x_min":75,"x_max":821,"o":"m 353 -14 q 141 66 207 -14 q 97 283 75 146 l 213 1014 l 363 1014 l 247 283 q 265 163 233 207 q 374 118 297 118 q 497 163 450 118 q 556 283 543 207 l 671 1014 l 821 1014 l 706 283 q 644 124 690 192 q 524 22 597 57 q 353 -14 450 -14 m 272 1125 l 494 1319 l 633 1319 l 794 1125 l 646 1125 l 553 1231 l 431 1125 l 272 1125 z "},"Ü":{"ha":833,"x_min":75,"x_max":821,"o":"m 353 -14 q 141 66 207 -14 q 97 283 75 146 l 213 1014 l 363 1014 l 247 283 q 265 163 233 207 q 374 118 297 118 q 497 163 450 118 q 556 283 543 207 l 671 1014 l 821 1014 l 706 283 q 644 124 690 192 q 524 22 597 57 q 353 -14 450 -14 m 693 1129 q 627 1154 649 1129 q 613 1222 606 1179 q 649 1292 619 1267 q 724 1318 679 1318 q 788 1292 767 1318 q 803 1222 810 1267 q 767 1154 797 1179 q 693 1129 736 1129 m 375 1129 q 310 1154 332 1129 q 294 1222 289 1179 q 332 1292 301 1267 q 406 1318 363 1318 q 472 1292 450 1318 q 485 1222 493 1267 q 449 1154 479 1179 q 375 1129 419 1129 z "},"Ụ":{"ha":833,"x_min":75,"x_max":821,"o":"m 353 -14 q 141 66 207 -14 q 97 283 75 146 l 213 1014 l 363 1014 l 247 283 q 265 163 233 207 q 374 118 297 118 q 497 163 450 118 q 556 283 543 207 l 671 1014 l 821 1014 l 706 283 q 644 124 690 192 q 524 22 597 57 q 353 -14 450 -14 m 307 -304 q 234 -279 258 -304 q 215 -210 210 -254 q 256 -141 222 -167 q 338 -115 289 -115 q 412 -141 388 -115 q 428 -210 436 -167 q 389 -279 422 -254 q 307 -304 356 -304 z "},"Ù":{"ha":833,"x_min":75,"x_max":821,"o":"m 353 -14 q 141 66 207 -14 q 97 283 75 146 l 213 1014 l 363 1014 l 247 283 q 265 163 233 207 q 374 118 297 118 q 497 163 450 118 q 556 283 543 207 l 671 1014 l 821 1014 l 706 283 q 644 124 690 192 q 524 22 597 57 q 353 -14 450 -14 m 479 1125 l 349 1319 l 507 1319 l 626 1125 l 479 1125 z "},"Ủ":{"ha":833,"x_min":75,"x_max":821,"o":"m 353 -14 q 141 66 207 -14 q 97 283 75 146 l 213 1014 l 363 1014 l 247 283 q 265 163 233 207 q 374 118 297 118 q 497 163 450 118 q 556 283 543 207 l 671 1014 l 821 1014 l 706 283 q 644 124 690 192 q 524 22 597 57 q 353 -14 450 -14 m 458 1110 l 540 1194 q 559 1219 553 1208 q 567 1238 565 1229 q 533 1265 571 1265 l 426 1265 l 442 1363 l 588 1363 q 674 1334 644 1363 q 697 1256 704 1306 q 684 1214 694 1235 q 658 1178 674 1193 l 594 1110 l 458 1110 z "},"Ư":{"ha":833,"x_min":75,"x_max":974,"o":"m 692 910 l 708 1014 l 778 1014 q 816 1027 801 1014 q 833 1063 831 1040 l 850 1167 l 974 1167 l 956 1057 q 894 950 944 990 q 769 910 843 910 l 692 910 m 353 -14 q 141 66 207 -14 q 97 283 75 146 l 213 1014 l 363 1014 l 247 283 q 265 163 233 207 q 374 118 297 118 q 497 163 450 118 q 556 283 543 207 l 671 1014 l 821 1014 l 706 283 q 644 124 690 192 q 524 22 597 57 q 353 -14 450 -14 z "},"Ứ":{"ha":833,"x_min":75,"x_max":974,"o":"m 692 910 l 708 1014 l 778 1014 q 816 1027 801 1014 q 833 1063 831 1040 l 850 1167 l 974 1167 l 956 1057 q 894 950 944 990 q 769 910 843 910 l 692 910 m 353 -14 q 141 66 207 -14 q 97 283 75 146 l 213 1014 l 363 1014 l 247 283 q 265 163 233 207 q 374 118 297 118 q 497 163 450 118 q 556 283 543 207 l 671 1014 l 821 1014 l 706 283 q 644 124 690 192 q 524 22 597 57 q 353 -14 450 -14 m 436 1125 l 614 1319 l 782 1319 l 594 1125 l 436 1125 z "},"Ự":{"ha":833,"x_min":75,"x_max":974,"o":"m 321 -304 q 248 -279 272 -304 q 229 -210 224 -254 q 269 -141 236 -167 q 351 -115 303 -115 q 426 -141 401 -115 q 442 -210 450 -167 q 403 -279 436 -254 q 321 -304 369 -304 m 692 910 l 708 1014 l 778 1014 q 816 1027 801 1014 q 833 1063 831 1040 l 850 1167 l 974 1167 l 956 1057 q 894 950 944 990 q 769 910 843 910 l 692 910 m 353 -14 q 141 66 207 -14 q 97 283 75 146 l 213 1014 l 363 1014 l 247 283 q 265 163 233 207 q 374 118 297 118 q 497 163 450 118 q 556 283 543 207 l 671 1014 l 821 1014 l 706 283 q 644 124 690 192 q 524 22 597 57 q 353 -14 450 -14 z "},"Ừ":{"ha":833,"x_min":75,"x_max":974,"o":"m 692 910 l 708 1014 l 778 1014 q 816 1027 801 1014 q 833 1063 831 1040 l 850 1167 l 974 1167 l 956 1057 q 894 950 944 990 q 769 910 843 910 l 692 910 m 353 -14 q 141 66 207 -14 q 97 283 75 146 l 213 1014 l 363 1014 l 247 283 q 265 163 233 207 q 374 118 297 118 q 497 163 450 118 q 556 283 543 207 l 671 1014 l 821 1014 l 706 283 q 644 124 690 192 q 524 22 597 57 q 353 -14 450 -14 m 479 1125 l 349 1319 l 507 1319 l 626 1125 l 479 1125 z "},"Ử":{"ha":833,"x_min":75,"x_max":974,"o":"m 692 910 l 708 1014 l 778 1014 q 816 1027 801 1014 q 833 1063 831 1040 l 850 1167 l 974 1167 l 956 1057 q 894 950 944 990 q 769 910 843 910 l 692 910 m 353 -14 q 141 66 207 -14 q 97 283 75 146 l 213 1014 l 363 1014 l 247 283 q 265 163 233 207 q 374 118 297 118 q 497 163 450 118 q 556 283 543 207 l 671 1014 l 821 1014 l 706 283 q 644 124 690 192 q 524 22 597 57 q 353 -14 450 -14 m 458 1110 l 540 1194 q 559 1219 553 1208 q 567 1238 565 1229 q 533 1265 571 1265 l 426 1265 l 442 1363 l 588 1363 q 674 1334 644 1363 q 697 1256 704 1306 q 684 1214 694 1235 q 658 1178 674 1193 l 594 1110 l 458 1110 z "},"Ữ":{"ha":833,"x_min":75,"x_max":974,"o":"m 692 910 l 708 1014 l 778 1014 q 816 1027 801 1014 q 833 1063 831 1040 l 850 1167 l 974 1167 l 956 1057 q 894 950 944 990 q 769 910 843 910 l 692 910 m 353 -14 q 141 66 207 -14 q 97 283 75 146 l 213 1014 l 363 1014 l 247 283 q 265 163 233 207 q 374 118 297 118 q 497 163 450 118 q 556 283 543 207 l 671 1014 l 821 1014 l 706 283 q 644 124 690 192 q 524 22 597 57 q 353 -14 450 -14 m 631 1126 q 565 1140 589 1126 q 525 1172 540 1154 q 495 1205 510 1190 q 458 1219 481 1219 q 426 1207 440 1219 q 410 1171 413 1194 l 403 1133 l 304 1133 l 311 1176 q 365 1280 322 1242 q 468 1318 408 1318 q 534 1304 510 1318 q 574 1272 558 1290 q 603 1240 589 1254 q 640 1225 618 1225 q 672 1237 660 1225 q 689 1271 685 1249 l 696 1311 l 794 1311 l 788 1268 q 734 1165 776 1203 q 631 1126 692 1126 z "},"Ű":{"ha":833,"x_min":75,"x_max":903,"o":"m 353 -14 q 141 66 207 -14 q 97 283 75 146 l 213 1014 l 363 1014 l 247 283 q 265 163 233 207 q 374 118 297 118 q 497 163 450 118 q 556 283 543 207 l 671 1014 l 821 1014 l 706 283 q 644 124 690 192 q 524 22 597 57 q 353 -14 450 -14 m 568 1125 l 749 1319 l 903 1319 l 713 1125 l 568 1125 m 299 1125 l 481 1319 l 633 1319 l 443 1125 l 299 1125 z "},"Ū":{"ha":833,"x_min":75,"x_max":821,"o":"m 353 -14 q 141 66 207 -14 q 97 283 75 146 l 213 1014 l 363 1014 l 247 283 q 265 163 233 207 q 374 118 297 118 q 497 163 450 118 q 556 283 543 207 l 671 1014 l 821 1014 l 706 283 q 644 124 690 192 q 524 22 597 57 q 353 -14 450 -14 m 308 1158 l 328 1276 l 789 1276 l 769 1158 l 308 1158 z "},"Ų":{"ha":833,"x_min":82,"x_max":821,"o":"m 408 -292 q 289 -253 331 -292 q 258 -154 247 -214 q 278 -105 261 -132 q 324 -51 296 -78 q 388 -1 353 -24 q 376 -9 385 -4 q 353 -14 367 -14 q 197 22 260 -14 q 108 124 135 57 q 96 282 82 192 l 213 1014 l 363 1014 l 246 282 q 266 162 233 204 q 374 119 299 119 q 496 162 450 119 q 554 282 542 204 l 671 1014 l 821 1014 l 704 282 q 649 134 690 199 q 543 33 608 69 l 489 -6 q 422 -69 443 -40 q 396 -125 400 -99 q 408 -171 392 -153 q 458 -189 425 -189 l 546 -189 l 529 -292 l 408 -292 z "},"Ů":{"ha":833,"x_min":75,"x_max":821,"o":"m 353 -14 q 141 66 207 -14 q 97 283 75 146 l 213 1014 l 363 1014 l 247 283 q 265 163 233 207 q 374 118 297 118 q 497 163 450 118 q 556 283 543 207 l 671 1014 l 821 1014 l 706 283 q 644 124 690 192 q 524 22 597 57 q 353 -14 450 -14 m 522 1058 q 403 1103 444 1058 q 374 1222 363 1149 q 440 1341 385 1296 q 575 1386 496 1386 q 694 1341 653 1386 q 724 1222 735 1296 q 657 1103 713 1149 q 522 1058 601 1058 m 536 1139 q 600 1162 574 1139 q 632 1222 626 1185 q 619 1283 639 1260 q 563 1307 600 1307 q 499 1283 525 1307 q 465 1222 472 1260 q 479 1162 460 1185 q 536 1139 499 1139 z "},"Ũ":{"ha":833,"x_min":75,"x_max":821,"o":"m 353 -14 q 141 66 207 -14 q 97 283 75 146 l 213 1014 l 363 1014 l 247 283 q 265 163 233 207 q 374 118 297 118 q 497 163 450 118 q 556 283 543 207 l 671 1014 l 821 1014 l 706 283 q 644 124 690 192 q 524 22 597 57 q 353 -14 450 -14 m 631 1126 q 565 1140 589 1126 q 525 1172 540 1154 q 495 1205 510 1190 q 458 1219 481 1219 q 426 1207 440 1219 q 410 1171 413 1194 l 403 1133 l 304 1133 l 311 1176 q 365 1280 322 1242 q 468 1318 408 1318 q 534 1304 510 1318 q 574 1272 558 1290 q 603 1240 589 1254 q 640 1225 618 1225 q 672 1237 660 1225 q 689 1271 685 1249 l 696 1311 l 794 1311 l 788 1268 q 734 1165 776 1203 q 631 1126 692 1126 z "},"V":{"ha":833,"x_min":160,"x_max":874,"o":"m 256 0 l 160 1014 l 311 1014 l 367 339 q 375 220 372 279 q 378 128 378 161 q 408 220 388 161 q 453 340 428 279 l 719 1014 l 874 1014 l 454 0 l 256 0 z "},"W":{"ha":833,"x_min":78,"x_max":904,"o":"m 78 0 l 129 1014 l 260 1014 l 213 286 q 208 225 211 258 q 202 160 206 192 q 196 104 199 128 q 209 160 201 128 q 226 225 217 192 q 243 286 235 258 l 447 1014 l 589 1014 l 554 286 q 551 225 553 258 q 549 160 550 192 q 546 104 547 128 q 558 160 551 128 q 572 225 564 192 q 588 286 581 258 l 774 1014 l 904 1014 l 629 0 l 456 0 l 490 738 q 494 799 492 767 q 498 863 496 832 q 503 915 500 894 q 490 863 497 894 q 474 799 482 832 q 457 738 465 767 l 253 0 l 78 0 z "},"Ẃ":{"ha":833,"x_min":78,"x_max":904,"o":"m 78 0 l 129 1014 l 260 1014 l 213 286 q 208 225 211 258 q 202 160 206 192 q 196 104 199 128 q 209 160 201 128 q 226 225 217 192 q 243 286 235 258 l 447 1014 l 589 1014 l 554 286 q 551 225 553 258 q 549 160 550 192 q 546 104 547 128 q 558 160 551 128 q 572 225 564 192 q 588 286 581 258 l 774 1014 l 904 1014 l 629 0 l 456 0 l 490 738 q 494 799 492 767 q 498 863 496 832 q 503 915 500 894 q 490 863 497 894 q 474 799 482 832 q 457 738 465 767 l 253 0 l 78 0 m 436 1125 l 614 1319 l 782 1319 l 594 1125 l 436 1125 z "},"Ŵ":{"ha":833,"x_min":78,"x_max":904,"o":"m 78 0 l 129 1014 l 260 1014 l 213 286 q 208 225 211 258 q 202 160 206 192 q 196 104 199 128 q 209 160 201 128 q 226 225 217 192 q 243 286 235 258 l 447 1014 l 589 1014 l 554 286 q 551 225 553 258 q 549 160 550 192 q 546 104 547 128 q 558 160 551 128 q 572 225 564 192 q 588 286 581 258 l 774 1014 l 904 1014 l 629 0 l 456 0 l 490 738 q 494 799 492 767 q 498 863 496 832 q 503 915 500 894 q 490 863 497 894 q 474 799 482 832 q 457 738 465 767 l 253 0 l 78 0 m 272 1125 l 494 1319 l 633 1319 l 794 1125 l 646 1125 l 553 1231 l 431 1125 l 272 1125 z "},"Ẅ":{"ha":833,"x_min":78,"x_max":904,"o":"m 78 0 l 129 1014 l 260 1014 l 213 286 q 208 225 211 258 q 202 160 206 192 q 196 104 199 128 q 209 160 201 128 q 226 225 217 192 q 243 286 235 258 l 447 1014 l 589 1014 l 554 286 q 551 225 553 258 q 549 160 550 192 q 546 104 547 128 q 558 160 551 128 q 572 225 564 192 q 588 286 581 258 l 774 1014 l 904 1014 l 629 0 l 456 0 l 490 738 q 494 799 492 767 q 498 863 496 832 q 503 915 500 894 q 490 863 497 894 q 474 799 482 832 q 457 738 465 767 l 253 0 l 78 0 m 693 1129 q 627 1154 649 1129 q 613 1222 606 1179 q 649 1292 619 1267 q 724 1318 679 1318 q 788 1292 767 1318 q 803 1222 810 1267 q 767 1154 797 1179 q 693 1129 736 1129 m 375 1129 q 310 1154 332 1129 q 294 1222 289 1179 q 332 1292 301 1267 q 406 1318 363 1318 q 472 1292 450 1318 q 485 1222 493 1267 q 449 1154 479 1179 q 375 1129 419 1129 z "},"Ẁ":{"ha":833,"x_min":78,"x_max":904,"o":"m 78 0 l 129 1014 l 260 1014 l 213 286 q 208 225 211 258 q 202 160 206 192 q 196 104 199 128 q 209 160 201 128 q 226 225 217 192 q 243 286 235 258 l 447 1014 l 589 1014 l 554 286 q 551 225 553 258 q 549 160 550 192 q 546 104 547 128 q 558 160 551 128 q 572 225 564 192 q 588 286 581 258 l 774 1014 l 904 1014 l 629 0 l 456 0 l 490 738 q 494 799 492 767 q 498 863 496 832 q 503 915 500 894 q 490 863 497 894 q 474 799 482 832 q 457 738 465 767 l 253 0 l 78 0 m 479 1125 l 349 1319 l 507 1319 l 626 1125 l 479 1125 z "},"X":{"ha":833,"x_min":-14,"x_max":869,"o":"m -14 0 l 353 521 l 164 1014 l 328 1014 l 425 738 q 443 685 433 711 q 457 644 453 658 q 480 685 465 658 q 513 738 494 711 l 701 1014 l 869 1014 l 524 519 l 725 0 l 563 0 l 451 300 q 433 353 442 326 q 421 396 424 381 q 396 354 413 381 q 363 301 379 328 l 157 0 l -14 0 z "},"Y":{"ha":833,"x_min":140,"x_max":893,"o":"m 281 0 l 339 374 l 140 1014 l 293 1014 l 411 631 q 428 560 422 593 q 436 510 435 528 q 458 560 443 528 q 497 631 474 593 l 735 1014 l 893 1014 l 489 374 l 431 0 l 281 0 z "},"Ý":{"ha":833,"x_min":140,"x_max":893,"o":"m 281 0 l 339 374 l 140 1014 l 293 1014 l 411 631 q 428 560 422 593 q 436 510 435 528 q 458 560 443 528 q 497 631 474 593 l 735 1014 l 893 1014 l 489 374 l 431 0 l 281 0 m 436 1125 l 614 1319 l 782 1319 l 594 1125 l 436 1125 z "},"Ŷ":{"ha":833,"x_min":140,"x_max":893,"o":"m 281 0 l 339 374 l 140 1014 l 293 1014 l 411 631 q 428 560 422 593 q 436 510 435 528 q 458 560 443 528 q 497 631 474 593 l 735 1014 l 893 1014 l 489 374 l 431 0 l 281 0 m 272 1125 l 494 1319 l 633 1319 l 794 1125 l 646 1125 l 553 1231 l 431 1125 l 272 1125 z "},"Ÿ":{"ha":833,"x_min":140,"x_max":893,"o":"m 281 0 l 339 374 l 140 1014 l 293 1014 l 411 631 q 428 560 422 593 q 436 510 435 528 q 458 560 443 528 q 497 631 474 593 l 735 1014 l 893 1014 l 489 374 l 431 0 l 281 0 m 693 1129 q 627 1154 649 1129 q 613 1222 606 1179 q 649 1292 619 1267 q 724 1318 679 1318 q 788 1292 767 1318 q 803 1222 810 1267 q 767 1154 797 1179 q 693 1129 736 1129 m 375 1129 q 310 1154 332 1129 q 294 1222 289 1179 q 332 1292 301 1267 q 406 1318 363 1318 q 472 1292 450 1318 q 485 1222 493 1267 q 449 1154 479 1179 q 375 1129 419 1129 z "},"Ỵ":{"ha":833,"x_min":140,"x_max":893,"o":"m 281 0 l 339 374 l 140 1014 l 293 1014 l 411 631 q 428 560 422 593 q 436 510 435 528 q 458 560 443 528 q 497 631 474 593 l 735 1014 l 893 1014 l 489 374 l 431 0 l 281 0 m 321 -304 q 248 -279 272 -304 q 229 -210 224 -254 q 269 -141 236 -167 q 351 -115 303 -115 q 426 -141 401 -115 q 442 -210 450 -167 q 403 -279 436 -254 q 321 -304 369 -304 z "},"Ỳ":{"ha":833,"x_min":140,"x_max":893,"o":"m 281 0 l 339 374 l 140 1014 l 293 1014 l 411 631 q 428 560 422 593 q 436 510 435 528 q 458 560 443 528 q 497 631 474 593 l 735 1014 l 893 1014 l 489 374 l 431 0 l 281 0 m 479 1125 l 349 1319 l 507 1319 l 626 1125 l 479 1125 z "},"Ỷ":{"ha":833,"x_min":140,"x_max":893,"o":"m 281 0 l 339 374 l 140 1014 l 293 1014 l 411 631 q 428 560 422 593 q 436 510 435 528 q 458 560 443 528 q 497 631 474 593 l 735 1014 l 893 1014 l 489 374 l 431 0 l 281 0 m 458 1110 l 540 1194 q 559 1219 553 1208 q 567 1238 565 1229 q 533 1265 571 1265 l 426 1265 l 442 1363 l 588 1363 q 674 1334 644 1363 q 697 1256 704 1306 q 684 1214 694 1235 q 658 1178 674 1193 l 594 1110 l 458 1110 z "},"Ȳ":{"ha":833,"x_min":140,"x_max":893,"o":"m 281 0 l 339 374 l 140 1014 l 293 1014 l 411 631 q 428 560 422 593 q 436 510 435 528 q 458 560 443 528 q 497 631 474 593 l 735 1014 l 893 1014 l 489 374 l 431 0 l 281 0 m 308 1158 l 328 1276 l 789 1276 l 769 1158 l 308 1158 z "},"Ỹ":{"ha":833,"x_min":140,"x_max":893,"o":"m 281 0 l 339 374 l 140 1014 l 293 1014 l 411 631 q 428 560 422 593 q 436 510 435 528 q 458 560 443 528 q 497 631 474 593 l 735 1014 l 893 1014 l 489 374 l 431 0 l 281 0 m 631 1126 q 565 1140 589 1126 q 525 1172 540 1154 q 495 1205 510 1190 q 458 1219 481 1219 q 426 1207 440 1219 q 410 1171 413 1194 l 403 1133 l 304 1133 l 311 1176 q 365 1280 322 1242 q 468 1318 408 1318 q 534 1304 510 1318 q 574 1272 558 1290 q 603 1240 589 1254 q 640 1225 618 1225 q 672 1237 660 1225 q 689 1271 685 1249 l 696 1311 l 794 1311 l 788 1268 q 734 1165 776 1203 q 631 1126 692 1126 z "},"Z":{"ha":833,"x_min":53,"x_max":806,"o":"m 53 0 l 76 146 l 618 876 l 200 876 l 222 1014 l 806 1014 l 781 868 l 239 138 l 681 138 l 658 0 l 53 0 z "},"Ź":{"ha":833,"x_min":53,"x_max":806,"o":"m 53 0 l 76 146 l 618 876 l 200 876 l 222 1014 l 806 1014 l 781 868 l 239 138 l 681 138 l 658 0 l 53 0 m 436 1125 l 614 1319 l 782 1319 l 594 1125 l 436 1125 z "},"Ž":{"ha":833,"x_min":53,"x_max":825,"o":"m 53 0 l 76 146 l 618 876 l 200 876 l 222 1014 l 806 1014 l 781 868 l 239 138 l 681 138 l 658 0 l 53 0 m 464 1125 l 303 1319 l 451 1319 l 546 1214 l 667 1319 l 825 1319 l 603 1125 l 464 1125 z "},"Ż":{"ha":833,"x_min":53,"x_max":806,"o":"m 53 0 l 76 146 l 618 876 l 200 876 l 222 1014 l 806 1014 l 781 868 l 239 138 l 681 138 l 658 0 l 53 0 m 533 1128 q 460 1153 485 1128 q 442 1222 436 1179 q 483 1291 450 1265 q 565 1317 515 1317 q 638 1291 614 1317 q 656 1222 663 1265 q 616 1153 649 1179 q 533 1128 583 1128 z "},"a":{"ha":833,"x_min":72,"x_max":776,"o":"m 299 -14 q 128 64 185 -14 q 94 274 72 142 l 128 489 q 183 643 142 579 q 287 742 225 707 q 425 778 349 778 q 567 726 519 778 q 600 583 615 674 l 574 618 l 607 618 l 628 764 l 776 764 l 656 0 l 508 0 l 532 146 l 500 146 l 538 181 q 458 38 522 90 q 299 -14 393 -14 m 372 117 q 491 160 443 117 q 551 282 539 204 l 582 482 q 562 603 596 560 q 456 647 528 647 q 336 605 382 647 q 276 482 290 563 l 246 282 q 265 159 232 201 q 372 117 299 117 z "},"á":{"ha":833,"x_min":72,"x_max":776,"o":"m 299 -14 q 128 64 185 -14 q 94 274 72 142 l 128 489 q 183 643 142 579 q 287 742 225 707 q 425 778 349 778 q 567 726 519 778 q 600 583 615 674 l 574 618 l 607 618 l 628 764 l 776 764 l 656 0 l 508 0 l 532 146 l 500 146 l 538 181 q 458 38 522 90 q 299 -14 393 -14 m 372 117 q 491 160 443 117 q 551 282 539 204 l 582 482 q 562 603 596 560 q 456 647 528 647 q 336 605 382 647 q 276 482 290 563 l 246 282 q 265 159 232 201 q 372 117 299 117 m 407 896 l 585 1090 l 753 1090 l 565 896 l 407 896 z "},"ă":{"ha":833,"x_min":72,"x_max":776,"o":"m 299 -14 q 128 64 185 -14 q 94 274 72 142 l 128 489 q 183 643 142 579 q 287 742 225 707 q 425 778 349 778 q 567 726 519 778 q 600 583 615 674 l 574 618 l 607 618 l 628 764 l 776 764 l 656 0 l 508 0 l 532 146 l 500 146 l 538 181 q 458 38 522 90 q 299 -14 393 -14 m 372 117 q 491 160 443 117 q 551 282 539 204 l 582 482 q 562 603 596 560 q 456 647 528 647 q 336 605 382 647 q 276 482 290 563 l 246 282 q 265 159 232 201 q 372 117 299 117 m 503 888 q 344 943 399 888 q 303 1090 289 999 l 417 1090 q 437 1010 410 1040 q 515 979 464 979 q 605 1010 568 979 q 649 1090 642 1040 l 767 1090 q 680 943 753 999 q 503 888 607 888 z "},"ắ":{"ha":833,"x_min":72,"x_max":776,"o":"m 299 -14 q 128 64 185 -14 q 94 274 72 142 l 128 489 q 183 643 142 579 q 287 742 225 707 q 425 778 349 778 q 567 726 519 778 q 600 583 615 674 l 574 618 l 607 618 l 628 764 l 776 764 l 656 0 l 508 0 l 532 146 l 500 146 l 538 181 q 458 38 522 90 q 299 -14 393 -14 m 372 117 q 491 160 443 117 q 551 282 539 204 l 582 482 q 562 603 596 560 q 456 647 528 647 q 336 605 382 647 q 276 482 290 563 l 246 282 q 265 159 232 201 q 372 117 299 117 m 496 888 q 331 938 390 888 q 283 1071 271 989 l 394 1071 q 419 1006 389 1029 q 510 982 450 982 q 608 1006 571 982 q 653 1071 646 1029 l 768 1071 q 721 975 758 1017 q 625 910 683 933 q 496 888 567 888 m 435 1065 l 624 1250 l 775 1250 l 576 1065 l 435 1065 z "},"ặ":{"ha":833,"x_min":72,"x_max":776,"o":"m 504 888 q 345 943 400 888 q 304 1090 290 999 l 418 1090 q 438 1010 411 1040 q 517 979 465 979 q 606 1010 569 979 q 650 1090 643 1040 l 768 1090 q 681 943 754 999 q 504 888 608 888 m 299 -14 q 128 64 185 -14 q 94 274 72 142 l 128 489 q 183 643 142 579 q 287 742 225 707 q 425 778 349 778 q 567 726 519 778 q 600 583 615 674 l 574 618 l 607 618 l 628 764 l 776 764 l 656 0 l 508 0 l 532 146 l 500 146 l 538 181 q 458 38 522 90 q 299 -14 393 -14 m 372 117 q 491 160 443 117 q 551 282 539 204 l 582 482 q 562 603 596 560 q 456 647 528 647 q 336 605 382 647 q 276 482 290 563 l 246 282 q 265 159 232 201 q 372 117 299 117 m 314 -304 q 241 -279 265 -304 q 222 -210 217 -254 q 263 -141 229 -167 q 344 -115 296 -115 q 419 -141 394 -115 q 435 -210 443 -167 q 396 -279 429 -254 q 314 -304 363 -304 z "},"ằ":{"ha":833,"x_min":72,"x_max":776,"o":"m 299 -14 q 128 64 185 -14 q 94 274 72 142 l 128 489 q 183 643 142 579 q 287 742 225 707 q 425 778 349 778 q 567 726 519 778 q 600 583 615 674 l 574 618 l 607 618 l 628 764 l 776 764 l 656 0 l 508 0 l 532 146 l 500 146 l 538 181 q 458 38 522 90 q 299 -14 393 -14 m 372 117 q 491 160 443 117 q 551 282 539 204 l 582 482 q 562 603 596 560 q 456 647 528 647 q 336 605 382 647 q 276 482 290 563 l 246 282 q 265 159 232 201 q 372 117 299 117 m 496 888 q 331 938 390 888 q 283 1071 271 989 l 394 1071 q 419 1006 389 1029 q 510 983 450 983 q 608 1006 571 983 q 653 1071 646 1029 l 768 1071 q 721 975 758 1017 q 625 910 683 933 q 496 888 567 888 m 476 1065 l 338 1250 l 481 1250 l 611 1065 l 476 1065 z "},"ẳ":{"ha":833,"x_min":72,"x_max":776,"o":"m 299 -14 q 128 64 185 -14 q 94 274 72 142 l 128 489 q 183 643 142 579 q 287 742 225 707 q 425 778 349 778 q 567 726 519 778 q 600 583 615 674 l 574 618 l 607 618 l 628 764 l 776 764 l 656 0 l 508 0 l 532 146 l 500 146 l 538 181 q 458 38 522 90 q 299 -14 393 -14 m 372 117 q 491 160 443 117 q 551 282 539 204 l 582 482 q 562 603 596 560 q 456 647 528 647 q 336 605 382 647 q 276 482 290 563 l 246 282 q 265 159 232 201 q 372 117 299 117 m 496 888 q 331 938 390 888 q 283 1071 271 989 l 396 1071 q 420 1006 389 1029 q 510 983 451 983 q 609 1006 571 983 q 653 1071 647 1029 l 768 1071 q 721 975 758 1017 q 625 910 683 933 q 496 888 567 888 m 446 1064 l 524 1147 q 544 1183 543 1168 q 513 1214 549 1214 l 433 1214 l 449 1308 l 554 1308 q 648 1279 615 1308 q 674 1203 681 1250 q 660 1165 671 1185 q 636 1131 650 1146 l 576 1064 l 446 1064 z "},"ẵ":{"ha":833,"x_min":72,"x_max":790,"o":"m 299 -14 q 128 64 185 -14 q 94 274 72 142 l 128 489 q 183 643 142 579 q 287 742 225 707 q 425 778 349 778 q 567 726 519 778 q 600 583 615 674 l 574 618 l 607 618 l 628 764 l 776 764 l 656 0 l 508 0 l 532 146 l 500 146 l 538 181 q 458 38 522 90 q 299 -14 393 -14 m 372 117 q 491 160 443 117 q 551 282 539 204 l 582 482 q 562 603 596 560 q 456 647 528 647 q 336 605 382 647 q 276 482 290 563 l 246 282 q 265 159 232 201 q 372 117 299 117 m 497 892 q 337 943 393 892 q 294 1076 281 994 l 401 1076 q 422 1009 393 1033 q 508 985 451 985 q 604 1009 568 985 q 649 1076 640 1033 l 758 1076 q 714 980 750 1021 q 622 915 678 939 q 497 892 565 892 m 628 1122 q 562 1136 585 1122 q 524 1168 539 1150 q 496 1200 510 1186 q 458 1214 482 1214 q 410 1171 417 1214 l 403 1133 l 304 1133 l 310 1167 q 363 1264 319 1228 q 468 1300 407 1300 q 534 1286 511 1300 q 571 1255 557 1272 q 599 1224 585 1238 q 638 1210 614 1210 q 671 1221 658 1210 q 686 1250 683 1232 l 692 1290 l 790 1290 l 786 1256 q 733 1159 776 1196 q 628 1122 689 1122 z "},"ǎ":{"ha":833,"x_min":72,"x_max":797,"o":"m 299 -14 q 128 64 185 -14 q 94 274 72 142 l 128 489 q 183 643 142 579 q 287 742 225 707 q 425 778 349 778 q 567 726 519 778 q 600 583 615 674 l 574 618 l 607 618 l 628 764 l 776 764 l 656 0 l 508 0 l 532 146 l 500 146 l 538 181 q 458 38 522 90 q 299 -14 393 -14 m 372 117 q 491 160 443 117 q 551 282 539 204 l 582 482 q 562 603 596 560 q 456 647 528 647 q 336 605 382 647 q 276 482 290 563 l 246 282 q 265 159 232 201 q 372 117 299 117 m 436 896 l 275 1090 l 424 1090 l 518 985 l 639 1090 l 797 1090 l 575 896 l 436 896 z "},"â":{"ha":833,"x_min":72,"x_max":776,"o":"m 299 -14 q 128 64 185 -14 q 94 274 72 142 l 128 489 q 183 643 142 579 q 287 742 225 707 q 425 778 349 778 q 567 726 519 778 q 600 583 615 674 l 574 618 l 607 618 l 628 764 l 776 764 l 656 0 l 508 0 l 532 146 l 500 146 l 538 181 q 458 38 522 90 q 299 -14 393 -14 m 372 117 q 491 160 443 117 q 551 282 539 204 l 582 482 q 562 603 596 560 q 456 647 528 647 q 336 605 382 647 q 276 482 290 563 l 246 282 q 265 159 232 201 q 372 117 299 117 m 243 896 l 465 1090 l 604 1090 l 765 896 l 617 896 l 524 1001 l 401 896 l 243 896 z "},"ấ":{"ha":833,"x_min":72,"x_max":1031,"o":"m 299 -14 q 128 64 185 -14 q 94 274 72 142 l 128 489 q 183 643 142 579 q 287 742 225 707 q 425 778 349 778 q 567 726 519 778 q 600 583 615 674 l 574 618 l 607 618 l 628 764 l 776 764 l 656 0 l 508 0 l 532 146 l 500 146 l 538 181 q 458 38 522 90 q 299 -14 393 -14 m 372 117 q 491 160 443 117 q 551 282 539 204 l 582 482 q 562 603 596 560 q 456 647 528 647 q 336 605 382 647 q 276 482 290 563 l 246 282 q 265 159 232 201 q 372 117 299 117 m 676 1054 l 868 1249 l 1031 1249 l 829 1054 l 676 1054 m 236 896 l 458 1090 l 597 1090 l 758 896 l 608 896 l 517 1001 l 393 896 l 236 896 z "},"ậ":{"ha":833,"x_min":72,"x_max":776,"o":"m 243 896 l 465 1090 l 604 1090 l 765 896 l 617 896 l 524 1001 l 401 896 l 243 896 m 299 -14 q 128 64 185 -14 q 94 274 72 142 l 128 489 q 183 643 142 579 q 287 742 225 707 q 425 778 349 778 q 567 726 519 778 q 600 583 615 674 l 574 618 l 607 618 l 628 764 l 776 764 l 656 0 l 508 0 l 532 146 l 500 146 l 538 181 q 458 38 522 90 q 299 -14 393 -14 m 372 117 q 491 160 443 117 q 551 282 539 204 l 582 482 q 562 603 596 560 q 456 647 528 647 q 336 605 382 647 q 276 482 290 563 l 246 282 q 265 159 232 201 q 372 117 299 117 m 314 -304 q 241 -279 265 -304 q 222 -210 217 -254 q 263 -141 229 -167 q 344 -115 296 -115 q 419 -141 394 -115 q 435 -210 443 -167 q 396 -279 429 -254 q 314 -304 363 -304 z "},"ầ":{"ha":833,"x_min":72,"x_max":896,"o":"m 299 -14 q 128 64 185 -14 q 94 274 72 142 l 128 489 q 183 643 142 579 q 287 742 225 707 q 425 778 349 778 q 567 726 519 778 q 600 583 615 674 l 574 618 l 607 618 l 628 764 l 776 764 l 656 0 l 508 0 l 532 146 l 500 146 l 538 181 q 458 38 522 90 q 299 -14 393 -14 m 372 117 q 491 160 443 117 q 551 282 539 204 l 582 482 q 562 603 596 560 q 456 647 528 647 q 336 605 382 647 q 276 482 290 563 l 246 282 q 265 159 232 201 q 372 117 299 117 m 751 1054 l 601 1249 l 754 1249 l 896 1054 l 751 1054 m 236 896 l 458 1090 l 597 1090 l 758 896 l 608 896 l 517 1001 l 393 896 l 236 896 z "},"ẩ":{"ha":833,"x_min":72,"x_max":922,"o":"m 299 -14 q 128 64 185 -14 q 94 274 72 142 l 128 489 q 183 643 142 579 q 287 742 225 707 q 425 778 349 778 q 567 726 519 778 q 600 583 615 674 l 574 618 l 607 618 l 628 764 l 776 764 l 656 0 l 508 0 l 532 146 l 500 146 l 538 181 q 458 38 522 90 q 299 -14 393 -14 m 372 117 q 491 160 443 117 q 551 282 539 204 l 582 482 q 562 603 596 560 q 456 647 528 647 q 336 605 382 647 q 276 482 290 563 l 246 282 q 265 159 232 201 q 372 117 299 117 m 688 1054 l 765 1138 q 786 1174 785 1157 q 753 1204 790 1204 l 675 1204 l 689 1297 l 796 1297 q 890 1269 857 1297 q 914 1193 922 1240 q 876 1119 908 1154 l 818 1054 l 688 1054 m 236 896 l 458 1090 l 597 1090 l 758 896 l 608 896 l 517 1001 l 393 896 l 236 896 z "},"ẫ":{"ha":833,"x_min":72,"x_max":792,"o":"m 299 -14 q 128 64 185 -14 q 94 274 72 142 l 128 489 q 183 643 142 579 q 287 742 225 707 q 425 778 349 778 q 567 726 519 778 q 600 583 615 674 l 574 618 l 607 618 l 628 764 l 776 764 l 656 0 l 508 0 l 532 146 l 500 146 l 538 181 q 458 38 522 90 q 299 -14 393 -14 m 372 117 q 491 160 443 117 q 551 282 539 204 l 582 482 q 562 603 596 560 q 456 647 528 647 q 336 605 382 647 q 276 482 290 563 l 246 282 q 265 159 232 201 q 372 117 299 117 m 629 1133 q 561 1147 585 1133 q 523 1176 538 1160 q 495 1206 508 1193 q 458 1219 482 1219 q 410 1176 418 1219 l 404 1143 l 306 1143 l 311 1172 q 364 1270 319 1233 q 469 1307 408 1307 q 538 1294 514 1307 q 575 1263 561 1281 q 603 1233 589 1246 q 639 1221 617 1221 q 688 1261 681 1221 l 693 1296 l 792 1296 l 788 1267 q 734 1170 778 1207 q 629 1133 690 1133 m 236 896 l 458 1090 l 597 1090 l 758 896 l 608 896 l 517 1001 l 393 896 l 236 896 z "},"ä":{"ha":833,"x_min":72,"x_max":781,"o":"m 299 -14 q 128 64 185 -14 q 94 274 72 142 l 128 489 q 183 643 142 579 q 287 742 225 707 q 425 778 349 778 q 567 726 519 778 q 600 583 615 674 l 574 618 l 607 618 l 628 764 l 776 764 l 656 0 l 508 0 l 532 146 l 500 146 l 538 181 q 458 38 522 90 q 299 -14 393 -14 m 372 117 q 491 160 443 117 q 551 282 539 204 l 582 482 q 562 603 596 560 q 456 647 528 647 q 336 605 382 647 q 276 482 290 563 l 246 282 q 265 159 232 201 q 372 117 299 117 m 664 896 q 598 922 619 896 q 583 990 576 947 q 620 1060 590 1035 q 693 1086 650 1086 q 759 1060 738 1086 q 774 990 781 1035 q 738 922 768 947 q 664 896 707 896 m 346 896 q 281 922 303 896 q 265 990 260 947 q 302 1060 272 1035 q 376 1086 332 1086 q 442 1060 419 1086 q 456 990 464 1035 q 420 922 450 947 q 346 896 390 896 z "},"ạ":{"ha":833,"x_min":72,"x_max":776,"o":"m 299 -14 q 128 64 185 -14 q 94 274 72 142 l 128 489 q 183 643 142 579 q 287 742 225 707 q 425 778 349 778 q 567 726 519 778 q 600 583 615 674 l 574 618 l 607 618 l 628 764 l 776 764 l 656 0 l 508 0 l 532 146 l 500 146 l 538 181 q 458 38 522 90 q 299 -14 393 -14 m 372 117 q 491 160 443 117 q 551 282 539 204 l 582 482 q 562 603 596 560 q 456 647 528 647 q 336 605 382 647 q 276 482 290 563 l 246 282 q 265 159 232 201 q 372 117 299 117 m 314 -304 q 241 -279 265 -304 q 222 -210 217 -254 q 263 -141 229 -167 q 344 -115 296 -115 q 419 -141 394 -115 q 435 -210 443 -167 q 396 -279 429 -254 q 314 -304 363 -304 z "},"à":{"ha":833,"x_min":72,"x_max":776,"o":"m 299 -14 q 128 64 185 -14 q 94 274 72 142 l 128 489 q 183 643 142 579 q 287 742 225 707 q 425 778 349 778 q 567 726 519 778 q 600 583 615 674 l 574 618 l 607 618 l 628 764 l 776 764 l 656 0 l 508 0 l 532 146 l 500 146 l 538 181 q 458 38 522 90 q 299 -14 393 -14 m 372 117 q 491 160 443 117 q 551 282 539 204 l 582 482 q 562 603 596 560 q 456 647 528 647 q 336 605 382 647 q 276 482 290 563 l 246 282 q 265 159 232 201 q 372 117 299 117 m 450 896 l 319 1090 l 478 1090 l 597 896 l 450 896 z "},"ả":{"ha":833,"x_min":72,"x_max":776,"o":"m 299 -14 q 128 64 185 -14 q 94 274 72 142 l 128 489 q 183 643 142 579 q 287 742 225 707 q 425 778 349 778 q 567 726 519 778 q 600 583 615 674 l 574 618 l 607 618 l 628 764 l 776 764 l 656 0 l 508 0 l 532 146 l 500 146 l 538 181 q 458 38 522 90 q 299 -14 393 -14 m 372 117 q 491 160 443 117 q 551 282 539 204 l 582 482 q 562 603 596 560 q 456 647 528 647 q 336 605 382 647 q 276 482 290 563 l 246 282 q 265 159 232 201 q 372 117 299 117 m 432 896 l 514 982 q 533 1006 526 994 q 540 1025 539 1017 q 507 1051 544 1051 l 400 1051 l 415 1150 l 561 1150 q 648 1121 618 1150 q 671 1042 678 1092 q 658 1001 668 1021 q 632 964 647 981 l 568 896 l 432 896 z "},"ā":{"ha":833,"x_min":72,"x_max":776,"o":"m 299 -14 q 128 64 185 -14 q 94 274 72 142 l 128 489 q 183 643 142 579 q 287 742 225 707 q 425 778 349 778 q 567 726 519 778 q 600 583 615 674 l 574 618 l 607 618 l 628 764 l 776 764 l 656 0 l 508 0 l 532 146 l 500 146 l 538 181 q 458 38 522 90 q 299 -14 393 -14 m 372 117 q 491 160 443 117 q 551 282 539 204 l 582 482 q 562 603 596 560 q 456 647 528 647 q 336 605 382 647 q 276 482 290 563 l 246 282 q 265 159 232 201 q 372 117 299 117 m 278 925 l 297 1043 l 758 1043 l 739 925 l 278 925 z "},"ą":{"ha":833,"x_min":72,"x_max":776,"o":"m 561 -292 q 441 -253 482 -292 q 410 -154 400 -214 q 454 -69 417 -112 q 565 14 492 -26 l 656 0 q 578 -69 603 -40 q 549 -125 553 -99 q 561 -171 544 -153 q 611 -189 578 -189 l 697 -189 l 682 -292 l 561 -292 m 299 -14 q 128 64 185 -14 q 94 274 72 142 l 128 489 q 183 643 142 579 q 287 742 225 707 q 425 778 349 778 q 567 726 519 778 q 600 583 615 674 l 574 618 l 607 618 l 628 764 l 776 764 l 656 0 l 508 0 l 532 146 l 500 146 l 538 181 q 458 38 522 90 q 299 -14 393 -14 m 372 117 q 491 160 443 117 q 551 282 539 204 l 582 482 q 562 603 596 560 q 456 647 528 647 q 336 605 382 647 q 276 482 290 563 l 246 282 q 265 159 232 201 q 372 117 299 117 z "},"å":{"ha":833,"x_min":72,"x_max":776,"o":"m 299 -14 q 128 64 185 -14 q 94 274 72 142 l 128 489 q 183 643 142 579 q 287 742 225 707 q 425 778 349 778 q 567 726 519 778 q 600 583 615 674 l 574 618 l 607 618 l 628 764 l 776 764 l 656 0 l 508 0 l 532 146 l 500 146 l 538 181 q 458 38 522 90 q 299 -14 393 -14 m 372 117 q 491 160 443 117 q 551 282 539 204 l 582 482 q 562 603 596 560 q 456 647 528 647 q 336 605 382 647 q 276 482 290 563 l 246 282 q 265 159 232 201 q 372 117 299 117 m 496 840 q 376 885 417 840 q 346 1004 336 931 q 413 1123 358 1078 q 547 1168 468 1168 q 667 1123 626 1168 q 696 1004 708 1078 q 630 885 686 931 q 496 840 574 840 m 508 921 q 572 944 546 921 q 604 1004 599 967 q 592 1066 611 1043 q 535 1089 572 1089 q 471 1066 497 1089 q 438 1004 444 1043 q 451 944 432 967 q 508 921 471 921 z "},"ã":{"ha":833,"x_min":72,"x_max":776,"o":"m 299 -14 q 128 64 185 -14 q 94 274 72 142 l 128 489 q 183 643 142 579 q 287 742 225 707 q 425 778 349 778 q 567 726 519 778 q 600 583 615 674 l 574 618 l 607 618 l 628 764 l 776 764 l 656 0 l 508 0 l 532 146 l 500 146 l 538 181 q 458 38 522 90 q 299 -14 393 -14 m 372 117 q 491 160 443 117 q 551 282 539 204 l 582 482 q 562 603 596 560 q 456 647 528 647 q 336 605 382 647 q 276 482 290 563 l 246 282 q 265 159 232 201 q 372 117 299 117 m 601 897 q 535 911 560 897 q 496 943 511 925 q 466 976 481 961 q 429 990 451 990 q 397 978 411 990 q 379 942 383 965 l 374 904 l 275 904 l 282 947 q 336 1051 293 1013 q 439 1089 379 1089 q 505 1075 481 1089 q 544 1043 529 1061 q 573 1010 558 1025 q 610 996 588 996 q 642 1008 629 996 q 660 1042 656 1019 l 667 1082 l 765 1082 l 758 1039 q 705 935 747 974 q 601 897 663 897 z "},"æ":{"ha":833,"x_min":3,"x_max":828,"o":"m 174 -14 q 45 40 88 -14 q 17 185 3 94 l 29 264 q 110 401 43 350 q 276 453 178 453 l 367 453 l 383 558 q 375 638 392 613 q 315 663 358 663 q 253 639 279 663 q 221 575 228 615 l 90 575 q 167 722 106 667 q 313 778 228 778 q 399 760 367 778 q 446 717 431 743 q 461 668 461 692 l 468 668 q 498 717 476 692 q 557 760 519 743 q 646 778 594 778 q 783 719 739 778 q 813 560 828 660 l 779 353 l 476 353 l 454 204 q 465 130 446 158 q 522 101 483 101 q 590 124 563 101 q 622 185 617 146 l 753 185 q 674 41 739 96 q 519 -14 610 -14 q 436 3 468 -14 q 390 47 404 21 q 376 96 376 72 l 369 96 q 338 47 363 72 q 273 3 314 21 q 174 -14 232 -14 m 224 101 q 291 130 263 101 q 328 204 319 158 l 350 353 l 263 353 q 197 329 222 353 q 164 264 171 306 l 153 185 q 165 124 146 146 q 224 101 185 101 m 492 453 l 664 453 l 682 560 q 670 635 689 607 q 610 663 651 663 q 544 635 571 663 q 510 560 517 607 l 492 453 z "},"ǽ":{"ha":833,"x_min":3,"x_max":828,"o":"m 174 -14 q 45 40 88 -14 q 17 185 3 94 l 29 264 q 110 401 43 350 q 276 453 178 453 l 367 453 l 383 558 q 375 638 392 613 q 315 663 358 663 q 253 639 279 663 q 221 575 228 615 l 90 575 q 167 722 106 667 q 313 778 228 778 q 399 760 367 778 q 446 717 431 743 q 461 668 461 692 l 468 668 q 498 717 476 692 q 557 760 519 743 q 646 778 594 778 q 783 719 739 778 q 813 560 828 660 l 779 353 l 476 353 l 454 204 q 465 130 446 158 q 522 101 483 101 q 590 124 563 101 q 622 185 617 146 l 753 185 q 674 41 739 96 q 519 -14 610 -14 q 436 3 468 -14 q 390 47 404 21 q 376 96 376 72 l 369 96 q 338 47 363 72 q 273 3 314 21 q 174 -14 232 -14 m 224 101 q 291 130 263 101 q 328 204 319 158 l 350 353 l 263 353 q 197 329 222 353 q 164 264 171 306 l 153 185 q 165 124 146 146 q 224 101 185 101 m 492 453 l 664 453 l 682 560 q 670 635 689 607 q 610 663 651 663 q 544 635 571 663 q 510 560 517 607 l 492 453 m 400 896 l 578 1090 l 746 1090 l 558 896 l 400 896 z "},"b":{"ha":833,"x_min":56,"x_max":760,"o":"m 407 -14 q 265 38 313 -14 q 232 181 218 90 l 260 146 l 228 146 l 204 0 l 56 0 l 217 1014 l 367 1014 l 332 796 l 299 618 l 333 618 l 296 583 q 375 726 310 674 q 533 778 440 778 q 704 700 649 778 q 739 489 760 622 l 706 274 q 650 121 692 185 q 547 22 608 57 q 407 -14 485 -14 m 378 117 q 497 159 450 117 q 557 282 544 201 l 588 482 q 567 605 601 563 q 461 647 533 647 q 343 603 390 647 q 282 482 296 560 l 250 282 q 272 160 238 204 q 378 117 307 117 z "},"c":{"ha":833,"x_min":81,"x_max":765,"o":"m 358 -14 q 199 22 264 -14 q 108 124 135 57 q 94 282 81 192 l 125 482 q 189 640 140 574 q 314 742 238 707 q 485 778 390 778 q 694 706 622 778 q 750 508 765 633 l 601 508 q 571 610 607 574 q 463 646 535 646 q 338 603 386 646 q 276 483 289 561 l 244 282 q 267 161 232 204 q 379 118 303 118 q 499 154 451 118 q 561 256 546 190 l 711 256 q 591 58 686 131 q 358 -14 496 -14 z "},"ć":{"ha":833,"x_min":81,"x_max":765,"o":"m 358 -14 q 199 22 264 -14 q 108 124 135 57 q 94 282 81 192 l 125 482 q 189 640 140 574 q 314 742 238 707 q 485 778 390 778 q 694 706 622 778 q 750 508 765 633 l 601 508 q 571 610 607 574 q 463 646 535 646 q 338 603 386 646 q 276 483 289 561 l 244 282 q 267 161 232 204 q 379 118 303 118 q 499 154 451 118 q 561 256 546 190 l 711 256 q 591 58 686 131 q 358 -14 496 -14 m 406 896 l 583 1090 l 751 1090 l 564 896 l 406 896 z "},"č":{"ha":833,"x_min":81,"x_max":796,"o":"m 358 -14 q 199 22 264 -14 q 108 124 135 57 q 94 282 81 192 l 125 482 q 189 640 140 574 q 314 742 238 707 q 485 778 390 778 q 694 706 622 778 q 750 508 765 633 l 601 508 q 571 610 607 574 q 463 646 535 646 q 338 603 386 646 q 276 483 289 561 l 244 282 q 267 161 232 204 q 379 118 303 118 q 499 154 451 118 q 561 256 546 190 l 711 256 q 591 58 686 131 q 358 -14 496 -14 m 435 896 l 274 1090 l 422 1090 l 517 985 l 638 1090 l 796 1090 l 574 896 l 435 896 z "},"ç":{"ha":833,"x_min":81,"x_max":765,"o":"m 176 -292 l 190 -208 l 292 -208 q 345 -192 324 -208 q 369 -158 367 -176 q 337 -114 374 -132 q 229 -96 300 -96 l 297 32 l 383 32 l 342 -50 q 418 -68 379 -54 q 481 -108 457 -82 q 499 -172 504 -133 q 438 -256 492 -221 q 304 -292 383 -292 l 176 -292 m 358 -14 q 199 22 264 -14 q 108 124 135 57 q 94 282 81 192 l 125 482 q 189 640 140 574 q 314 742 238 707 q 485 778 390 778 q 694 706 622 778 q 750 508 765 633 l 601 508 q 571 610 607 574 q 463 646 535 646 q 338 603 386 646 q 276 483 289 561 l 244 282 q 267 161 232 204 q 379 118 303 118 q 499 154 451 118 q 561 256 546 190 l 711 256 q 591 58 686 131 q 358 -14 496 -14 z "},"ĉ":{"ha":833,"x_min":81,"x_max":765,"o":"m 358 -14 q 199 22 264 -14 q 108 124 135 57 q 94 282 81 192 l 125 482 q 189 640 140 574 q 314 742 238 707 q 485 778 390 778 q 694 706 622 778 q 750 508 765 633 l 601 508 q 571 610 607 574 q 463 646 535 646 q 338 603 386 646 q 276 483 289 561 l 244 282 q 267 161 232 204 q 379 118 303 118 q 499 154 451 118 q 561 256 546 190 l 711 256 q 591 58 686 131 q 358 -14 496 -14 m 236 896 l 458 1090 l 597 1090 l 758 896 l 610 896 l 517 1001 l 394 896 l 236 896 z "},"ċ":{"ha":833,"x_min":81,"x_max":765,"o":"m 358 -14 q 199 22 264 -14 q 108 124 135 57 q 94 282 81 192 l 125 482 q 189 640 140 574 q 314 742 238 707 q 485 778 390 778 q 694 706 622 778 q 750 508 765 633 l 601 508 q 571 610 607 574 q 463 646 535 646 q 338 603 386 646 q 276 483 289 561 l 244 282 q 267 161 232 204 q 379 118 303 118 q 499 154 451 118 q 561 256 546 190 l 711 256 q 591 58 686 131 q 358 -14 496 -14 m 497 896 q 424 922 449 896 q 406 990 400 947 q 447 1060 414 1035 q 528 1086 479 1086 q 601 1060 576 1086 q 619 990 626 1035 q 580 922 613 947 q 497 896 547 896 z "},"d":{"ha":833,"x_min":74,"x_max":817,"o":"m 299 -14 q 129 64 185 -14 q 94 274 74 142 l 128 489 q 183 643 142 579 q 287 742 225 707 q 425 778 349 778 q 567 726 519 778 q 600 583 615 674 l 574 618 l 607 618 l 632 796 l 668 1014 l 817 1014 l 656 0 l 508 0 l 532 146 l 500 146 l 538 181 q 458 38 522 90 q 299 -14 393 -14 m 372 117 q 491 160 443 117 q 551 282 539 204 l 582 482 q 562 603 596 560 q 456 647 528 647 q 336 605 382 647 q 276 482 290 563 l 246 282 q 265 159 232 201 q 372 117 299 117 z "},"ð":{"ha":833,"x_min":58,"x_max":754,"o":"m 353 -10 q 186 30 254 -10 q 88 141 118 69 q 72 307 58 213 q 134 469 88 400 q 252 576 181 538 q 411 614 324 614 q 485 600 453 614 q 538 565 517 586 q 567 526 558 544 l 582 526 q 565 574 581 538 q 514 671 549 610 l 449 786 l 207 690 l 225 814 l 393 883 l 317 1014 l 474 1014 l 517 936 l 754 1026 l 736 901 l 572 839 l 653 703 q 731 510 710 608 q 738 321 753 411 q 669 147 722 221 q 535 31 617 72 q 353 -10 454 -10 m 374 119 q 515 171 457 119 q 586 307 574 222 q 579 406 596 364 q 526 471 563 447 q 433 494 489 494 q 294 442 351 494 q 222 307 236 390 q 251 171 210 222 q 374 119 293 119 z "},"ď":{"ha":833,"x_min":39,"x_max":939,"o":"m 767 764 l 807 1014 l 939 1014 l 885 764 l 767 764 m 243 -14 q 88 62 138 -14 q 60 267 39 138 l 96 496 q 190 702 115 626 q 369 778 264 778 q 494 725 453 778 q 521 583 536 672 l 494 618 l 528 618 l 553 796 l 588 1014 l 733 1014 l 572 0 l 429 0 l 453 146 l 421 146 l 457 181 q 385 39 443 92 q 243 -14 326 -14 m 314 113 q 417 155 376 113 q 471 275 458 197 l 504 489 q 490 609 517 567 q 400 651 463 651 q 295 609 338 651 q 240 489 253 567 l 206 275 q 222 155 193 197 q 314 113 251 113 z "},"đ":{"ha":833,"x_min":74,"x_max":914,"o":"m 94 274 l 115 406 q 171 560 131 496 q 273 659 211 624 q 411 694 335 694 q 543 652 496 694 q 588 535 590 610 l 592 535 l 617 713 l 628 786 l 406 786 l 424 896 l 644 896 l 664 1014 l 814 1014 l 794 896 l 914 896 l 896 786 l 778 786 l 653 0 l 506 0 l 529 146 l 526 146 q 444 28 504 71 q 299 -14 383 -14 q 128 64 183 -14 q 94 274 74 142 m 246 282 q 266 159 233 201 q 371 117 299 117 q 490 160 443 117 q 549 282 536 204 l 567 399 q 547 520 579 476 q 442 564 514 564 q 323 522 369 564 q 264 399 276 479 l 246 282 z "},"e":{"ha":833,"x_min":81,"x_max":753,"o":"m 353 -14 q 197 23 260 -14 q 108 126 135 60 q 94 282 81 193 l 125 482 q 189 638 140 572 q 312 741 238 704 q 479 778 386 778 q 636 741 574 778 q 726 638 699 704 q 738 482 753 572 l 717 346 l 249 346 l 239 282 q 260 153 226 197 q 374 108 293 108 q 481 131 439 108 q 540 199 524 154 l 689 199 q 620 86 668 133 q 503 13 572 39 q 353 -14 435 -14 m 586 436 l 593 483 q 574 613 607 567 q 461 658 542 658 q 333 613 381 658 q 271 482 285 567 l 265 447 l 599 449 l 586 436 z "},"é":{"ha":833,"x_min":81,"x_max":753,"o":"m 353 -14 q 197 23 260 -14 q 108 126 135 60 q 94 282 81 193 l 125 482 q 189 638 140 572 q 312 741 238 704 q 479 778 386 778 q 636 741 574 778 q 726 638 699 704 q 738 482 753 572 l 717 346 l 249 346 l 239 282 q 260 153 226 197 q 374 108 293 108 q 481 131 439 108 q 540 199 524 154 l 689 199 q 620 86 668 133 q 503 13 572 39 q 353 -14 435 -14 m 586 436 l 593 483 q 574 613 607 567 q 461 658 542 658 q 333 613 381 658 q 271 482 285 567 l 265 447 l 599 449 l 586 436 m 400 896 l 578 1090 l 746 1090 l 558 896 l 400 896 z "},"ĕ":{"ha":833,"x_min":81,"x_max":760,"o":"m 353 -14 q 197 23 260 -14 q 108 126 135 60 q 94 282 81 193 l 125 482 q 189 638 140 572 q 312 741 238 704 q 479 778 386 778 q 636 741 574 778 q 726 638 699 704 q 738 482 753 572 l 717 346 l 249 346 l 239 282 q 260 153 226 197 q 374 108 293 108 q 481 131 439 108 q 540 199 524 154 l 689 199 q 620 86 668 133 q 503 13 572 39 q 353 -14 435 -14 m 586 436 l 593 483 q 574 613 607 567 q 461 658 542 658 q 333 613 381 658 q 271 482 285 567 l 265 447 l 599 449 l 586 436 m 496 888 q 337 943 392 888 q 296 1090 282 999 l 410 1090 q 430 1010 403 1040 q 508 979 457 979 q 598 1010 561 979 q 642 1090 635 1040 l 760 1090 q 673 943 746 999 q 496 888 600 888 z "},"ě":{"ha":833,"x_min":81,"x_max":790,"o":"m 353 -14 q 197 23 260 -14 q 108 126 135 60 q 94 282 81 193 l 125 482 q 189 638 140 572 q 312 741 238 704 q 479 778 386 778 q 636 741 574 778 q 726 638 699 704 q 738 482 753 572 l 717 346 l 249 346 l 239 282 q 260 153 226 197 q 374 108 293 108 q 481 131 439 108 q 540 199 524 154 l 689 199 q 620 86 668 133 q 503 13 572 39 q 353 -14 435 -14 m 586 436 l 593 483 q 574 613 607 567 q 461 658 542 658 q 333 613 381 658 q 271 482 285 567 l 265 447 l 599 449 l 586 436 m 429 896 l 268 1090 l 417 1090 l 511 985 l 632 1090 l 790 1090 l 568 896 l 429 896 z "},"ê":{"ha":833,"x_min":81,"x_max":758,"o":"m 353 -14 q 197 23 260 -14 q 108 126 135 60 q 94 282 81 193 l 125 482 q 189 638 140 572 q 312 741 238 704 q 479 778 386 778 q 636 741 574 778 q 726 638 699 704 q 738 482 753 572 l 717 346 l 249 346 l 239 282 q 260 153 226 197 q 374 108 293 108 q 481 131 439 108 q 540 199 524 154 l 689 199 q 620 86 668 133 q 503 13 572 39 q 353 -14 435 -14 m 586 436 l 593 483 q 574 613 607 567 q 461 658 542 658 q 333 613 381 658 q 271 482 285 567 l 265 447 l 599 449 l 586 436 m 236 896 l 458 1090 l 597 1090 l 758 896 l 610 896 l 517 1001 l 394 896 l 236 896 z "},"ế":{"ha":833,"x_min":81,"x_max":1031,"o":"m 353 -14 q 197 23 260 -14 q 108 126 135 60 q 94 282 81 193 l 125 482 q 189 638 140 572 q 312 741 238 704 q 479 778 386 778 q 636 741 574 778 q 726 638 699 704 q 738 482 753 572 l 717 346 l 249 346 l 239 282 q 260 153 226 197 q 374 108 293 108 q 481 131 439 108 q 540 199 524 154 l 689 199 q 620 86 668 133 q 503 13 572 39 q 353 -14 435 -14 m 586 436 l 593 483 q 574 613 607 567 q 461 658 542 658 q 333 613 381 658 q 271 482 285 567 l 265 447 l 599 449 l 586 436 m 676 1054 l 868 1249 l 1031 1249 l 829 1054 l 676 1054 m 236 896 l 458 1090 l 597 1090 l 758 896 l 608 896 l 517 1001 l 393 896 l 236 896 z "},"ệ":{"ha":833,"x_min":81,"x_max":764,"o":"m 242 896 l 464 1090 l 603 1090 l 764 896 l 615 896 l 522 1001 l 400 896 l 242 896 m 353 -14 q 197 23 260 -14 q 108 126 135 60 q 94 282 81 193 l 125 482 q 189 638 140 572 q 312 741 238 704 q 479 778 386 778 q 636 741 574 778 q 726 638 699 704 q 738 482 753 572 l 717 346 l 249 346 l 239 282 q 260 153 226 197 q 374 108 293 108 q 481 131 439 108 q 540 199 524 154 l 689 199 q 620 86 668 133 q 503 13 572 39 q 353 -14 435 -14 m 586 436 l 593 483 q 574 613 607 567 q 461 658 542 658 q 333 613 381 658 q 271 482 285 567 l 265 447 l 599 449 l 586 436 m 307 -304 q 234 -279 258 -304 q 215 -210 210 -254 q 256 -141 222 -167 q 338 -115 289 -115 q 412 -141 388 -115 q 428 -210 436 -167 q 389 -279 422 -254 q 307 -304 356 -304 z "},"ề":{"ha":833,"x_min":81,"x_max":896,"o":"m 353 -14 q 197 23 260 -14 q 108 126 135 60 q 94 282 81 193 l 125 482 q 189 638 140 572 q 312 741 238 704 q 479 778 386 778 q 636 741 574 778 q 726 638 699 704 q 738 482 753 572 l 717 346 l 249 346 l 239 282 q 260 153 226 197 q 374 108 293 108 q 481 131 439 108 q 540 199 524 154 l 689 199 q 620 86 668 133 q 503 13 572 39 q 353 -14 435 -14 m 586 436 l 593 483 q 574 613 607 567 q 461 658 542 658 q 333 613 381 658 q 271 482 285 567 l 265 447 l 599 449 l 586 436 m 751 1054 l 601 1249 l 754 1249 l 896 1054 l 751 1054 m 236 896 l 458 1090 l 597 1090 l 758 896 l 608 896 l 517 1001 l 393 896 l 236 896 z "},"ể":{"ha":833,"x_min":81,"x_max":922,"o":"m 353 -14 q 197 23 260 -14 q 108 126 135 60 q 94 282 81 193 l 125 482 q 189 638 140 572 q 312 741 238 704 q 479 778 386 778 q 636 741 574 778 q 726 638 699 704 q 738 482 753 572 l 717 346 l 249 346 l 239 282 q 260 153 226 197 q 374 108 293 108 q 481 131 439 108 q 540 199 524 154 l 689 199 q 620 86 668 133 q 503 13 572 39 q 353 -14 435 -14 m 586 436 l 593 483 q 574 613 607 567 q 461 658 542 658 q 333 613 381 658 q 271 482 285 567 l 265 447 l 599 449 l 586 436 m 688 1054 l 765 1138 q 786 1174 785 1157 q 753 1204 790 1204 l 675 1204 l 689 1297 l 796 1297 q 890 1269 857 1297 q 914 1193 922 1240 q 876 1119 908 1154 l 818 1054 l 688 1054 m 236 896 l 458 1090 l 597 1090 l 758 896 l 608 896 l 517 1001 l 393 896 l 236 896 z "},"ễ":{"ha":833,"x_min":81,"x_max":792,"o":"m 353 -14 q 197 23 260 -14 q 108 126 135 60 q 94 282 81 193 l 125 482 q 189 638 140 572 q 312 741 238 704 q 479 778 386 778 q 636 741 574 778 q 726 638 699 704 q 738 482 753 572 l 717 346 l 249 346 l 239 282 q 260 153 226 197 q 374 108 293 108 q 481 131 439 108 q 540 199 524 154 l 689 199 q 620 86 668 133 q 503 13 572 39 q 353 -14 435 -14 m 586 436 l 593 483 q 574 613 607 567 q 461 658 542 658 q 333 613 381 658 q 271 482 285 567 l 265 447 l 599 449 l 586 436 m 629 1133 q 561 1147 585 1133 q 523 1176 538 1160 q 495 1206 508 1193 q 458 1219 482 1219 q 410 1176 418 1219 l 404 1143 l 306 1143 l 311 1172 q 364 1270 319 1233 q 469 1307 408 1307 q 538 1294 514 1307 q 575 1263 561 1281 q 603 1233 589 1246 q 639 1221 617 1221 q 688 1261 681 1221 l 693 1296 l 792 1296 l 788 1267 q 734 1170 778 1207 q 629 1133 690 1133 m 236 896 l 458 1090 l 597 1090 l 758 896 l 608 896 l 517 1001 l 393 896 l 236 896 z "},"ë":{"ha":833,"x_min":81,"x_max":774,"o":"m 353 -14 q 197 23 260 -14 q 108 126 135 60 q 94 282 81 193 l 125 482 q 189 638 140 572 q 312 741 238 704 q 479 778 386 778 q 636 741 574 778 q 726 638 699 704 q 738 482 753 572 l 717 346 l 249 346 l 239 282 q 260 153 226 197 q 374 108 293 108 q 481 131 439 108 q 540 199 524 154 l 689 199 q 620 86 668 133 q 503 13 572 39 q 353 -14 435 -14 m 586 436 l 593 483 q 574 613 607 567 q 461 658 542 658 q 333 613 381 658 q 271 482 285 567 l 265 447 l 599 449 l 586 436 m 657 896 q 591 922 613 896 q 576 990 569 947 q 613 1060 583 1035 q 686 1086 643 1086 q 752 1060 731 1086 q 767 990 774 1035 q 731 922 761 947 q 657 896 700 896 m 339 896 q 274 922 296 896 q 258 990 253 947 q 295 1060 265 1035 q 369 1086 325 1086 q 435 1060 413 1086 q 449 990 457 1035 q 413 922 443 947 q 339 896 383 896 z "},"ė":{"ha":833,"x_min":81,"x_max":753,"o":"m 353 -14 q 197 23 260 -14 q 108 126 135 60 q 94 282 81 193 l 125 482 q 189 638 140 572 q 312 741 238 704 q 479 778 386 778 q 636 741 574 778 q 726 638 699 704 q 738 482 753 572 l 717 346 l 249 346 l 239 282 q 260 153 226 197 q 374 108 293 108 q 481 131 439 108 q 540 199 524 154 l 689 199 q 620 86 668 133 q 503 13 572 39 q 353 -14 435 -14 m 586 436 l 593 483 q 574 613 607 567 q 461 658 542 658 q 333 613 381 658 q 271 482 285 567 l 265 447 l 599 449 l 586 436 m 497 896 q 424 922 449 896 q 406 990 400 947 q 447 1060 414 1035 q 528 1086 479 1086 q 601 1060 576 1086 q 619 990 626 1035 q 580 922 613 947 q 497 896 547 896 z "},"ẹ":{"ha":833,"x_min":81,"x_max":753,"o":"m 353 -14 q 197 23 260 -14 q 108 126 135 60 q 94 282 81 193 l 125 482 q 189 638 140 572 q 312 741 238 704 q 479 778 386 778 q 636 741 574 778 q 726 638 699 704 q 738 482 753 572 l 717 346 l 249 346 l 239 282 q 260 153 226 197 q 374 108 293 108 q 481 131 439 108 q 540 199 524 154 l 689 199 q 620 86 668 133 q 503 13 572 39 q 353 -14 435 -14 m 586 436 l 593 483 q 574 613 607 567 q 461 658 542 658 q 333 613 381 658 q 271 482 285 567 l 265 447 l 599 449 l 586 436 m 307 -304 q 234 -279 258 -304 q 215 -210 210 -254 q 256 -141 222 -167 q 338 -115 289 -115 q 412 -141 388 -115 q 428 -210 436 -167 q 389 -279 422 -254 q 307 -304 356 -304 z "},"è":{"ha":833,"x_min":81,"x_max":753,"o":"m 353 -14 q 197 23 260 -14 q 108 126 135 60 q 94 282 81 193 l 125 482 q 189 638 140 572 q 312 741 238 704 q 479 778 386 778 q 636 741 574 778 q 726 638 699 704 q 738 482 753 572 l 717 346 l 249 346 l 239 282 q 260 153 226 197 q 374 108 293 108 q 481 131 439 108 q 540 199 524 154 l 689 199 q 620 86 668 133 q 503 13 572 39 q 353 -14 435 -14 m 586 436 l 593 483 q 574 613 607 567 q 461 658 542 658 q 333 613 381 658 q 271 482 285 567 l 265 447 l 599 449 l 586 436 m 443 896 l 313 1090 l 471 1090 l 590 896 l 443 896 z "},"ẻ":{"ha":833,"x_min":81,"x_max":753,"o":"m 353 -14 q 197 23 260 -14 q 108 126 135 60 q 94 282 81 193 l 125 482 q 189 638 140 572 q 312 741 238 704 q 479 778 386 778 q 636 741 574 778 q 726 638 699 704 q 738 482 753 572 l 717 346 l 249 346 l 239 282 q 260 153 226 197 q 374 108 293 108 q 481 131 439 108 q 540 199 524 154 l 689 199 q 620 86 668 133 q 503 13 572 39 q 353 -14 435 -14 m 586 436 l 593 483 q 574 613 607 567 q 461 658 542 658 q 333 613 381 658 q 271 482 285 567 l 265 447 l 599 449 l 586 436 m 425 896 l 507 982 q 526 1006 519 994 q 533 1025 532 1017 q 500 1051 538 1051 l 393 1051 l 408 1150 l 554 1150 q 641 1121 611 1150 q 664 1042 671 1092 q 651 1001 661 1021 q 625 964 640 981 l 561 896 l 425 896 z "},"ē":{"ha":833,"x_min":81,"x_max":753,"o":"m 353 -14 q 197 23 260 -14 q 108 126 135 60 q 94 282 81 193 l 125 482 q 189 638 140 572 q 312 741 238 704 q 479 778 386 778 q 636 741 574 778 q 726 638 699 704 q 738 482 753 572 l 717 346 l 249 346 l 239 282 q 260 153 226 197 q 374 108 293 108 q 481 131 439 108 q 540 199 524 154 l 689 199 q 620 86 668 133 q 503 13 572 39 q 353 -14 435 -14 m 586 436 l 593 483 q 574 613 607 567 q 461 658 542 658 q 333 613 381 658 q 271 482 285 567 l 265 447 l 599 449 l 586 436 m 271 925 l 290 1043 l 751 1043 l 732 925 l 271 925 z "},"ę":{"ha":833,"x_min":81,"x_max":753,"o":"m 406 -292 q 285 -253 326 -292 q 254 -154 244 -214 q 294 -78 260 -118 q 390 3 328 -37 q 376 -9 386 -4 q 353 -14 365 -14 q 197 23 260 -14 q 108 126 135 60 q 94 282 81 193 l 125 482 q 189 638 140 572 q 312 741 238 704 q 479 778 386 778 q 636 741 574 778 q 726 638 699 704 q 738 482 753 572 l 717 346 l 249 346 l 239 282 q 260 153 226 197 q 374 108 293 108 q 481 131 439 108 q 540 199 524 154 l 689 199 q 630 97 671 140 q 533 25 589 53 l 490 -7 q 421 -70 444 -42 q 393 -125 397 -99 q 405 -171 389 -153 q 456 -189 421 -189 l 542 -189 l 526 -292 l 406 -292 m 581 406 l 593 483 q 574 613 607 567 q 461 658 542 658 q 333 613 381 658 q 271 482 285 567 l 265 447 l 631 449 l 581 406 z "},"ẽ":{"ha":833,"x_min":81,"x_max":758,"o":"m 353 -14 q 197 23 260 -14 q 108 126 135 60 q 94 282 81 193 l 125 482 q 189 638 140 572 q 312 741 238 704 q 479 778 386 778 q 636 741 574 778 q 726 638 699 704 q 738 482 753 572 l 717 346 l 249 346 l 239 282 q 260 153 226 197 q 374 108 293 108 q 481 131 439 108 q 540 199 524 154 l 689 199 q 620 86 668 133 q 503 13 572 39 q 353 -14 435 -14 m 586 436 l 593 483 q 574 613 607 567 q 461 658 542 658 q 333 613 381 658 q 271 482 285 567 l 265 447 l 599 449 l 586 436 m 594 897 q 528 911 553 897 q 489 943 504 925 q 459 976 474 961 q 422 990 444 990 q 390 978 404 990 q 372 942 376 965 l 367 904 l 268 904 l 275 947 q 329 1051 286 1013 q 432 1089 372 1089 q 498 1075 474 1089 q 537 1043 522 1061 q 566 1010 551 1025 q 603 996 581 996 q 635 1008 622 996 q 653 1042 649 1019 l 660 1082 l 758 1082 l 751 1039 q 698 935 740 974 q 594 897 656 897 z "},"ə":{"ha":833,"x_min":82,"x_max":751,"o":"m 353 -14 q 197 23 258 -14 q 108 126 135 60 q 96 282 82 193 l 118 418 l 581 418 l 590 482 q 572 611 604 567 q 458 656 539 656 q 352 633 393 656 q 293 565 311 610 l 144 565 q 267 720 176 663 q 479 778 357 778 q 635 741 572 778 q 724 638 697 704 q 736 482 751 572 l 704 282 q 643 126 690 193 q 521 23 596 60 q 353 -14 446 -14 m 372 107 q 499 152 453 107 q 560 282 546 197 l 565 317 l 236 317 l 249 328 l 242 282 q 260 152 228 197 q 372 107 292 107 z "},"f":{"ha":833,"x_min":-71,"x_max":878,"o":"m -71 -250 l -50 -121 l 100 -121 q 191 -93 158 -121 q 232 -11 224 -65 l 321 547 l 104 547 l 125 683 l 342 683 l 358 788 q 408 908 369 857 q 506 986 446 958 q 642 1014 565 1014 l 878 1014 l 857 881 l 621 881 q 544 857 572 881 q 508 786 515 833 l 492 683 l 794 683 l 772 547 l 469 547 l 382 -14 q 285 -187 365 -124 q 81 -250 204 -250 l -71 -250 z "},"g":{"ha":833,"x_min":83,"x_max":776,"o":"m 118 -250 l 138 -121 l 372 -121 q 464 -93 431 -121 q 506 -11 497 -65 l 518 65 l 543 207 l 511 207 l 547 235 q 469 97 532 147 q 314 47 407 47 q 140 125 196 47 q 104 335 83 203 l 129 490 q 184 643 143 579 q 288 742 225 707 q 429 778 351 778 q 569 727 522 778 q 603 589 617 676 l 575 618 l 607 618 l 628 764 l 776 764 l 654 -14 q 556 -187 636 -124 q 353 -250 476 -250 l 118 -250 m 382 176 q 501 220 454 176 q 563 342 549 264 l 583 482 q 563 603 597 560 q 457 647 528 647 q 337 605 383 647 q 278 482 290 563 l 256 342 q 276 219 243 263 q 382 176 310 176 z "},"ǵ":{"ha":833,"x_min":83,"x_max":776,"o":"m 118 -250 l 138 -121 l 372 -121 q 464 -93 431 -121 q 506 -11 497 -65 l 518 65 l 543 207 l 511 207 l 547 235 q 469 97 532 147 q 314 47 407 47 q 140 125 196 47 q 104 335 83 203 l 129 490 q 184 643 143 579 q 288 742 225 707 q 429 778 351 778 q 569 727 522 778 q 603 589 617 676 l 575 618 l 607 618 l 628 764 l 776 764 l 654 -14 q 556 -187 636 -124 q 353 -250 476 -250 l 118 -250 m 382 176 q 501 220 454 176 q 563 342 549 264 l 583 482 q 563 603 597 560 q 457 647 528 647 q 337 605 383 647 q 278 482 290 563 l 256 342 q 276 219 243 263 q 382 176 310 176 m 399 896 l 576 1090 l 744 1090 l 557 896 l 399 896 z "},"ğ":{"ha":833,"x_min":83,"x_max":776,"o":"m 118 -250 l 138 -121 l 372 -121 q 464 -93 431 -121 q 506 -11 497 -65 l 518 65 l 543 207 l 511 207 l 547 235 q 469 97 532 147 q 314 47 407 47 q 140 125 196 47 q 104 335 83 203 l 129 490 q 184 643 143 579 q 288 742 225 707 q 429 778 351 778 q 569 727 522 778 q 603 589 617 676 l 575 618 l 607 618 l 628 764 l 776 764 l 654 -14 q 556 -187 636 -124 q 353 -250 476 -250 l 118 -250 m 382 176 q 501 220 454 176 q 563 342 549 264 l 583 482 q 563 603 597 560 q 457 647 528 647 q 337 605 383 647 q 278 482 290 563 l 256 342 q 276 219 243 263 q 382 176 310 176 m 492 888 q 333 943 388 888 q 292 1090 278 999 l 406 1090 q 426 1010 399 1040 q 504 979 453 979 q 594 1010 557 979 q 638 1090 631 1040 l 756 1090 q 669 943 742 999 q 492 888 596 888 z "},"ǧ":{"ha":833,"x_min":83,"x_max":786,"o":"m 118 -250 l 138 -121 l 372 -121 q 464 -93 431 -121 q 506 -11 497 -65 l 518 65 l 543 207 l 511 207 l 547 235 q 469 97 532 147 q 314 47 407 47 q 140 125 196 47 q 104 335 83 203 l 129 490 q 184 643 143 579 q 288 742 225 707 q 429 778 351 778 q 569 727 522 778 q 603 589 617 676 l 575 618 l 607 618 l 628 764 l 776 764 l 654 -14 q 556 -187 636 -124 q 353 -250 476 -250 l 118 -250 m 382 176 q 501 220 454 176 q 563 342 549 264 l 583 482 q 563 603 597 560 q 457 647 528 647 q 337 605 383 647 q 278 482 290 563 l 256 342 q 276 219 243 263 q 382 176 310 176 m 425 896 l 264 1090 l 413 1090 l 507 985 l 628 1090 l 786 1090 l 564 896 l 425 896 z "},"ĝ":{"ha":833,"x_min":83,"x_max":776,"o":"m 118 -250 l 138 -121 l 372 -121 q 464 -93 431 -121 q 506 -11 497 -65 l 518 65 l 543 207 l 511 207 l 547 235 q 469 97 532 147 q 314 47 407 47 q 140 125 196 47 q 104 335 83 203 l 129 490 q 184 643 143 579 q 288 742 225 707 q 429 778 351 778 q 569 727 522 778 q 603 589 617 676 l 575 618 l 607 618 l 628 764 l 776 764 l 654 -14 q 556 -187 636 -124 q 353 -250 476 -250 l 118 -250 m 382 176 q 501 220 454 176 q 563 342 549 264 l 583 482 q 563 603 597 560 q 457 647 528 647 q 337 605 383 647 q 278 482 290 563 l 256 342 q 276 219 243 263 q 382 176 310 176 m 232 896 l 454 1090 l 593 1090 l 754 896 l 606 896 l 513 1001 l 390 896 l 232 896 z "},"ģ":{"ha":833,"x_min":83,"x_max":776,"o":"m 118 -250 l 138 -121 l 372 -121 q 464 -93 431 -121 q 506 -11 497 -65 l 518 65 l 543 207 l 511 207 l 547 235 q 469 97 532 147 q 314 47 407 47 q 140 125 196 47 q 104 335 83 203 l 129 490 q 184 643 143 579 q 288 742 225 707 q 429 778 351 778 q 569 727 522 778 q 603 589 617 676 l 575 618 l 607 618 l 628 764 l 776 764 l 654 -14 q 556 -187 636 -124 q 353 -250 476 -250 l 118 -250 m 382 176 q 501 220 454 176 q 563 342 549 264 l 583 482 q 563 603 597 560 q 457 647 528 647 q 337 605 383 647 q 278 482 290 563 l 256 342 q 276 219 243 263 q 382 176 310 176 m 713 1222 l 550 896 l 361 896 l 593 1222 l 713 1222 z "},"ġ":{"ha":833,"x_min":83,"x_max":776,"o":"m 118 -250 l 138 -121 l 372 -121 q 464 -93 431 -121 q 506 -11 497 -65 l 518 65 l 543 207 l 511 207 l 547 235 q 469 97 532 147 q 314 47 407 47 q 140 125 196 47 q 104 335 83 203 l 129 490 q 184 643 143 579 q 288 742 225 707 q 429 778 351 778 q 569 727 522 778 q 603 589 617 676 l 575 618 l 607 618 l 628 764 l 776 764 l 654 -14 q 556 -187 636 -124 q 353 -250 476 -250 l 118 -250 m 382 176 q 501 220 454 176 q 563 342 549 264 l 583 482 q 563 603 597 560 q 457 647 528 647 q 337 605 383 647 q 278 482 290 563 l 256 342 q 276 219 243 263 q 382 176 310 176 m 493 896 q 420 922 444 896 q 401 990 396 947 q 442 1060 410 1035 q 524 1086 475 1086 q 597 1060 572 1086 q 615 990 622 1035 q 576 922 608 947 q 493 896 543 896 z "},"h":{"ha":833,"x_min":56,"x_max":758,"o":"m 56 0 l 217 1014 l 367 1014 l 326 764 l 301 618 l 338 618 l 296 583 q 374 726 311 675 q 532 778 436 778 q 702 705 646 778 q 739 508 758 632 l 658 0 l 508 0 l 586 492 q 565 608 597 567 q 461 650 532 650 q 343 606 390 650 q 282 482 296 563 l 206 0 l 56 0 z "},"ħ":{"ha":833,"x_min":56,"x_max":744,"o":"m 63 786 l 81 896 l 197 896 l 217 1014 l 367 1014 l 347 896 l 571 896 l 553 786 l 331 786 l 314 681 l 289 535 l 290 535 q 373 653 314 611 q 518 694 432 694 q 688 622 632 694 q 725 425 744 549 l 658 0 l 508 0 l 574 408 q 551 525 585 483 q 449 567 518 567 q 329 523 376 567 q 269 399 282 479 l 206 0 l 56 0 l 181 786 l 63 786 z "},"ĥ":{"ha":833,"x_min":28,"x_max":758,"o":"m 56 0 l 217 1014 l 367 1014 l 326 764 l 301 618 l 338 618 l 296 583 q 374 726 311 675 q 532 778 436 778 q 702 705 646 778 q 739 508 758 632 l 658 0 l 508 0 l 586 492 q 565 608 597 567 q 461 650 532 650 q 343 606 390 650 q 282 482 296 563 l 206 0 l 56 0 m 28 1118 l 250 1313 l 389 1313 l 550 1118 l 401 1118 l 308 1224 l 186 1118 l 28 1118 z "},"i":{"ha":833,"x_min":46,"x_max":729,"o":"m 46 0 l 68 136 l 336 136 l 414 628 l 181 628 l 201 764 l 581 764 l 482 136 l 729 136 l 707 0 l 46 0 m 519 896 q 447 922 471 896 q 428 990 422 947 q 469 1060 436 1035 q 550 1086 501 1086 q 624 1060 599 1086 q 642 990 649 1035 q 602 922 635 947 q 519 896 569 896 z "},"ı":{"ha":833,"x_min":46,"x_max":729,"o":"m 46 0 l 68 136 l 336 136 l 414 628 l 181 628 l 201 764 l 581 764 l 482 136 l 729 136 l 707 0 l 46 0 z "},"í":{"ha":833,"x_min":46,"x_max":769,"o":"m 46 0 l 68 136 l 336 136 l 414 628 l 181 628 l 201 764 l 581 764 l 482 136 l 729 136 l 707 0 l 46 0 m 422 896 l 600 1090 l 768 1090 l 581 896 l 422 896 z "},"ĭ":{"ha":833,"x_min":46,"x_max":783,"o":"m 46 0 l 68 136 l 336 136 l 414 628 l 181 628 l 201 764 l 581 764 l 482 136 l 729 136 l 707 0 l 46 0 m 518 888 q 359 943 414 888 q 318 1090 304 999 l 432 1090 q 452 1010 425 1040 q 531 979 479 979 q 620 1010 583 979 q 664 1090 657 1040 l 782 1090 q 695 943 768 999 q 518 888 622 888 z "},"î":{"ha":833,"x_min":46,"x_max":782,"o":"m 46 0 l 68 136 l 336 136 l 414 628 l 181 628 l 201 764 l 581 764 l 482 136 l 729 136 l 707 0 l 46 0 m 258 896 l 481 1090 l 619 1090 l 781 896 l 632 896 l 539 1001 l 417 896 l 258 896 z "},"ï":{"ha":833,"x_min":46,"x_max":797,"o":"m 46 0 l 68 136 l 336 136 l 414 628 l 181 628 l 201 764 l 581 764 l 482 136 l 729 136 l 707 0 l 46 0 m 679 896 q 613 922 635 896 q 599 990 592 947 q 635 1060 606 1035 q 708 1086 665 1086 q 774 1060 753 1086 q 789 990 796 1035 q 753 922 783 947 q 679 896 722 896 m 361 896 q 297 922 318 896 q 281 990 275 947 q 317 1060 288 1035 q 392 1086 347 1086 q 457 1060 435 1086 q 471 990 479 1035 q 435 922 465 947 q 361 896 406 896 z "},"ị":{"ha":833,"x_min":46,"x_max":729,"o":"m 46 0 l 68 136 l 336 136 l 414 628 l 181 628 l 201 764 l 581 764 l 482 136 l 729 136 l 707 0 l 46 0 m 519 896 q 447 922 471 896 q 428 990 422 947 q 469 1060 436 1035 q 550 1086 501 1086 q 624 1060 599 1086 q 642 990 649 1035 q 602 922 635 947 q 519 896 569 896 m 329 -304 q 256 -279 281 -304 q 238 -210 232 -254 q 278 -141 244 -167 q 360 -115 311 -115 q 434 -141 410 -115 q 450 -210 458 -167 q 411 -279 444 -254 q 329 -304 378 -304 z "},"ì":{"ha":833,"x_min":46,"x_max":729,"o":"m 46 0 l 68 136 l 336 136 l 414 628 l 181 628 l 201 764 l 581 764 l 482 136 l 729 136 l 707 0 l 46 0 m 465 896 l 335 1090 l 493 1090 l 613 896 l 465 896 z "},"ỉ":{"ha":833,"x_min":46,"x_max":729,"o":"m 46 0 l 68 136 l 336 136 l 414 628 l 181 628 l 201 764 l 581 764 l 482 136 l 729 136 l 707 0 l 46 0 m 449 896 l 531 982 q 549 1006 543 994 q 557 1025 556 1017 q 524 1051 561 1051 l 417 1051 l 432 1150 l 578 1150 q 665 1121 635 1150 q 688 1042 694 1092 q 674 1001 685 1021 q 649 964 664 981 l 585 896 l 449 896 z "},"ī":{"ha":833,"x_min":46,"x_max":774,"o":"m 46 0 l 68 136 l 336 136 l 414 628 l 181 628 l 201 764 l 581 764 l 482 136 l 729 136 l 707 0 l 46 0 m 293 925 l 313 1043 l 774 1043 l 754 925 l 293 925 z "},"į":{"ha":833,"x_min":46,"x_max":729,"o":"m 338 -292 q 217 -253 258 -292 q 186 -154 176 -214 q 231 -69 193 -112 q 342 14 268 -26 l 451 14 l 422 -7 q 353 -70 376 -42 q 325 -125 329 -99 q 338 -171 321 -153 q 388 -189 354 -189 l 474 -189 l 458 -292 l 338 -292 m 46 0 l 68 136 l 336 136 l 414 628 l 181 628 l 201 764 l 581 764 l 482 136 l 729 136 l 707 0 l 46 0 m 521 896 q 448 922 472 896 q 429 990 424 947 q 469 1060 436 1035 q 550 1086 501 1086 q 624 1060 600 1086 q 642 990 649 1035 q 603 922 636 947 q 521 896 569 896 z "},"ĩ":{"ha":833,"x_min":46,"x_max":781,"o":"m 46 0 l 68 136 l 336 136 l 414 628 l 181 628 l 201 764 l 581 764 l 482 136 l 729 136 l 707 0 l 46 0 m 617 897 q 551 911 575 897 q 511 943 526 925 q 481 976 496 961 q 444 990 467 990 q 413 978 426 990 q 394 942 399 965 l 389 904 l 290 904 l 297 947 q 351 1051 308 1013 q 454 1089 394 1089 q 520 1075 496 1089 q 559 1043 544 1061 q 588 1010 574 1025 q 625 996 603 996 q 658 1008 644 996 q 675 1042 671 1019 l 682 1082 l 781 1082 l 774 1039 q 720 935 763 974 q 617 897 678 897 z "},"j":{"ha":833,"x_min":15,"x_max":749,"o":"m 15 -250 l 38 -111 l 229 -111 q 356 -69 307 -111 q 418 49 406 -28 l 508 626 l 196 626 l 218 764 l 681 764 l 567 47 q 504 -111 553 -44 q 381 -214 456 -178 q 211 -250 306 -250 l 15 -250 m 619 896 q 547 922 571 896 q 528 990 522 947 q 569 1060 536 1035 q 650 1086 601 1086 q 724 1060 699 1086 q 742 990 749 1035 q 702 922 735 947 q 619 896 669 896 z "},"ȷ":{"ha":833,"x_min":15,"x_max":681,"o":"m 15 -250 l 38 -111 l 229 -111 q 356 -69 307 -111 q 418 49 406 -28 l 508 626 l 196 626 l 218 764 l 681 764 l 567 47 q 504 -111 553 -44 q 381 -214 456 -178 q 211 -250 306 -250 l 15 -250 z "},"ĵ":{"ha":833,"x_min":15,"x_max":797,"o":"m 15 -250 l 38 -111 l 229 -111 q 356 -69 307 -111 q 418 49 406 -28 l 508 626 l 196 626 l 218 764 l 681 764 l 567 47 q 504 -111 553 -44 q 381 -214 456 -178 q 211 -250 306 -250 l 15 -250 m 275 896 l 497 1090 l 636 1090 l 797 896 l 649 896 l 556 1001 l 433 896 l 275 896 z "},"k":{"ha":833,"x_min":60,"x_max":828,"o":"m 60 0 l 221 1014 l 371 1014 l 282 457 l 403 457 l 656 764 l 828 764 l 526 392 l 711 0 l 543 0 l 390 328 l 263 328 l 210 0 l 60 0 z "},"ķ":{"ha":833,"x_min":60,"x_max":828,"o":"m 60 0 l 221 1014 l 371 1014 l 282 457 l 403 457 l 656 764 l 828 764 l 526 392 l 711 0 l 543 0 l 390 328 l 263 328 l 210 0 l 60 0 m 144 -333 l 308 -132 l 472 -132 l 290 -333 l 144 -333 z "},"ĸ":{"ha":833,"x_min":63,"x_max":828,"o":"m 63 0 l 183 764 l 333 764 l 283 457 l 403 457 l 656 764 l 828 764 l 526 392 l 711 0 l 542 0 l 390 328 l 264 328 l 213 0 l 63 0 z "},"l":{"ha":833,"x_min":128,"x_max":731,"o":"m 456 0 q 294 64 349 0 q 257 232 240 128 l 358 878 l 128 878 l 150 1014 l 531 1014 l 407 232 q 421 162 400 188 q 483 136 442 136 l 731 136 l 708 0 l 456 0 z "},"ĺ":{"ha":833,"x_min":128,"x_max":731,"o":"m 456 0 q 294 64 349 0 q 257 232 240 128 l 358 878 l 128 878 l 150 1014 l 531 1014 l 407 232 q 421 162 400 188 q 483 136 442 136 l 731 136 l 708 0 l 456 0 m 365 1125 l 543 1319 l 711 1319 l 524 1125 l 365 1125 z "},"ľ":{"ha":833,"x_min":128,"x_max":863,"o":"m 456 0 q 294 64 349 0 q 257 232 240 128 l 358 878 l 128 878 l 150 1014 l 531 1014 l 407 232 q 421 162 400 188 q 483 136 442 136 l 731 136 l 708 0 l 456 0 m 668 764 l 722 1014 l 863 1014 l 794 764 l 668 764 z "},"ļ":{"ha":833,"x_min":128,"x_max":731,"o":"m 456 0 q 294 64 349 0 q 257 232 240 128 l 358 878 l 128 878 l 150 1014 l 531 1014 l 407 232 q 421 162 400 188 q 483 136 442 136 l 731 136 l 708 0 l 456 0 m 139 -333 l 303 -132 l 467 -132 l 285 -333 l 139 -333 z "},"ŀ":{"ha":833,"x_min":100,"x_max":856,"o":"m 428 0 q 267 64 321 0 q 229 232 213 128 l 331 878 l 100 878 l 122 1014 l 503 1014 l 379 232 q 393 162 372 188 q 456 136 414 136 l 703 136 l 681 0 l 428 0 z "},"ł":{"ha":833,"x_min":128,"x_max":731,"o":"m 139 319 l 139 456 l 657 778 l 657 642 l 139 319 m 456 0 q 294 64 349 0 q 257 232 240 128 l 358 878 l 128 878 l 150 1014 l 531 1014 l 407 232 q 421 162 400 188 q 483 136 442 136 l 731 136 l 708 0 l 456 0 z "},"m":{"ha":833,"x_min":21,"x_max":797,"o":"m 21 0 l 142 764 l 267 764 l 253 667 l 279 667 l 253 638 q 305 740 264 701 q 404 778 346 778 q 493 729 467 778 q 506 596 519 681 l 483 667 l 536 667 l 508 638 q 561 740 519 701 q 663 778 603 778 q 765 724 733 778 q 783 582 797 671 l 690 0 l 557 0 l 647 578 q 640 644 654 621 q 592 668 626 668 q 534 645 557 668 q 504 579 511 622 l 413 0 l 300 0 l 390 578 q 383 645 399 622 q 332 668 367 668 q 276 645 297 668 q 247 579 254 622 l 156 0 l 21 0 z "},"n":{"ha":833,"x_min":56,"x_max":758,"o":"m 56 0 l 176 764 l 325 764 l 301 618 l 338 618 l 296 583 q 374 726 311 675 q 532 778 436 778 q 702 705 646 778 q 739 508 758 632 l 658 0 l 508 0 l 586 492 q 565 608 597 567 q 461 650 532 650 q 343 606 390 650 q 282 482 296 563 l 206 0 l 56 0 z "},"ń":{"ha":833,"x_min":56,"x_max":758,"o":"m 56 0 l 176 764 l 325 764 l 301 618 l 338 618 l 296 583 q 374 726 311 675 q 532 778 436 778 q 702 705 646 778 q 739 508 758 632 l 658 0 l 508 0 l 586 492 q 565 608 597 567 q 461 650 532 650 q 343 606 390 650 q 282 482 296 563 l 206 0 l 56 0 m 358 896 l 536 1090 l 704 1090 l 517 896 l 358 896 z "},"ŉ":{"ha":833,"x_min":-119,"x_max":758,"o":"m 56 0 l 176 764 l 325 764 l 301 618 l 338 618 l 296 583 q 374 726 311 675 q 532 778 436 778 q 702 705 646 778 q 739 508 758 632 l 658 0 l 508 0 l 586 492 q 565 608 597 567 q 461 650 532 650 q 343 606 390 650 q 282 482 296 563 l 206 0 l 56 0 m -119 896 l 44 1097 l 208 1097 l 26 896 l -119 896 z "},"ň":{"ha":833,"x_min":56,"x_max":790,"o":"m 56 0 l 176 764 l 325 764 l 301 618 l 338 618 l 296 583 q 374 726 311 675 q 532 778 436 778 q 702 705 646 778 q 739 508 758 632 l 658 0 l 508 0 l 586 492 q 565 608 597 567 q 461 650 532 650 q 343 606 390 650 q 282 482 296 563 l 206 0 l 56 0 m 429 896 l 268 1090 l 417 1090 l 511 985 l 632 1090 l 790 1090 l 568 896 l 429 896 z "},"ņ":{"ha":833,"x_min":56,"x_max":758,"o":"m 56 0 l 176 764 l 325 764 l 301 618 l 338 618 l 296 583 q 374 726 311 675 q 532 778 436 778 q 702 705 646 778 q 739 508 758 632 l 658 0 l 508 0 l 586 492 q 565 608 597 567 q 461 650 532 650 q 343 606 390 650 q 282 482 296 563 l 206 0 l 56 0 m 144 -333 l 308 -132 l 472 -132 l 290 -333 l 144 -333 z "},"ŋ":{"ha":833,"x_min":58,"x_max":757,"o":"m 235 -250 l 257 -110 l 343 -110 q 456 -72 410 -110 q 511 32 501 -33 l 585 492 q 564 608 596 567 q 461 650 532 650 q 344 606 390 650 q 283 482 297 563 l 208 0 l 58 0 l 179 764 l 326 764 l 303 618 l 340 618 l 297 583 q 374 726 313 675 q 532 778 436 778 q 701 705 646 778 q 736 508 757 632 l 660 25 q 599 -119 647 -57 q 479 -216 551 -182 q 317 -250 407 -250 l 235 -250 z "},"ñ":{"ha":833,"x_min":56,"x_max":758,"o":"m 56 0 l 176 764 l 325 764 l 301 618 l 338 618 l 296 583 q 374 726 311 675 q 532 778 436 778 q 702 705 646 778 q 739 508 758 632 l 658 0 l 508 0 l 586 492 q 565 608 597 567 q 461 650 532 650 q 343 606 390 650 q 282 482 296 563 l 206 0 l 56 0 m 594 897 q 528 911 553 897 q 489 943 504 925 q 459 976 474 961 q 422 990 444 990 q 390 978 404 990 q 372 942 376 965 l 367 904 l 268 904 l 275 947 q 329 1051 286 1013 q 432 1089 372 1089 q 498 1075 474 1089 q 537 1043 522 1061 q 566 1010 551 1025 q 603 996 581 996 q 635 1008 622 996 q 653 1042 649 1019 l 660 1082 l 758 1082 l 751 1039 q 698 935 740 974 q 594 897 656 897 z "},"o":{"ha":833,"x_min":81,"x_max":753,"o":"m 353 -14 q 197 22 260 -14 q 107 124 133 57 q 94 282 81 192 l 125 482 q 188 640 140 574 q 311 742 236 707 q 479 778 386 778 q 636 742 574 778 q 726 640 699 707 q 739 483 753 574 l 707 282 q 644 124 693 192 q 522 22 596 57 q 353 -14 447 -14 m 374 118 q 497 160 450 118 q 557 282 544 201 l 588 482 q 567 604 601 563 q 458 646 533 646 q 336 604 383 646 q 275 482 289 563 l 244 282 q 266 160 232 201 q 374 118 300 118 z "},"ó":{"ha":833,"x_min":81,"x_max":753,"o":"m 353 -14 q 197 22 260 -14 q 107 124 133 57 q 94 282 81 192 l 125 482 q 188 640 140 574 q 311 742 236 707 q 479 778 386 778 q 636 742 574 778 q 726 640 699 707 q 739 483 753 574 l 707 282 q 644 124 693 192 q 522 22 596 57 q 353 -14 447 -14 m 374 118 q 497 160 450 118 q 557 282 544 201 l 588 482 q 567 604 601 563 q 458 646 533 646 q 336 604 383 646 q 275 482 289 563 l 244 282 q 266 160 232 201 q 374 118 300 118 m 400 896 l 578 1090 l 746 1090 l 558 896 l 400 896 z "},"ŏ":{"ha":833,"x_min":81,"x_max":760,"o":"m 353 -14 q 197 22 260 -14 q 107 124 133 57 q 94 282 81 192 l 125 482 q 188 640 140 574 q 311 742 236 707 q 479 778 386 778 q 636 742 574 778 q 726 640 699 707 q 739 483 753 574 l 707 282 q 644 124 693 192 q 522 22 596 57 q 353 -14 447 -14 m 374 118 q 497 160 450 118 q 557 282 544 201 l 588 482 q 567 604 601 563 q 458 646 533 646 q 336 604 383 646 q 275 482 289 563 l 244 282 q 266 160 232 201 q 374 118 300 118 m 496 888 q 337 943 392 888 q 296 1090 282 999 l 410 1090 q 430 1010 403 1040 q 508 979 457 979 q 598 1010 561 979 q 642 1090 635 1040 l 760 1090 q 673 943 746 999 q 496 888 600 888 z "},"ô":{"ha":833,"x_min":81,"x_max":758,"o":"m 353 -14 q 197 22 260 -14 q 107 124 133 57 q 94 282 81 192 l 125 482 q 188 640 140 574 q 311 742 236 707 q 479 778 386 778 q 636 742 574 778 q 726 640 699 707 q 739 483 753 574 l 707 282 q 644 124 693 192 q 522 22 596 57 q 353 -14 447 -14 m 374 118 q 497 160 450 118 q 557 282 544 201 l 588 482 q 567 604 601 563 q 458 646 533 646 q 336 604 383 646 q 275 482 289 563 l 244 282 q 266 160 232 201 q 374 118 300 118 m 236 896 l 458 1090 l 597 1090 l 758 896 l 610 896 l 517 1001 l 394 896 l 236 896 z "},"ố":{"ha":833,"x_min":81,"x_max":1031,"o":"m 353 -14 q 197 22 260 -14 q 107 124 133 57 q 94 282 81 192 l 125 482 q 188 640 140 574 q 311 742 236 707 q 479 778 386 778 q 636 742 574 778 q 726 640 699 707 q 739 483 753 574 l 707 282 q 644 124 693 192 q 522 22 596 57 q 353 -14 447 -14 m 374 118 q 497 160 450 118 q 557 282 544 201 l 588 482 q 567 604 601 563 q 458 646 533 646 q 336 604 383 646 q 275 482 289 563 l 244 282 q 266 160 232 201 q 374 118 300 118 m 676 1054 l 868 1249 l 1031 1249 l 829 1054 l 676 1054 m 236 896 l 458 1090 l 597 1090 l 758 896 l 608 896 l 517 1001 l 393 896 l 236 896 z "},"ộ":{"ha":833,"x_min":81,"x_max":758,"o":"m 236 896 l 458 1090 l 597 1090 l 758 896 l 610 896 l 517 1001 l 394 896 l 236 896 m 353 -14 q 197 22 260 -14 q 107 124 133 57 q 94 282 81 192 l 125 482 q 188 640 140 574 q 311 742 236 707 q 479 778 386 778 q 636 742 574 778 q 726 640 699 707 q 739 483 753 574 l 707 282 q 644 124 693 192 q 522 22 596 57 q 353 -14 447 -14 m 374 118 q 497 160 450 118 q 557 282 544 201 l 588 482 q 567 604 601 563 q 458 646 533 646 q 336 604 383 646 q 275 482 289 563 l 244 282 q 266 160 232 201 q 374 118 300 118 m 321 -304 q 248 -279 272 -304 q 229 -210 224 -254 q 269 -141 236 -167 q 351 -115 303 -115 q 426 -141 401 -115 q 442 -210 450 -167 q 403 -279 436 -254 q 321 -304 369 -304 z "},"ồ":{"ha":833,"x_min":81,"x_max":896,"o":"m 353 -14 q 197 22 260 -14 q 107 124 133 57 q 94 282 81 192 l 125 482 q 188 640 140 574 q 311 742 236 707 q 479 778 386 778 q 636 742 574 778 q 726 640 699 707 q 739 483 753 574 l 707 282 q 644 124 693 192 q 522 22 596 57 q 353 -14 447 -14 m 374 118 q 497 160 450 118 q 557 282 544 201 l 588 482 q 567 604 601 563 q 458 646 533 646 q 336 604 383 646 q 275 482 289 563 l 244 282 q 266 160 232 201 q 374 118 300 118 m 751 1054 l 601 1249 l 754 1249 l 896 1054 l 751 1054 m 236 896 l 458 1090 l 597 1090 l 758 896 l 608 896 l 517 1001 l 393 896 l 236 896 z "},"ổ":{"ha":833,"x_min":81,"x_max":922,"o":"m 353 -14 q 197 22 260 -14 q 107 124 133 57 q 94 282 81 192 l 125 482 q 188 640 140 574 q 311 742 236 707 q 479 778 386 778 q 636 742 574 778 q 726 640 699 707 q 739 483 753 574 l 707 282 q 644 124 693 192 q 522 22 596 57 q 353 -14 447 -14 m 374 118 q 497 160 450 118 q 557 282 544 201 l 588 482 q 567 604 601 563 q 458 646 533 646 q 336 604 383 646 q 275 482 289 563 l 244 282 q 266 160 232 201 q 374 118 300 118 m 688 1054 l 765 1138 q 786 1174 785 1157 q 753 1204 790 1204 l 675 1204 l 689 1297 l 796 1297 q 890 1269 857 1297 q 914 1193 922 1240 q 876 1119 908 1154 l 818 1054 l 688 1054 m 236 896 l 458 1090 l 597 1090 l 758 896 l 608 896 l 517 1001 l 393 896 l 236 896 z "},"ỗ":{"ha":833,"x_min":81,"x_max":792,"o":"m 353 -14 q 197 22 260 -14 q 107 124 133 57 q 94 282 81 192 l 125 482 q 188 640 140 574 q 311 742 236 707 q 479 778 386 778 q 636 742 574 778 q 726 640 699 707 q 739 483 753 574 l 707 282 q 644 124 693 192 q 522 22 596 57 q 353 -14 447 -14 m 374 118 q 497 160 450 118 q 557 282 544 201 l 588 482 q 567 604 601 563 q 458 646 533 646 q 336 604 383 646 q 275 482 289 563 l 244 282 q 266 160 232 201 q 374 118 300 118 m 629 1133 q 561 1147 585 1133 q 523 1176 538 1160 q 495 1206 508 1193 q 458 1219 482 1219 q 410 1176 418 1219 l 404 1143 l 306 1143 l 311 1172 q 364 1270 319 1233 q 469 1307 408 1307 q 538 1294 514 1307 q 575 1263 561 1281 q 603 1233 589 1246 q 639 1221 617 1221 q 688 1261 681 1221 l 693 1296 l 792 1296 l 788 1267 q 734 1170 778 1207 q 629 1133 690 1133 m 236 896 l 458 1090 l 597 1090 l 758 896 l 608 896 l 517 1001 l 393 896 l 236 896 z "},"ö":{"ha":833,"x_min":81,"x_max":774,"o":"m 353 -14 q 197 22 260 -14 q 107 124 133 57 q 94 282 81 192 l 125 482 q 188 640 140 574 q 311 742 236 707 q 479 778 386 778 q 636 742 574 778 q 726 640 699 707 q 739 483 753 574 l 707 282 q 644 124 693 192 q 522 22 596 57 q 353 -14 447 -14 m 374 118 q 497 160 450 118 q 557 282 544 201 l 588 482 q 567 604 601 563 q 458 646 533 646 q 336 604 383 646 q 275 482 289 563 l 244 282 q 266 160 232 201 q 374 118 300 118 m 657 896 q 591 922 613 896 q 576 990 569 947 q 613 1060 583 1035 q 686 1086 643 1086 q 752 1060 731 1086 q 767 990 774 1035 q 731 922 761 947 q 657 896 700 896 m 339 896 q 274 922 296 896 q 258 990 253 947 q 295 1060 265 1035 q 369 1086 325 1086 q 435 1060 413 1086 q 449 990 457 1035 q 413 922 443 947 q 339 896 383 896 z "},"ọ":{"ha":833,"x_min":81,"x_max":753,"o":"m 353 -14 q 197 22 260 -14 q 107 124 133 57 q 94 282 81 192 l 125 482 q 188 640 140 574 q 311 742 236 707 q 479 778 386 778 q 636 742 574 778 q 726 640 699 707 q 739 483 753 574 l 707 282 q 644 124 693 192 q 522 22 596 57 q 353 -14 447 -14 m 374 118 q 497 160 450 118 q 557 282 544 201 l 588 482 q 567 604 601 563 q 458 646 533 646 q 336 604 383 646 q 275 482 289 563 l 244 282 q 266 160 232 201 q 374 118 300 118 m 321 -304 q 248 -279 272 -304 q 229 -210 224 -254 q 269 -141 236 -167 q 351 -115 303 -115 q 426 -141 401 -115 q 442 -210 450 -167 q 403 -279 436 -254 q 321 -304 369 -304 z "},"ò":{"ha":833,"x_min":81,"x_max":753,"o":"m 353 -14 q 197 22 260 -14 q 107 124 133 57 q 94 282 81 192 l 125 482 q 188 640 140 574 q 311 742 236 707 q 479 778 386 778 q 636 742 574 778 q 726 640 699 707 q 739 483 753 574 l 707 282 q 644 124 693 192 q 522 22 596 57 q 353 -14 447 -14 m 374 118 q 497 160 450 118 q 557 282 544 201 l 588 482 q 567 604 601 563 q 458 646 533 646 q 336 604 383 646 q 275 482 289 563 l 244 282 q 266 160 232 201 q 374 118 300 118 m 443 896 l 313 1090 l 471 1090 l 590 896 l 443 896 z "},"ỏ":{"ha":833,"x_min":81,"x_max":753,"o":"m 353 -14 q 197 22 260 -14 q 107 124 133 57 q 94 282 81 192 l 125 482 q 188 640 140 574 q 311 742 236 707 q 479 778 386 778 q 636 742 574 778 q 726 640 699 707 q 739 483 753 574 l 707 282 q 644 124 693 192 q 522 22 596 57 q 353 -14 447 -14 m 374 118 q 497 160 450 118 q 557 282 544 201 l 588 482 q 567 604 601 563 q 458 646 533 646 q 336 604 383 646 q 275 482 289 563 l 244 282 q 266 160 232 201 q 374 118 300 118 m 425 896 l 507 982 q 526 1006 519 994 q 533 1025 532 1017 q 500 1051 538 1051 l 393 1051 l 408 1150 l 554 1150 q 641 1121 611 1150 q 664 1042 671 1092 q 651 1001 661 1021 q 625 964 640 981 l 561 896 l 425 896 z "},"ơ":{"ha":833,"x_min":81,"x_max":846,"o":"m 576 632 l 593 736 l 651 736 q 690 749 675 736 q 707 785 704 761 l 724 889 l 846 889 l 829 779 q 767 672 818 713 q 643 632 717 632 l 576 632 m 353 -14 q 197 22 260 -14 q 107 124 133 57 q 94 282 81 192 l 125 482 q 188 640 140 574 q 311 742 236 707 q 479 778 386 778 q 636 742 574 778 q 726 640 699 707 q 739 483 753 574 l 707 282 q 644 124 693 192 q 522 22 596 57 q 353 -14 447 -14 m 374 118 q 497 160 450 118 q 557 282 544 201 l 588 482 q 567 604 601 563 q 458 646 533 646 q 336 604 383 646 q 275 482 289 563 l 244 282 q 266 160 232 201 q 374 118 300 118 z "},"ớ":{"ha":833,"x_min":81,"x_max":846,"o":"m 576 632 l 593 736 l 651 736 q 690 749 675 736 q 707 785 704 761 l 724 889 l 846 889 l 829 779 q 767 672 818 713 q 643 632 717 632 l 576 632 m 353 -14 q 197 22 260 -14 q 107 124 133 57 q 94 282 81 192 l 125 482 q 188 640 140 574 q 311 742 236 707 q 479 778 386 778 q 636 742 574 778 q 726 640 699 707 q 739 483 753 574 l 707 282 q 644 124 693 192 q 522 22 596 57 q 353 -14 447 -14 m 374 118 q 497 160 450 118 q 557 282 544 201 l 588 482 q 567 604 601 563 q 458 646 533 646 q 336 604 383 646 q 275 482 289 563 l 244 282 q 266 160 232 201 q 374 118 300 118 m 386 896 l 564 1090 l 732 1090 l 544 896 l 386 896 z "},"ợ":{"ha":833,"x_min":81,"x_max":846,"o":"m 576 632 l 593 736 l 651 736 q 690 749 675 736 q 707 785 704 761 l 724 889 l 846 889 l 829 779 q 767 672 818 713 q 643 632 717 632 l 576 632 m 353 -14 q 197 22 260 -14 q 107 124 133 57 q 94 282 81 192 l 125 482 q 188 640 140 574 q 311 742 236 707 q 479 778 386 778 q 636 742 574 778 q 726 640 699 707 q 739 483 753 574 l 707 282 q 644 124 693 192 q 522 22 596 57 q 353 -14 447 -14 m 374 118 q 497 160 450 118 q 557 282 544 201 l 588 482 q 567 604 601 563 q 458 646 533 646 q 336 604 383 646 q 275 482 289 563 l 244 282 q 266 160 232 201 q 374 118 300 118 m 321 -304 q 248 -279 272 -304 q 229 -210 224 -254 q 269 -141 236 -167 q 351 -115 303 -115 q 426 -141 401 -115 q 442 -210 450 -167 q 403 -279 436 -254 q 321 -304 369 -304 z "},"ờ":{"ha":833,"x_min":81,"x_max":846,"o":"m 576 632 l 593 736 l 651 736 q 690 749 675 736 q 707 785 704 761 l 724 889 l 846 889 l 829 779 q 767 672 818 713 q 643 632 717 632 l 576 632 m 353 -14 q 197 22 260 -14 q 107 124 133 57 q 94 282 81 192 l 125 482 q 188 640 140 574 q 311 742 236 707 q 479 778 386 778 q 636 742 574 778 q 726 640 699 707 q 739 483 753 574 l 707 282 q 644 124 693 192 q 522 22 596 57 q 353 -14 447 -14 m 374 118 q 497 160 450 118 q 557 282 544 201 l 588 482 q 567 604 601 563 q 458 646 533 646 q 336 604 383 646 q 275 482 289 563 l 244 282 q 266 160 232 201 q 374 118 300 118 m 429 896 l 299 1090 l 457 1090 l 576 896 l 429 896 z "},"ở":{"ha":833,"x_min":81,"x_max":846,"o":"m 576 632 l 593 736 l 651 736 q 690 749 675 736 q 707 785 704 761 l 724 889 l 846 889 l 829 779 q 767 672 818 713 q 643 632 717 632 l 576 632 m 353 -14 q 197 22 260 -14 q 107 124 133 57 q 94 282 81 192 l 125 482 q 188 640 140 574 q 311 742 236 707 q 479 778 386 778 q 636 742 574 778 q 726 640 699 707 q 739 483 753 574 l 707 282 q 644 124 693 192 q 522 22 596 57 q 353 -14 447 -14 m 374 118 q 497 160 450 118 q 557 282 544 201 l 588 482 q 567 604 601 563 q 458 646 533 646 q 336 604 383 646 q 275 482 289 563 l 244 282 q 266 160 232 201 q 374 118 300 118 m 425 896 l 507 982 q 526 1006 519 994 q 533 1025 532 1017 q 500 1051 538 1051 l 393 1051 l 408 1150 l 554 1150 q 641 1121 611 1150 q 664 1042 671 1092 q 651 1001 661 1021 q 625 964 640 981 l 561 896 l 425 896 z "},"ỡ":{"ha":833,"x_min":81,"x_max":846,"o":"m 576 632 l 593 736 l 651 736 q 690 749 675 736 q 707 785 704 761 l 724 889 l 846 889 l 829 779 q 767 672 818 713 q 643 632 717 632 l 576 632 m 353 -14 q 197 22 260 -14 q 107 124 133 57 q 94 282 81 192 l 125 482 q 188 640 140 574 q 311 742 236 707 q 479 778 386 778 q 636 742 574 778 q 726 640 699 707 q 739 483 753 574 l 707 282 q 644 124 693 192 q 522 22 596 57 q 353 -14 447 -14 m 374 118 q 497 160 450 118 q 557 282 544 201 l 588 482 q 567 604 601 563 q 458 646 533 646 q 336 604 383 646 q 275 482 289 563 l 244 282 q 266 160 232 201 q 374 118 300 118 m 581 897 q 515 911 539 897 q 475 943 490 925 q 445 976 460 961 q 408 990 431 990 q 376 978 390 990 q 358 942 363 965 l 353 904 l 254 904 l 261 947 q 315 1051 272 1013 q 418 1089 358 1089 q 484 1075 460 1089 q 523 1043 508 1061 q 552 1010 538 1025 q 589 996 567 996 q 622 1008 608 996 q 639 1042 635 1019 l 646 1082 l 744 1082 l 738 1039 q 684 935 726 974 q 581 897 642 897 z "},"ő":{"ha":833,"x_min":81,"x_max":865,"o":"m 353 -14 q 197 22 260 -14 q 107 124 133 57 q 94 282 81 192 l 125 482 q 188 640 140 574 q 311 742 236 707 q 479 778 386 778 q 636 742 574 778 q 726 640 699 707 q 739 483 753 574 l 707 282 q 644 124 693 192 q 522 22 596 57 q 353 -14 447 -14 m 374 118 q 497 160 450 118 q 557 282 544 201 l 588 482 q 567 604 601 563 q 458 646 533 646 q 336 604 383 646 q 275 482 289 563 l 244 282 q 266 160 232 201 q 374 118 300 118 m 532 896 l 713 1090 l 865 1090 l 675 896 l 532 896 m 264 896 l 446 1090 l 597 1090 l 407 896 l 264 896 z "},"ō":{"ha":833,"x_min":81,"x_max":753,"o":"m 353 -14 q 197 22 260 -14 q 107 124 133 57 q 94 282 81 192 l 125 482 q 188 640 140 574 q 311 742 236 707 q 479 778 386 778 q 636 742 574 778 q 726 640 699 707 q 739 483 753 574 l 707 282 q 644 124 693 192 q 522 22 596 57 q 353 -14 447 -14 m 374 118 q 497 160 450 118 q 557 282 544 201 l 588 482 q 567 604 601 563 q 458 646 533 646 q 336 604 383 646 q 275 482 289 563 l 244 282 q 266 160 232 201 q 374 118 300 118 m 271 925 l 290 1043 l 751 1043 l 732 925 l 271 925 z "},"ǫ":{"ha":833,"x_min":81,"x_max":753,"o":"m 404 -292 q 284 -253 325 -292 q 253 -154 243 -214 q 290 -81 258 -119 q 390 3 321 -43 q 382 -4 389 0 q 367 -11 375 -8 q 353 -14 360 -14 q 197 22 260 -14 q 107 124 133 57 q 94 282 81 192 l 125 482 q 188 640 140 574 q 311 742 236 707 q 479 778 386 778 q 636 742 574 778 q 726 640 699 707 q 739 483 753 574 l 707 282 q 650 135 693 199 q 542 33 607 71 l 489 -7 q 419 -69 443 -40 q 392 -125 396 -99 q 403 -171 388 -153 q 454 -189 419 -189 l 540 -189 l 525 -292 l 404 -292 m 374 118 q 497 160 450 118 q 557 282 544 201 l 588 482 q 567 604 601 563 q 458 646 533 646 q 336 604 383 646 q 275 482 289 563 l 244 282 q 266 160 232 201 q 374 118 300 118 z "},"ø":{"ha":833,"x_min":-24,"x_max":857,"o":"m -24 -42 l 718 819 l 857 819 l 114 -42 l -24 -42 m 353 -14 q 197 22 260 -14 q 107 124 133 57 q 94 282 81 192 l 125 482 q 188 640 140 574 q 311 742 236 707 q 479 778 386 778 q 637 742 574 778 q 727 640 700 707 q 739 483 754 574 l 707 282 q 644 124 693 192 q 522 22 596 57 q 353 -14 447 -14 m 374 118 q 503 162 453 118 q 565 282 553 206 l 597 482 q 573 603 610 560 q 458 646 536 646 q 329 603 379 646 q 267 482 279 560 l 235 282 q 259 162 222 206 q 374 118 296 118 z "},"ǿ":{"ha":833,"x_min":-24,"x_max":857,"o":"m -24 -42 l 718 819 l 857 819 l 114 -42 l -24 -42 m 353 -14 q 197 22 260 -14 q 107 124 133 57 q 94 282 81 192 l 125 482 q 188 640 140 574 q 311 742 236 707 q 479 778 386 778 q 637 742 574 778 q 727 640 700 707 q 739 483 754 574 l 707 282 q 644 124 693 192 q 522 22 596 57 q 353 -14 447 -14 m 374 118 q 503 162 453 118 q 565 282 553 206 l 597 482 q 573 603 610 560 q 458 646 536 646 q 329 603 379 646 q 267 482 279 560 l 235 282 q 259 162 222 206 q 374 118 296 118 m 400 896 l 578 1090 l 746 1090 l 558 896 l 400 896 z "},"õ":{"ha":833,"x_min":81,"x_max":758,"o":"m 353 -14 q 197 22 260 -14 q 107 124 133 57 q 94 282 81 192 l 125 482 q 188 640 140 574 q 311 742 236 707 q 479 778 386 778 q 636 742 574 778 q 726 640 699 707 q 739 483 753 574 l 707 282 q 644 124 693 192 q 522 22 596 57 q 353 -14 447 -14 m 374 118 q 497 160 450 118 q 557 282 544 201 l 588 482 q 567 604 601 563 q 458 646 533 646 q 336 604 383 646 q 275 482 289 563 l 244 282 q 266 160 232 201 q 374 118 300 118 m 594 897 q 528 911 553 897 q 489 943 504 925 q 459 976 474 961 q 422 990 444 990 q 390 978 404 990 q 372 942 376 965 l 367 904 l 268 904 l 275 947 q 329 1051 286 1013 q 432 1089 372 1089 q 498 1075 474 1089 q 537 1043 522 1061 q 566 1010 551 1025 q 603 996 581 996 q 635 1008 622 996 q 653 1042 649 1019 l 660 1082 l 758 1082 l 751 1039 q 698 935 740 974 q 594 897 656 897 z "},"œ":{"ha":833,"x_min":4,"x_max":828,"o":"m 186 -14 q 49 46 94 -14 q 19 204 4 106 l 76 560 q 156 719 92 660 q 313 778 221 778 q 399 760 367 778 q 445 717 432 743 q 458 668 458 692 l 465 668 q 492 717 471 692 q 553 760 514 743 q 646 778 592 778 q 783 719 738 778 q 813 560 828 660 l 779 347 l 476 347 l 454 204 q 465 129 446 157 q 522 101 483 101 q 583 123 557 101 q 619 179 608 144 l 749 179 q 664 39 726 92 q 519 -14 601 -14 q 433 3 465 -14 q 387 47 400 21 q 374 96 374 72 l 367 96 q 339 47 361 72 q 278 3 317 21 q 186 -14 240 -14 m 222 101 q 288 129 261 101 q 322 204 315 157 l 378 560 q 368 635 386 607 q 310 663 350 663 q 242 635 269 663 q 207 560 214 607 l 150 204 q 163 129 143 157 q 222 101 182 101 m 492 451 l 664 451 l 682 560 q 669 635 689 607 q 610 663 650 663 q 544 635 571 663 q 510 560 517 607 l 492 451 z "},"p":{"ha":833,"x_min":15,"x_max":760,"o":"m 15 -250 l 176 764 l 325 764 l 301 618 l 333 618 l 296 583 q 375 726 310 674 q 535 778 440 778 q 705 701 650 778 q 739 490 760 624 l 706 275 q 651 122 692 186 q 548 22 610 57 q 408 -14 486 -14 q 267 38 315 -14 q 232 181 218 90 l 260 146 l 225 146 l 201 -32 l 165 -250 l 15 -250 m 378 117 q 498 159 451 117 q 557 282 544 201 l 588 482 q 568 605 601 563 q 463 647 535 647 q 344 603 392 647 q 282 482 296 560 l 250 282 q 273 160 238 204 q 378 117 308 117 z "},"þ":{"ha":833,"x_min":11,"x_max":756,"o":"m 11 -250 l 63 78 l 211 78 l 158 -250 l 11 -250 m 403 -14 q 260 38 308 -14 q 228 181 213 90 l 254 146 l 222 146 l 199 0 l 51 0 l 213 1014 l 363 1014 l 326 796 l 294 618 l 328 618 l 292 583 q 371 726 306 674 q 529 778 436 778 q 700 700 644 778 q 735 489 756 622 l 700 274 q 645 121 686 185 q 542 22 604 57 q 403 -14 479 -14 m 372 117 q 492 159 446 117 q 551 282 539 201 l 583 482 q 563 605 596 563 q 456 647 529 647 q 338 603 386 647 q 276 482 290 560 l 246 282 q 267 160 233 204 q 372 117 301 117 z "},"q":{"ha":833,"x_min":72,"x_max":776,"o":"m 465 -250 l 500 -32 l 533 146 l 499 146 l 535 181 q 457 38 521 90 q 299 -14 393 -14 q 128 64 183 -14 q 93 275 72 142 l 126 490 q 182 644 140 579 q 286 743 224 708 q 425 778 349 778 q 566 726 519 778 q 599 583 613 674 l 572 618 l 604 618 l 628 764 l 776 764 l 615 -250 l 465 -250 m 371 117 q 490 160 443 117 q 550 282 538 204 l 582 482 q 560 603 594 560 q 454 647 526 647 q 335 605 382 647 q 275 482 289 563 l 244 282 q 265 159 232 201 q 371 117 299 117 z "},"r":{"ha":833,"x_min":81,"x_max":794,"o":"m 81 0 l 201 764 l 346 764 l 322 618 l 358 618 l 299 528 q 383 715 318 651 q 554 778 447 778 q 735 702 676 778 q 774 494 794 626 l 765 443 l 611 443 l 618 482 q 597 608 631 564 q 490 651 564 651 q 369 607 417 651 q 307 482 321 563 l 231 0 l 81 0 z "},"ŕ":{"ha":833,"x_min":81,"x_max":794,"o":"m 81 0 l 201 764 l 346 764 l 322 618 l 358 618 l 299 528 q 383 715 318 651 q 554 778 447 778 q 735 702 676 778 q 774 494 794 626 l 765 443 l 611 443 l 618 482 q 597 608 631 564 q 490 651 564 651 q 369 607 417 651 q 307 482 321 563 l 231 0 l 81 0 m 428 896 l 606 1090 l 774 1090 l 586 896 l 428 896 z "},"ř":{"ha":833,"x_min":81,"x_max":818,"o":"m 81 0 l 201 764 l 346 764 l 322 618 l 358 618 l 299 528 q 383 715 318 651 q 554 778 447 778 q 735 702 676 778 q 774 494 794 626 l 765 443 l 611 443 l 618 482 q 597 608 631 564 q 490 651 564 651 q 369 607 417 651 q 307 482 321 563 l 231 0 l 81 0 m 457 896 l 296 1090 l 444 1090 l 539 985 l 660 1090 l 818 1090 l 596 896 l 457 896 z "},"ŗ":{"ha":833,"x_min":-85,"x_max":794,"o":"m 81 0 l 201 764 l 346 764 l 322 618 l 358 618 l 299 528 q 383 715 318 651 q 554 778 447 778 q 735 702 676 778 q 774 494 794 626 l 765 443 l 611 443 l 618 482 q 597 608 631 564 q 490 651 564 651 q 369 607 417 651 q 307 482 321 563 l 231 0 l 81 0 m -85 -333 l 79 -132 l 243 -132 l 61 -333 l -85 -333 z "},"s":{"ha":833,"x_min":65,"x_max":756,"o":"m 322 -14 q 131 44 197 -14 q 74 197 65 101 l 224 197 q 254 136 224 160 q 342 113 285 113 l 401 113 q 509 141 471 113 q 556 215 547 169 q 535 287 561 260 q 450 322 510 314 l 354 338 q 185 406 236 356 q 150 556 135 456 q 244 719 165 661 q 458 778 322 778 l 511 778 q 692 722 629 778 q 750 575 756 667 l 600 575 q 572 630 600 608 q 490 651 543 651 l 438 651 q 339 626 372 651 q 297 554 306 601 q 313 490 292 513 q 389 458 333 468 l 488 443 q 666 372 613 424 q 704 219 719 321 q 605 48 686 110 q 381 -14 524 -14 l 322 -14 z "},"ś":{"ha":833,"x_min":65,"x_max":760,"o":"m 322 -14 q 131 44 197 -14 q 74 197 65 101 l 224 197 q 254 136 224 160 q 342 113 285 113 l 401 113 q 509 141 471 113 q 556 215 547 169 q 535 287 561 260 q 450 322 510 314 l 354 338 q 185 406 236 356 q 150 556 135 456 q 244 719 165 661 q 458 778 322 778 l 511 778 q 692 722 629 778 q 750 575 756 667 l 600 575 q 572 630 600 608 q 490 651 543 651 l 438 651 q 339 626 372 651 q 297 554 306 601 q 313 490 292 513 q 389 458 333 468 l 488 443 q 666 372 613 424 q 704 219 719 321 q 605 48 686 110 q 381 -14 524 -14 l 322 -14 m 414 896 l 592 1090 l 760 1090 l 572 896 l 414 896 z "},"š":{"ha":833,"x_min":65,"x_max":804,"o":"m 322 -14 q 131 44 197 -14 q 74 197 65 101 l 224 197 q 254 136 224 160 q 342 113 285 113 l 401 113 q 509 141 471 113 q 556 215 547 169 q 535 287 561 260 q 450 322 510 314 l 354 338 q 185 406 236 356 q 150 556 135 456 q 244 719 165 661 q 458 778 322 778 l 511 778 q 692 722 629 778 q 750 575 756 667 l 600 575 q 572 630 600 608 q 490 651 543 651 l 438 651 q 339 626 372 651 q 297 554 306 601 q 313 490 292 513 q 389 458 333 468 l 488 443 q 666 372 613 424 q 704 219 719 321 q 605 48 686 110 q 381 -14 524 -14 l 322 -14 m 443 896 l 282 1090 l 431 1090 l 525 985 l 646 1090 l 804 1090 l 582 896 l 443 896 z "},"ş":{"ha":833,"x_min":65,"x_max":756,"o":"m 293 -292 l 293 -208 l 394 -208 q 444 -192 425 -208 q 464 -158 464 -176 q 425 -114 464 -132 q 314 -96 386 -96 l 363 32 l 449 32 l 419 -50 q 499 -68 458 -54 q 568 -108 540 -82 q 596 -172 596 -133 q 548 -256 596 -221 q 421 -292 500 -292 l 293 -292 m 322 -14 q 131 44 197 -14 q 74 197 65 101 l 224 197 q 254 136 224 160 q 342 113 285 113 l 401 113 q 509 141 471 113 q 556 215 547 169 q 535 287 561 260 q 450 322 510 314 l 354 338 q 185 406 236 356 q 150 556 135 456 q 244 719 165 661 q 458 778 322 778 l 511 778 q 692 722 629 778 q 750 575 756 667 l 600 575 q 572 630 600 608 q 490 651 543 651 l 438 651 q 339 626 372 651 q 297 554 306 601 q 313 490 292 513 q 389 458 333 468 l 488 443 q 666 372 613 424 q 704 219 719 321 q 605 48 686 110 q 381 -14 524 -14 l 322 -14 z "},"ŝ":{"ha":833,"x_min":65,"x_max":772,"o":"m 322 -14 q 131 44 197 -14 q 74 197 65 101 l 224 197 q 254 136 224 160 q 342 113 285 113 l 401 113 q 509 141 471 113 q 556 215 547 169 q 535 287 561 260 q 450 322 510 314 l 354 338 q 185 406 236 356 q 150 556 135 456 q 244 719 165 661 q 458 778 322 778 l 511 778 q 692 722 629 778 q 750 575 756 667 l 600 575 q 572 630 600 608 q 490 651 543 651 l 438 651 q 339 626 372 651 q 297 554 306 601 q 313 490 292 513 q 389 458 333 468 l 488 443 q 666 372 613 424 q 704 219 719 321 q 605 48 686 110 q 381 -14 524 -14 l 322 -14 m 250 896 l 472 1090 l 611 1090 l 772 896 l 624 896 l 531 1001 l 408 896 l 250 896 z "},"ș":{"ha":833,"x_min":65,"x_max":756,"o":"m 322 -14 q 131 44 197 -14 q 74 197 65 101 l 224 197 q 254 136 224 160 q 342 113 285 113 l 401 113 q 509 141 471 113 q 556 215 547 169 q 535 287 561 260 q 450 322 510 314 l 354 338 q 185 406 236 356 q 150 556 135 456 q 244 719 165 661 q 458 778 322 778 l 511 778 q 692 722 629 778 q 750 575 756 667 l 600 575 q 572 630 600 608 q 490 651 543 651 l 438 651 q 339 626 372 651 q 297 554 306 601 q 313 490 292 513 q 389 458 333 468 l 488 443 q 666 372 613 424 q 704 219 719 321 q 605 48 686 110 q 381 -14 524 -14 l 322 -14 m 133 -333 l 297 -132 l 461 -132 l 279 -333 l 133 -333 z "},"ß":{"ha":833,"x_min":-183,"x_max":804,"o":"m -183 -250 l -162 -121 l -86 -121 q 8 -93 -26 -121 q 51 -11 43 -65 l 171 735 q 233 889 185 822 q 356 992 281 956 q 524 1028 431 1028 q 680 997 615 1028 q 774 907 744 965 q 790 765 804 849 q 740 642 779 696 q 639 559 700 589 q 500 531 578 529 l 503 551 q 640 521 585 553 q 721 430 696 489 q 733 289 746 371 q 670 139 719 204 q 545 37 621 74 q 375 0 469 0 l 289 0 l 310 132 l 385 132 q 515 177 463 132 q 579 297 567 222 q 553 415 592 372 q 436 458 515 458 l 374 458 l 393 579 l 451 579 q 572 624 524 579 q 631 736 621 668 q 607 853 643 811 q 499 896 571 896 q 376 853 425 896 q 314 735 326 810 l 194 -14 q 97 -187 178 -124 q -106 -250 17 -250 l -183 -250 z "},"ſ":{"ha":833,"x_min":-71,"x_max":878,"o":"m -71 -250 l -50 -121 l 100 -121 q 191 -93 158 -121 q 232 -11 224 -65 l 358 788 q 408 908 369 857 q 506 986 446 958 q 642 1014 565 1014 l 878 1014 l 857 881 l 621 881 q 544 857 572 881 q 508 786 515 833 l 382 -14 q 285 -187 365 -124 q 81 -250 204 -250 l -71 -250 z "},"t":{"ha":833,"x_min":107,"x_max":788,"o":"m 439 0 q 285 57 335 0 q 253 215 236 114 l 318 628 l 107 628 l 128 764 l 339 764 l 372 972 l 522 972 l 489 764 l 788 764 l 767 628 l 468 628 l 403 215 q 467 136 389 136 l 675 136 l 653 0 l 439 0 z "},"ŧ":{"ha":833,"x_min":103,"x_max":788,"o":"m 103 324 l 121 444 l 675 444 l 657 324 l 103 324 m 439 0 q 285 57 335 0 q 253 215 236 114 l 318 628 l 107 628 l 128 764 l 339 764 l 372 972 l 522 972 l 489 764 l 788 764 l 767 628 l 468 628 l 403 215 q 467 136 389 136 l 675 136 l 653 0 l 439 0 z "},"ť":{"ha":833,"x_min":107,"x_max":893,"o":"m 590 861 l 746 1078 l 893 1078 l 724 861 l 590 861 m 439 0 q 285 57 335 0 q 253 215 236 114 l 318 628 l 107 628 l 128 764 l 339 764 l 372 972 l 522 972 l 489 764 l 788 764 l 767 628 l 468 628 l 403 215 q 467 136 389 136 l 675 136 l 653 0 l 439 0 z "},"ţ":{"ha":833,"x_min":107,"x_max":788,"o":"m 363 -292 l 363 -208 l 464 -208 q 514 -192 494 -208 q 533 -158 533 -176 q 494 -114 533 -132 q 383 -96 456 -96 l 432 32 l 518 32 l 489 -50 q 569 -68 528 -54 q 638 -108 610 -82 q 665 -172 665 -133 q 617 -256 665 -221 q 490 -292 569 -292 l 363 -292 m 439 0 q 285 57 335 0 q 253 215 236 114 l 318 628 l 107 628 l 128 764 l 339 764 l 372 972 l 522 972 l 489 764 l 788 764 l 767 628 l 468 628 l 403 215 q 467 136 389 136 l 675 136 l 653 0 l 439 0 z "},"ț":{"ha":833,"x_min":107,"x_max":788,"o":"m 439 0 q 285 57 335 0 q 253 215 236 114 l 318 628 l 107 628 l 128 764 l 339 764 l 372 972 l 522 972 l 489 764 l 788 764 l 767 628 l 468 628 l 403 215 q 467 136 389 136 l 675 136 l 653 0 l 439 0 m 144 -333 l 308 -132 l 472 -132 l 290 -333 l 144 -333 z "},"u":{"ha":833,"x_min":76,"x_max":779,"o":"m 351 -14 q 145 66 214 -14 q 99 283 76 146 l 174 764 l 324 764 l 249 283 q 269 160 236 204 q 374 117 303 117 q 492 160 444 117 q 553 283 540 204 l 629 764 l 779 764 l 703 283 q 641 125 689 192 q 519 22 593 58 q 351 -14 444 -14 z "},"ú":{"ha":833,"x_min":76,"x_max":779,"o":"m 351 -14 q 145 66 214 -14 q 99 283 76 146 l 174 764 l 324 764 l 249 283 q 269 160 236 204 q 374 117 303 117 q 492 160 444 117 q 553 283 540 204 l 629 764 l 779 764 l 703 283 q 641 125 689 192 q 519 22 593 58 q 351 -14 444 -14 m 400 896 l 578 1090 l 746 1090 l 558 896 l 400 896 z "},"ŭ":{"ha":833,"x_min":76,"x_max":779,"o":"m 351 -14 q 145 66 214 -14 q 99 283 76 146 l 174 764 l 324 764 l 249 283 q 269 160 236 204 q 374 117 303 117 q 492 160 444 117 q 553 283 540 204 l 629 764 l 779 764 l 703 283 q 641 125 689 192 q 519 22 593 58 q 351 -14 444 -14 m 496 888 q 337 943 392 888 q 296 1090 282 999 l 410 1090 q 430 1010 403 1040 q 508 979 457 979 q 598 1010 561 979 q 642 1090 635 1040 l 760 1090 q 673 943 746 999 q 496 888 600 888 z "},"û":{"ha":833,"x_min":76,"x_max":779,"o":"m 351 -14 q 145 66 214 -14 q 99 283 76 146 l 174 764 l 324 764 l 249 283 q 269 160 236 204 q 374 117 303 117 q 492 160 444 117 q 553 283 540 204 l 629 764 l 779 764 l 703 283 q 641 125 689 192 q 519 22 593 58 q 351 -14 444 -14 m 236 896 l 458 1090 l 597 1090 l 758 896 l 610 896 l 517 1001 l 394 896 l 236 896 z "},"ü":{"ha":833,"x_min":76,"x_max":779,"o":"m 351 -14 q 145 66 214 -14 q 99 283 76 146 l 174 764 l 324 764 l 249 283 q 269 160 236 204 q 374 117 303 117 q 492 160 444 117 q 553 283 540 204 l 629 764 l 779 764 l 703 283 q 641 125 689 192 q 519 22 593 58 q 351 -14 444 -14 m 657 896 q 591 922 613 896 q 576 990 569 947 q 613 1060 583 1035 q 686 1086 643 1086 q 752 1060 731 1086 q 767 990 774 1035 q 731 922 761 947 q 657 896 700 896 m 339 896 q 274 922 296 896 q 258 990 253 947 q 295 1060 265 1035 q 369 1086 325 1086 q 435 1060 413 1086 q 449 990 457 1035 q 413 922 443 947 q 339 896 383 896 z "},"ụ":{"ha":833,"x_min":76,"x_max":779,"o":"m 351 -14 q 145 66 214 -14 q 99 283 76 146 l 174 764 l 324 764 l 249 283 q 269 160 236 204 q 374 117 303 117 q 492 160 444 117 q 553 283 540 204 l 629 764 l 779 764 l 703 283 q 641 125 689 192 q 519 22 593 58 q 351 -14 444 -14 m 307 -304 q 234 -279 258 -304 q 215 -210 210 -254 q 256 -141 222 -167 q 338 -115 289 -115 q 412 -141 388 -115 q 428 -210 436 -167 q 389 -279 422 -254 q 307 -304 356 -304 z "},"ù":{"ha":833,"x_min":76,"x_max":779,"o":"m 351 -14 q 145 66 214 -14 q 99 283 76 146 l 174 764 l 324 764 l 249 283 q 269 160 236 204 q 374 117 303 117 q 492 160 444 117 q 553 283 540 204 l 629 764 l 779 764 l 703 283 q 641 125 689 192 q 519 22 593 58 q 351 -14 444 -14 m 443 896 l 313 1090 l 471 1090 l 590 896 l 443 896 z "},"ủ":{"ha":833,"x_min":76,"x_max":779,"o":"m 351 -14 q 145 66 214 -14 q 99 283 76 146 l 174 764 l 324 764 l 249 283 q 269 160 236 204 q 374 117 303 117 q 492 160 444 117 q 553 283 540 204 l 629 764 l 779 764 l 703 283 q 641 125 689 192 q 519 22 593 58 q 351 -14 444 -14 m 425 896 l 507 982 q 526 1006 519 994 q 533 1025 532 1017 q 500 1051 538 1051 l 393 1051 l 408 1150 l 554 1150 q 641 1121 611 1150 q 664 1042 671 1092 q 651 1001 661 1021 q 625 964 640 981 l 561 896 l 425 896 z "},"ư":{"ha":833,"x_min":76,"x_max":932,"o":"m 99 282 l 174 764 l 324 764 l 247 281 q 267 160 235 203 q 365 117 299 117 q 478 160 433 117 q 536 281 524 203 l 613 764 l 736 764 q 774 776 760 764 q 793 813 789 789 l 810 917 l 932 917 l 915 807 q 861 700 904 740 q 746 660 818 660 l 686 282 q 625 124 672 190 q 506 22 578 57 q 343 -14 435 -14 q 143 65 210 -14 q 99 282 76 144 z "},"ứ":{"ha":833,"x_min":76,"x_max":932,"o":"m 99 282 l 174 764 l 324 764 l 247 281 q 267 160 235 203 q 365 117 299 117 q 478 160 433 117 q 536 281 524 203 l 613 764 l 736 764 q 774 776 760 764 q 793 813 789 789 l 810 917 l 932 917 l 915 807 q 861 700 904 740 q 746 660 818 660 l 686 282 q 625 124 672 190 q 506 22 578 57 q 343 -14 435 -14 q 143 65 210 -14 q 99 282 76 144 m 392 896 l 569 1090 l 738 1090 l 550 896 l 392 896 z "},"ự":{"ha":833,"x_min":76,"x_max":932,"o":"m 99 282 l 174 764 l 324 764 l 247 281 q 267 160 235 203 q 365 117 299 117 q 478 160 433 117 q 536 281 524 203 l 613 764 l 736 764 q 774 776 760 764 q 793 813 789 789 l 810 917 l 932 917 l 915 807 q 861 700 904 740 q 746 660 818 660 l 686 282 q 625 124 672 190 q 506 22 578 57 q 343 -14 435 -14 q 143 65 210 -14 q 99 282 76 144 m 297 -304 q 224 -279 249 -304 q 206 -210 200 -254 q 246 -141 213 -167 q 328 -115 279 -115 q 402 -141 378 -115 q 418 -210 426 -167 q 379 -279 413 -254 q 297 -304 346 -304 z "},"ừ":{"ha":833,"x_min":76,"x_max":932,"o":"m 99 282 l 174 764 l 324 764 l 247 281 q 267 160 235 203 q 365 117 299 117 q 478 160 433 117 q 536 281 524 203 l 613 764 l 736 764 q 774 776 760 764 q 793 813 789 789 l 810 917 l 932 917 l 915 807 q 861 700 904 740 q 746 660 818 660 l 686 282 q 625 124 672 190 q 506 22 578 57 q 343 -14 435 -14 q 143 65 210 -14 q 99 282 76 144 m 435 896 l 304 1090 l 463 1090 l 582 896 l 435 896 z "},"ử":{"ha":833,"x_min":76,"x_max":932,"o":"m 99 282 l 174 764 l 324 764 l 247 281 q 267 160 235 203 q 365 117 299 117 q 478 160 433 117 q 536 281 524 203 l 613 764 l 736 764 q 774 776 760 764 q 793 813 789 789 l 810 917 l 932 917 l 915 807 q 861 700 904 740 q 746 660 818 660 l 686 282 q 625 124 672 190 q 506 22 578 57 q 343 -14 435 -14 q 143 65 210 -14 q 99 282 76 144 m 425 896 l 507 982 q 526 1006 519 994 q 533 1025 532 1017 q 500 1051 538 1051 l 393 1051 l 408 1150 l 554 1150 q 641 1121 611 1150 q 664 1042 671 1092 q 651 1001 661 1021 q 625 964 640 981 l 561 896 l 425 896 z "},"ữ":{"ha":833,"x_min":76,"x_max":932,"o":"m 99 282 l 174 764 l 324 764 l 247 281 q 267 160 235 203 q 365 117 299 117 q 478 160 433 117 q 536 281 524 203 l 613 764 l 736 764 q 774 776 760 764 q 793 813 789 789 l 810 917 l 932 917 l 915 807 q 861 700 904 740 q 746 660 818 660 l 686 282 q 625 124 672 190 q 506 22 578 57 q 343 -14 435 -14 q 143 65 210 -14 q 99 282 76 144 m 586 897 q 520 911 544 897 q 481 943 496 925 q 451 976 465 961 q 414 990 436 990 q 382 978 396 990 q 364 942 368 965 l 358 904 l 260 904 l 267 947 q 321 1051 278 1013 q 424 1089 364 1089 q 490 1075 465 1089 q 528 1043 514 1061 q 558 1010 543 1025 q 594 996 572 996 q 627 1008 614 996 q 644 1042 640 1019 l 651 1082 l 750 1082 l 743 1039 q 690 935 732 974 q 586 897 647 897 z "},"ű":{"ha":833,"x_min":76,"x_max":865,"o":"m 351 -14 q 145 66 214 -14 q 99 283 76 146 l 174 764 l 324 764 l 249 283 q 269 160 236 204 q 374 117 303 117 q 492 160 444 117 q 553 283 540 204 l 629 764 l 779 764 l 703 283 q 641 125 689 192 q 519 22 593 58 q 351 -14 444 -14 m 532 896 l 713 1090 l 865 1090 l 675 896 l 532 896 m 264 896 l 446 1090 l 597 1090 l 407 896 l 264 896 z "},"ū":{"ha":833,"x_min":76,"x_max":779,"o":"m 351 -14 q 145 66 214 -14 q 99 283 76 146 l 174 764 l 324 764 l 249 283 q 269 160 236 204 q 374 117 303 117 q 492 160 444 117 q 553 283 540 204 l 629 764 l 779 764 l 703 283 q 641 125 689 192 q 519 22 593 58 q 351 -14 444 -14 m 271 925 l 290 1043 l 751 1043 l 732 925 l 271 925 z "},"ų":{"ha":833,"x_min":76,"x_max":779,"o":"m 404 -292 q 284 -253 325 -292 q 253 -154 243 -214 q 290 -81 258 -119 q 390 3 321 -43 q 382 -4 389 0 q 367 -11 375 -8 q 353 -14 360 -14 q 144 66 211 -14 q 99 282 76 146 l 174 764 l 324 764 l 247 282 q 267 160 235 201 q 374 118 300 118 q 495 160 450 118 q 553 282 540 201 l 629 764 l 779 764 l 703 282 q 648 135 689 199 q 542 33 607 71 l 489 -7 q 419 -69 443 -40 q 392 -125 396 -99 q 403 -171 388 -153 q 454 -189 419 -189 l 540 -189 l 525 -292 l 404 -292 z "},"ů":{"ha":833,"x_min":76,"x_max":779,"o":"m 351 -14 q 145 66 214 -14 q 99 283 76 146 l 174 764 l 324 764 l 249 283 q 269 160 236 204 q 374 117 303 117 q 492 160 444 117 q 553 283 540 204 l 629 764 l 779 764 l 703 283 q 641 125 689 192 q 519 22 593 58 q 351 -14 444 -14 m 489 840 q 369 885 410 840 q 339 1004 329 931 q 406 1123 351 1078 q 540 1168 461 1168 q 660 1123 619 1168 q 689 1004 701 1078 q 623 885 679 931 q 489 840 567 840 m 501 921 q 565 944 539 921 q 597 1004 592 967 q 585 1066 604 1043 q 528 1089 565 1089 q 464 1066 490 1089 q 431 1004 438 1043 q 444 944 425 967 q 501 921 464 921 z "},"ũ":{"ha":833,"x_min":76,"x_max":779,"o":"m 351 -14 q 145 66 214 -14 q 99 283 76 146 l 174 764 l 324 764 l 249 283 q 269 160 236 204 q 374 117 303 117 q 492 160 444 117 q 553 283 540 204 l 629 764 l 779 764 l 703 283 q 641 125 689 192 q 519 22 593 58 q 351 -14 444 -14 m 594 897 q 528 911 553 897 q 489 943 504 925 q 459 976 474 961 q 422 990 444 990 q 390 978 404 990 q 372 942 376 965 l 367 904 l 268 904 l 275 947 q 329 1051 286 1013 q 432 1089 372 1089 q 498 1075 474 1089 q 537 1043 522 1061 q 566 1010 551 1025 q 603 996 581 996 q 635 1008 622 996 q 653 1042 649 1019 l 660 1082 l 758 1082 l 751 1039 q 698 935 740 974 q 594 897 656 897 z "},"v":{"ha":833,"x_min":129,"x_max":824,"o":"m 257 0 l 129 764 l 279 764 l 354 275 q 367 188 361 232 q 374 119 372 144 q 403 188 385 144 q 442 275 421 232 l 667 764 l 824 764 l 454 0 l 257 0 z "},"w":{"ha":833,"x_min":96,"x_max":854,"o":"m 96 0 l 99 764 l 222 764 l 213 260 q 210 183 211 225 q 207 113 210 140 q 228 182 215 140 q 251 260 240 224 l 411 764 l 540 764 l 538 260 q 538 181 538 224 q 536 111 538 139 q 556 183 543 140 q 579 260 568 225 l 732 764 l 854 764 l 611 0 l 453 0 l 456 499 q 456 581 456 538 q 457 651 457 625 q 437 581 450 625 q 411 499 424 538 l 256 0 l 96 0 z "},"ẃ":{"ha":833,"x_min":96,"x_max":854,"o":"m 96 0 l 99 764 l 222 764 l 213 260 q 210 183 211 225 q 207 113 210 140 q 228 182 215 140 q 251 260 240 224 l 411 764 l 540 764 l 538 260 q 538 181 538 224 q 536 111 538 139 q 556 183 543 140 q 579 260 568 225 l 732 764 l 854 764 l 611 0 l 453 0 l 456 499 q 456 581 456 538 q 457 651 457 625 q 437 581 450 625 q 411 499 424 538 l 256 0 l 96 0 m 400 896 l 578 1090 l 746 1090 l 558 896 l 400 896 z "},"ŵ":{"ha":833,"x_min":96,"x_max":854,"o":"m 96 0 l 99 764 l 222 764 l 213 260 q 210 183 211 225 q 207 113 210 140 q 228 182 215 140 q 251 260 240 224 l 411 764 l 540 764 l 538 260 q 538 181 538 224 q 536 111 538 139 q 556 183 543 140 q 579 260 568 225 l 732 764 l 854 764 l 611 0 l 453 0 l 456 499 q 456 581 456 538 q 457 651 457 625 q 437 581 450 625 q 411 499 424 538 l 256 0 l 96 0 m 236 896 l 458 1090 l 597 1090 l 758 896 l 610 896 l 517 1001 l 394 896 l 236 896 z "},"ẅ":{"ha":833,"x_min":96,"x_max":854,"o":"m 96 0 l 99 764 l 222 764 l 213 260 q 210 183 211 225 q 207 113 210 140 q 228 182 215 140 q 251 260 240 224 l 411 764 l 540 764 l 538 260 q 538 181 538 224 q 536 111 538 139 q 556 183 543 140 q 579 260 568 225 l 732 764 l 854 764 l 611 0 l 453 0 l 456 499 q 456 581 456 538 q 457 651 457 625 q 437 581 450 625 q 411 499 424 538 l 256 0 l 96 0 m 657 896 q 591 922 613 896 q 576 990 569 947 q 613 1060 583 1035 q 686 1086 643 1086 q 752 1060 731 1086 q 767 990 774 1035 q 731 922 761 947 q 657 896 700 896 m 339 896 q 274 922 296 896 q 258 990 253 947 q 295 1060 265 1035 q 369 1086 325 1086 q 435 1060 413 1086 q 449 990 457 1035 q 413 922 443 947 q 339 896 383 896 z "},"ẁ":{"ha":833,"x_min":96,"x_max":854,"o":"m 96 0 l 99 764 l 222 764 l 213 260 q 210 183 211 225 q 207 113 210 140 q 228 182 215 140 q 251 260 240 224 l 411 764 l 540 764 l 538 260 q 538 181 538 224 q 536 111 538 139 q 556 183 543 140 q 579 260 568 225 l 732 764 l 854 764 l 611 0 l 453 0 l 456 499 q 456 581 456 538 q 457 651 457 625 q 437 581 450 625 q 411 499 424 538 l 256 0 l 96 0 m 443 896 l 313 1090 l 471 1090 l 590 896 l 443 896 z "},"x":{"ha":833,"x_min":3,"x_max":813,"o":"m 3 0 l 329 399 l 142 764 l 310 764 l 407 553 q 422 517 414 536 q 432 486 429 499 q 451 517 439 499 q 475 553 463 536 l 638 764 l 813 764 l 508 389 l 708 0 l 539 0 l 432 229 q 417 267 425 246 q 406 300 408 288 q 385 267 397 288 q 360 229 372 246 l 178 0 l 3 0 z "},"y":{"ha":833,"x_min":83,"x_max":775,"o":"m 115 -250 l 136 -121 l 371 -121 q 463 -93 429 -121 q 504 -11 496 -65 l 517 71 l 542 215 l 504 215 l 546 250 q 469 107 532 158 q 310 56 406 56 q 140 128 197 56 q 103 325 83 201 l 174 764 l 322 764 l 256 342 q 277 225 243 267 q 381 183 311 183 q 499 227 451 183 q 560 351 547 271 l 625 764 l 775 764 l 651 -14 q 555 -187 636 -124 q 351 -250 474 -250 l 115 -250 z "},"ý":{"ha":833,"x_min":83,"x_max":775,"o":"m 115 -250 l 136 -121 l 371 -121 q 463 -93 429 -121 q 504 -11 496 -65 l 517 71 l 542 215 l 504 215 l 546 250 q 469 107 532 158 q 310 56 406 56 q 140 128 197 56 q 103 325 83 201 l 174 764 l 322 764 l 256 342 q 277 225 243 267 q 381 183 311 183 q 499 227 451 183 q 560 351 547 271 l 625 764 l 775 764 l 651 -14 q 555 -187 636 -124 q 351 -250 474 -250 l 115 -250 m 400 896 l 578 1090 l 746 1090 l 558 896 l 400 896 z "},"ŷ":{"ha":833,"x_min":83,"x_max":775,"o":"m 115 -250 l 136 -121 l 371 -121 q 463 -93 429 -121 q 504 -11 496 -65 l 517 71 l 542 215 l 504 215 l 546 250 q 469 107 532 158 q 310 56 406 56 q 140 128 197 56 q 103 325 83 201 l 174 764 l 322 764 l 256 342 q 277 225 243 267 q 381 183 311 183 q 499 227 451 183 q 560 351 547 271 l 625 764 l 775 764 l 651 -14 q 555 -187 636 -124 q 351 -250 474 -250 l 115 -250 m 236 896 l 458 1090 l 597 1090 l 758 896 l 610 896 l 517 1001 l 394 896 l 236 896 z "},"ÿ":{"ha":833,"x_min":83,"x_max":775,"o":"m 115 -250 l 136 -121 l 371 -121 q 463 -93 429 -121 q 504 -11 496 -65 l 517 71 l 542 215 l 504 215 l 546 250 q 469 107 532 158 q 310 56 406 56 q 140 128 197 56 q 103 325 83 201 l 174 764 l 322 764 l 256 342 q 277 225 243 267 q 381 183 311 183 q 499 227 451 183 q 560 351 547 271 l 625 764 l 775 764 l 651 -14 q 555 -187 636 -124 q 351 -250 474 -250 l 115 -250 m 657 896 q 591 922 613 896 q 576 990 569 947 q 613 1060 583 1035 q 686 1086 643 1086 q 752 1060 731 1086 q 767 990 774 1035 q 731 922 761 947 q 657 896 700 896 m 339 896 q 274 922 296 896 q 258 990 253 947 q 295 1060 265 1035 q 369 1086 325 1086 q 435 1060 413 1086 q 449 990 457 1035 q 413 922 443 947 q 339 896 383 896 z "},"ỵ":{"ha":833,"x_min":83,"x_max":775,"o":"m 115 -250 l 136 -121 l 371 -121 q 463 -93 429 -121 q 504 -11 496 -65 l 517 71 l 542 215 l 504 215 l 546 250 q 469 107 532 158 q 310 56 406 56 q 140 128 197 56 q 103 325 83 201 l 174 764 l 322 764 l 256 342 q 277 225 243 267 q 381 183 311 183 q 499 227 451 183 q 560 351 547 271 l 625 764 l 775 764 l 651 -14 q 555 -187 636 -124 q 351 -250 474 -250 l 115 -250 m 643 -360 q 570 -335 594 -360 q 551 -265 546 -310 q 592 -197 558 -222 q 674 -171 625 -171 q 748 -197 724 -171 q 764 -265 772 -222 q 725 -335 758 -310 q 643 -360 692 -360 z "},"ỳ":{"ha":833,"x_min":83,"x_max":775,"o":"m 115 -250 l 136 -121 l 371 -121 q 463 -93 429 -121 q 504 -11 496 -65 l 517 71 l 542 215 l 504 215 l 546 250 q 469 107 532 158 q 310 56 406 56 q 140 128 197 56 q 103 325 83 201 l 174 764 l 322 764 l 256 342 q 277 225 243 267 q 381 183 311 183 q 499 227 451 183 q 560 351 547 271 l 625 764 l 775 764 l 651 -14 q 555 -187 636 -124 q 351 -250 474 -250 l 115 -250 m 443 896 l 313 1090 l 471 1090 l 590 896 l 443 896 z "},"ỷ":{"ha":833,"x_min":83,"x_max":775,"o":"m 115 -250 l 136 -121 l 371 -121 q 463 -93 429 -121 q 504 -11 496 -65 l 517 71 l 542 215 l 504 215 l 546 250 q 469 107 532 158 q 310 56 406 56 q 140 128 197 56 q 103 325 83 201 l 174 764 l 322 764 l 256 342 q 277 225 243 267 q 381 183 311 183 q 499 227 451 183 q 560 351 547 271 l 625 764 l 775 764 l 651 -14 q 555 -187 636 -124 q 351 -250 474 -250 l 115 -250 m 431 896 l 513 982 q 531 1006 525 994 q 539 1025 538 1017 q 506 1051 543 1051 l 399 1051 l 414 1150 l 560 1150 q 647 1121 617 1150 q 669 1042 676 1092 q 656 1001 667 1021 q 631 964 646 981 l 567 896 l 431 896 z "},"ȳ":{"ha":833,"x_min":83,"x_max":775,"o":"m 115 -250 l 136 -121 l 371 -121 q 463 -93 429 -121 q 504 -11 496 -65 l 517 71 l 542 215 l 504 215 l 546 250 q 469 107 532 158 q 310 56 406 56 q 140 128 197 56 q 103 325 83 201 l 174 764 l 322 764 l 256 342 q 277 225 243 267 q 381 183 311 183 q 499 227 451 183 q 560 351 547 271 l 625 764 l 775 764 l 651 -14 q 555 -187 636 -124 q 351 -250 474 -250 l 115 -250 m 271 925 l 290 1043 l 751 1043 l 732 925 l 271 925 z "},"ỹ":{"ha":833,"x_min":83,"x_max":775,"o":"m 115 -250 l 136 -121 l 371 -121 q 463 -93 429 -121 q 504 -11 496 -65 l 517 71 l 542 215 l 504 215 l 546 250 q 469 107 532 158 q 310 56 406 56 q 140 128 197 56 q 103 325 83 201 l 174 764 l 322 764 l 256 342 q 277 225 243 267 q 381 183 311 183 q 499 227 451 183 q 560 351 547 271 l 625 764 l 775 764 l 651 -14 q 555 -187 636 -124 q 351 -250 474 -250 l 115 -250 m 594 897 q 528 911 553 897 q 489 943 504 925 q 459 976 474 961 q 422 990 444 990 q 390 978 404 990 q 372 942 376 965 l 367 904 l 268 904 l 275 947 q 329 1051 286 1013 q 432 1089 372 1089 q 498 1075 474 1089 q 537 1043 522 1061 q 566 1010 551 1025 q 603 996 581 996 q 635 1008 622 996 q 653 1042 649 1019 l 660 1082 l 758 1082 l 751 1039 q 698 935 740 974 q 594 897 656 897 z "},"z":{"ha":833,"x_min":56,"x_max":761,"o":"m 56 0 l 78 142 l 563 631 l 168 631 l 189 764 l 761 764 l 739 622 l 249 133 l 676 133 l 656 0 l 56 0 z "},"ź":{"ha":833,"x_min":56,"x_max":761,"o":"m 56 0 l 78 142 l 563 631 l 168 631 l 189 764 l 761 764 l 739 622 l 249 133 l 676 133 l 656 0 l 56 0 m 400 896 l 578 1090 l 746 1090 l 558 896 l 400 896 z "},"ž":{"ha":833,"x_min":56,"x_max":790,"o":"m 56 0 l 78 142 l 563 631 l 168 631 l 189 764 l 761 764 l 739 622 l 249 133 l 676 133 l 656 0 l 56 0 m 429 896 l 268 1090 l 417 1090 l 511 985 l 632 1090 l 790 1090 l 568 896 l 429 896 z "},"ż":{"ha":833,"x_min":56,"x_max":761,"o":"m 56 0 l 78 142 l 563 631 l 168 631 l 189 764 l 761 764 l 739 622 l 249 133 l 676 133 l 656 0 l 56 0 m 497 896 q 424 922 449 896 q 406 990 400 947 q 447 1060 414 1035 q 528 1086 479 1086 q 601 1060 576 1086 q 619 990 626 1035 q 580 922 613 947 q 497 896 547 896 z "},"ª":{"ha":833,"x_min":288,"x_max":679,"o":"m 549 632 l 561 708 l 557 708 l 588 903 q 572 947 592 931 q 515 964 553 964 q 457 950 482 964 q 426 915 432 936 l 344 915 q 409 998 361 968 q 525 1028 457 1028 q 640 994 600 1028 q 669 903 679 961 l 626 632 l 549 632 m 414 625 q 319 658 351 625 q 296 746 288 690 q 349 832 304 800 q 464 864 394 864 l 596 864 l 588 804 l 456 804 q 403 789 424 804 q 378 746 382 774 q 392 701 374 718 q 446 685 411 685 q 528 708 496 685 q 567 771 560 732 l 582 771 l 572 708 l 557 708 q 498 647 536 669 q 414 625 460 625 z "},"º":{"ha":833,"x_min":300,"x_max":674,"o":"m 453 619 q 339 663 378 619 q 310 772 300 706 l 325 871 q 390 981 338 939 q 517 1022 442 1022 q 633 981 593 1022 q 661 871 674 939 l 646 772 q 583 663 636 706 q 453 619 529 619 m 464 688 q 531 711 503 688 q 564 772 558 735 l 579 871 q 566 932 586 908 q 507 956 546 956 q 441 932 468 956 q 407 871 414 908 l 392 772 q 406 711 386 735 q 464 688 426 688 z "},"А":{"ha":833,"x_min":-1,"x_max":713,"o":"m -1 0 l 418 1014 l 615 1014 l 713 0 l 565 0 l 546 257 l 258 257 l 156 0 l -1 0 m 306 381 l 536 381 l 513 674 q 503 809 507 751 q 500 888 500 867 q 473 809 493 867 q 422 675 453 751 l 306 381 z "},"Б":{"ha":833,"x_min":58,"x_max":806,"o":"m 58 0 l 219 1014 l 806 1014 l 783 876 l 344 876 l 301 601 l 460 601 q 626 564 560 601 q 721 459 692 526 q 735 301 750 392 q 671 142 721 210 q 542 38 621 75 q 364 0 464 0 l 58 0 m 226 132 l 386 132 q 517 177 465 132 q 582 300 569 222 q 558 424 596 379 q 439 469 519 469 l 281 469 l 226 132 z "},"В":{"ha":833,"x_min":57,"x_max":803,"o":"m 57 0 l 218 1014 l 517 1014 q 732 944 661 1014 q 783 753 803 875 q 735 633 774 683 q 640 554 697 582 q 511 526 582 526 l 513 540 q 644 512 590 542 q 722 424 697 482 q 732 285 746 365 q 670 134 718 199 q 547 35 622 69 q 375 0 471 0 l 57 0 m 224 129 l 382 129 q 518 172 464 129 q 585 292 572 215 q 556 417 596 369 q 436 464 517 464 l 276 464 l 224 129 m 296 589 l 447 589 q 572 629 522 589 q 632 738 621 669 q 606 845 643 806 q 496 885 569 885 l 343 885 l 296 589 z "},"Г":{"ha":833,"x_min":86,"x_max":844,"o":"m 86 0 l 247 1014 l 844 1014 l 824 876 l 374 876 l 235 0 l 86 0 z "},"Ѓ":{"ha":833,"x_min":86,"x_max":844,"o":"m 86 0 l 247 1014 l 844 1014 l 824 876 l 374 876 l 235 0 l 86 0 m 443 1125 l 621 1319 l 789 1319 l 601 1125 l 443 1125 z "},"Ґ":{"ha":833,"x_min":86,"x_max":865,"o":"m 86 0 l 247 1014 l 703 1014 l 724 1146 l 865 1146 l 824 876 l 374 876 l 235 0 l 86 0 z "},"Д":{"ha":833,"x_min":-58,"x_max":807,"o":"m -58 -194 l -8 128 l 49 128 q 94 201 69 156 q 140 306 118 247 q 172 432 161 365 l 275 1014 l 807 1014 l 665 128 l 758 128 l 708 -194 l 572 -194 l 603 0 l 108 0 l 78 -194 l -58 -194 m 201 128 l 519 128 l 640 883 l 394 883 l 317 432 q 285 303 306 363 q 242 198 264 243 q 201 128 219 153 z "},"Е":{"ha":833,"x_min":69,"x_max":826,"o":"m 69 0 l 231 1014 l 826 1014 l 806 881 l 357 881 l 311 593 l 711 593 l 689 461 l 290 461 l 238 133 l 686 133 l 665 0 l 69 0 z "},"Ё":{"ha":833,"x_min":69,"x_max":838,"o":"m 69 0 l 231 1014 l 826 1014 l 806 881 l 357 881 l 311 593 l 711 593 l 689 461 l 290 461 l 238 133 l 686 133 l 665 0 l 69 0 m 721 1129 q 655 1154 676 1129 q 640 1222 633 1179 q 677 1292 647 1267 q 751 1318 707 1318 q 816 1292 794 1318 q 831 1222 838 1267 q 794 1154 825 1179 q 721 1129 764 1129 m 403 1129 q 338 1154 360 1129 q 322 1222 317 1179 q 360 1292 329 1267 q 433 1318 390 1318 q 499 1292 478 1318 q 513 1222 521 1267 q 477 1154 507 1179 q 403 1129 447 1129 z "},"Ж":{"ha":833,"x_min":-46,"x_max":904,"o":"m -46 0 l 206 524 l 128 1014 l 267 1014 l 328 560 l 385 560 l 458 1014 l 574 1014 l 501 560 l 554 560 l 760 1014 l 904 1014 l 671 515 l 757 0 l 619 0 l 550 475 l 488 475 l 415 0 l 299 0 l 372 475 l 317 475 l 97 0 l -46 0 z "},"З":{"ha":833,"x_min":36,"x_max":813,"o":"m 343 -14 q 116 60 196 -14 q 49 261 36 135 l 199 261 q 241 156 196 194 q 364 118 286 118 q 509 164 451 118 q 581 283 567 210 q 547 403 592 358 q 417 449 503 449 l 285 449 l 307 583 l 438 583 q 533 606 490 583 q 604 665 576 628 q 639 749 632 703 q 609 858 650 819 q 488 896 568 896 q 356 854 411 896 q 289 743 301 813 l 139 743 q 206 893 154 829 q 335 992 257 957 q 510 1028 414 1028 q 735 962 658 1028 q 793 775 813 896 q 742 649 782 704 q 641 563 703 593 q 501 533 579 532 l 504 554 q 643 523 588 556 q 724 430 699 490 q 736 289 749 369 q 669 132 722 200 q 531 25 615 64 q 343 -14 447 -14 z "},"И":{"ha":833,"x_min":51,"x_max":821,"o":"m 51 0 l 213 1014 l 351 1014 l 268 482 q 248 375 260 433 q 224 263 236 317 q 204 171 213 208 l 631 1014 l 821 1014 l 660 0 l 521 0 l 603 524 q 624 633 611 574 q 648 749 636 693 q 669 843 660 804 l 242 0 l 51 0 z "},"Й":{"ha":833,"x_min":51,"x_max":821,"o":"m 51 0 l 213 1014 l 351 1014 l 268 482 q 248 375 260 433 q 224 263 236 317 q 204 171 213 208 l 631 1014 l 821 1014 l 660 0 l 521 0 l 603 524 q 624 633 611 574 q 648 749 636 693 q 669 843 660 804 l 242 0 l 51 0 m 532 1117 q 373 1172 428 1117 q 332 1319 318 1228 l 447 1319 q 466 1239 439 1269 q 544 1208 493 1208 q 634 1239 597 1208 q 678 1319 671 1269 l 796 1319 q 709 1172 782 1228 q 532 1117 636 1117 z "},"К":{"ha":833,"x_min":56,"x_max":872,"o":"m 56 0 l 217 1014 l 367 1014 l 299 592 l 431 592 l 707 1014 l 872 1014 l 553 521 l 722 0 l 560 0 l 415 457 l 278 457 l 206 0 l 56 0 z "},"Ќ":{"ha":833,"x_min":56,"x_max":872,"o":"m 436 1125 l 614 1319 l 782 1319 l 594 1125 l 436 1125 m 56 0 l 217 1014 l 367 1014 l 299 592 l 431 592 l 707 1014 l 872 1014 l 553 521 l 722 0 l 560 0 l 415 457 l 278 457 l 206 0 l 56 0 z "},"Л":{"ha":833,"x_min":-36,"x_max":814,"o":"m -36 -7 l -14 131 l 15 131 q 103 181 69 131 q 156 343 138 231 l 271 1014 l 814 1014 l 653 0 l 503 0 l 642 876 l 397 876 l 306 343 q 245 149 286 226 q 144 32 204 71 q 3 -7 83 -7 l -36 -7 z "},"М":{"ha":833,"x_min":31,"x_max":842,"o":"m 31 0 l 192 1014 l 374 1014 l 422 689 q 435 601 429 643 q 442 538 440 558 q 466 601 450 558 q 504 689 482 643 l 654 1014 l 842 1014 l 681 0 l 539 0 l 593 342 q 620 490 604 410 q 656 650 636 569 q 694 804 675 731 q 726 933 713 878 l 500 440 l 354 440 l 279 933 q 274 808 278 879 q 263 656 269 736 q 247 494 256 575 q 226 342 239 413 l 172 0 l 31 0 z "},"Н":{"ha":833,"x_min":57,"x_max":815,"o":"m 57 0 l 218 1014 l 368 1014 l 300 594 l 599 594 l 665 1014 l 815 1014 l 654 0 l 504 0 l 576 456 l 279 456 l 207 0 l 57 0 z "},"О":{"ha":833,"x_min":81,"x_max":793,"o":"m 353 -14 q 197 22 260 -14 q 107 124 133 57 q 94 282 81 192 l 165 732 q 228 890 181 824 q 350 992 275 957 q 518 1028 425 1028 q 676 992 613 1028 q 766 890 739 957 q 778 733 793 824 l 707 282 q 644 124 693 192 q 522 22 596 57 q 353 -14 447 -14 m 374 119 q 497 162 450 119 q 557 282 544 204 l 628 732 q 607 853 640 811 q 497 894 574 894 q 374 853 421 894 q 315 732 328 811 l 244 282 q 265 162 232 204 q 374 119 299 119 z "},"П":{"ha":833,"x_min":58,"x_max":814,"o":"m 58 0 l 219 1014 l 814 1014 l 653 0 l 503 0 l 642 876 l 347 876 l 208 0 l 58 0 z "},"Р":{"ha":833,"x_min":56,"x_max":838,"o":"m 56 0 l 217 1014 l 549 1014 q 714 976 647 1014 q 809 870 781 939 q 824 708 838 801 q 758 547 810 617 q 628 440 707 478 q 453 403 550 403 l 269 403 l 206 0 l 56 0 m 290 538 l 474 538 q 604 584 550 538 q 671 708 658 631 q 644 833 683 788 q 528 879 604 879 l 344 879 l 290 538 z "},"С":{"ha":833,"x_min":81,"x_max":801,"o":"m 358 -14 q 199 22 264 -14 q 108 124 135 57 q 94 282 81 192 l 165 732 q 229 890 181 824 q 353 992 278 957 q 524 1028 429 1028 q 681 992 618 1028 q 773 890 744 956 q 786 732 801 824 l 636 732 q 615 853 650 811 q 503 894 579 894 q 377 853 426 894 q 315 733 328 811 l 244 282 q 268 162 232 204 q 379 119 304 119 q 504 162 456 119 q 565 282 553 204 l 715 282 q 653 125 701 192 q 528 22 604 58 q 358 -14 453 -14 z "},"Т":{"ha":833,"x_min":149,"x_max":863,"o":"m 281 0 l 419 876 l 149 876 l 171 1015 l 863 1015 l 840 876 l 569 876 l 431 0 l 281 0 z "},"У":{"ha":833,"x_min":160,"x_max":874,"o":"m 192 0 l 333 261 l 160 1014 l 319 1014 l 413 543 q 426 458 422 500 q 429 392 429 415 q 451 458 436 415 q 486 543 467 500 l 711 1014 l 874 1014 l 350 0 l 192 0 z "},"Ў":{"ha":833,"x_min":160,"x_max":874,"o":"m 192 0 l 333 261 l 160 1014 l 319 1014 l 413 543 q 426 458 422 500 q 429 392 429 415 q 451 458 436 415 q 486 543 467 500 l 711 1014 l 874 1014 l 350 0 l 192 0 m 532 1117 q 373 1172 428 1117 q 332 1319 318 1228 l 447 1319 q 466 1239 439 1269 q 544 1208 493 1208 q 634 1239 597 1208 q 678 1319 671 1269 l 796 1319 q 709 1172 782 1228 q 532 1117 636 1117 z "},"Ф":{"ha":833,"x_min":46,"x_max":829,"o":"m 285 -35 l 300 63 q 156 99 214 63 q 72 202 97 136 q 60 356 46 268 l 111 674 q 172 831 126 765 q 287 935 217 897 q 444 972 357 972 l 460 1069 l 590 1069 l 575 972 q 720 935 663 972 q 803 831 778 897 q 814 674 829 765 l 764 356 q 703 202 750 268 q 588 99 657 136 q 431 63 518 63 l 415 -35 l 285 -35 m 321 185 l 428 850 q 342 828 381 850 q 279 768 304 807 q 244 674 254 729 l 194 356 q 216 231 182 278 q 321 185 250 185 m 447 185 q 533 206 496 185 q 596 265 571 226 q 629 356 621 303 l 679 674 q 659 803 693 756 q 554 850 625 850 l 447 185 z "},"Х":{"ha":833,"x_min":-14,"x_max":869,"o":"m -14 0 l 353 521 l 164 1014 l 328 1014 l 425 738 q 443 685 433 711 q 457 644 453 658 q 480 685 465 658 q 513 738 494 711 l 701 1014 l 869 1014 l 524 519 l 725 0 l 563 0 l 451 300 q 433 353 442 326 q 421 396 424 381 q 396 354 413 381 q 363 301 379 328 l 157 0 l -14 0 z "},"Ч":{"ha":833,"x_min":117,"x_max":811,"o":"m 501 0 l 563 388 q 497 378 544 383 q 383 374 449 374 q 183 453 250 374 q 139 668 117 533 l 194 1014 l 343 1014 l 289 672 q 317 553 278 597 q 433 508 356 508 q 531 513 492 508 q 583 522 569 518 l 663 1014 l 811 1014 l 650 0 l 501 0 z "},"Ц":{"ha":833,"x_min":58,"x_max":786,"o":"m 563 -194 l 593 0 l 58 0 l 219 1014 l 369 1014 l 229 136 l 497 136 l 636 1014 l 786 1014 l 647 136 l 751 136 l 699 -194 l 563 -194 z "},"Ш":{"ha":833,"x_min":19,"x_max":854,"o":"m 19 0 l 179 1014 l 311 1014 l 168 108 l 317 108 l 461 1014 l 574 1014 l 431 108 l 579 108 l 722 1014 l 854 1014 l 693 0 l 19 0 z "},"Щ":{"ha":833,"x_min":18,"x_max":831,"o":"m 581 -194 l 611 0 l 18 0 l 179 1014 l 304 1014 l 161 115 l 307 115 l 450 1014 l 560 1014 l 417 115 l 563 115 l 706 1014 l 831 1014 l 688 115 l 761 115 l 713 -194 l 581 -194 z "},"Џ":{"ha":833,"x_min":58,"x_max":814,"o":"m 253 -174 l 281 0 l 58 0 l 219 1014 l 369 1014 l 229 138 l 525 138 l 664 1014 l 814 1014 l 653 0 l 431 0 l 403 -174 l 253 -174 z "},"Ь":{"ha":833,"x_min":58,"x_max":774,"o":"m 58 0 l 219 1014 l 369 1014 l 303 603 l 485 603 q 648 565 582 603 q 744 460 714 528 q 758 301 774 393 q 694 143 744 211 q 565 38 643 75 q 389 0 486 0 l 58 0 m 229 133 l 406 133 q 538 179 483 133 q 606 301 593 225 q 577 424 618 378 q 458 469 536 469 l 282 469 l 229 133 z "},"Ъ":{"ha":833,"x_min":72,"x_max":774,"o":"m 117 0 l 257 885 l 72 885 l 93 1014 l 426 1014 l 361 603 l 485 603 q 648 565 582 603 q 744 460 714 528 q 758 301 774 393 q 694 143 744 211 q 565 38 643 75 q 389 0 486 0 l 117 0 m 288 133 l 406 133 q 538 179 483 133 q 606 301 593 225 q 577 424 618 378 q 458 469 536 469 l 340 469 l 288 133 z "},"Ы":{"ha":833,"x_min":19,"x_max":853,"o":"m 19 0 l 181 1014 l 314 1014 l 247 603 l 299 603 q 485 532 424 603 q 526 339 546 461 l 514 263 q 412 70 494 140 q 203 0 329 0 l 19 0 m 172 125 l 222 125 q 330 162 289 125 q 381 264 371 199 l 393 339 q 374 442 403 406 q 279 479 344 479 l 229 479 l 172 125 m 558 0 l 719 1014 l 853 1014 l 692 0 l 558 0 z "},"Љ":{"ha":833,"x_min":-71,"x_max":825,"o":"m -71 -7 l -51 118 l -25 118 q 38 160 11 118 q 79 274 65 203 l 204 1014 l 614 1014 l 549 603 l 610 603 q 770 542 715 603 q 808 375 825 481 l 785 228 q 695 62 769 124 q 514 0 621 0 l 326 0 l 468 896 l 311 896 l 206 274 q 156 125 192 189 q 69 27 119 61 q -44 -7 18 -7 l -71 -7 m 472 118 l 533 118 q 616 148 582 118 q 657 228 650 178 l 681 375 q 663 455 688 425 q 590 485 639 485 l 531 485 l 472 118 z "},"Њ":{"ha":833,"x_min":7,"x_max":826,"o":"m 7 0 l 168 1014 l 296 1014 l 231 607 l 422 607 l 488 1014 l 614 1014 l 550 607 l 610 607 q 773 546 719 607 q 810 379 826 485 l 785 228 q 697 61 769 122 q 514 0 624 0 l 326 0 l 403 489 l 213 489 l 135 0 l 7 0 m 472 118 l 533 118 q 617 148 583 118 q 657 228 650 178 l 681 379 q 665 460 689 432 q 592 489 642 489 l 531 489 l 472 118 z "},"Ѕ":{"ha":833,"x_min":51,"x_max":807,"o":"m 357 -14 q 128 62 204 -14 q 71 268 51 138 l 221 268 q 251 159 210 199 q 379 119 293 119 q 512 158 460 119 q 575 265 564 197 q 560 367 585 325 q 482 426 535 410 l 361 463 q 206 571 256 494 q 171 751 156 647 q 232 897 185 835 q 354 994 279 960 q 524 1029 429 1029 q 735 954 663 1029 q 788 753 807 879 l 638 753 q 613 858 649 819 q 501 896 578 896 q 380 860 426 896 q 324 761 333 825 q 338 660 314 703 q 414 600 361 617 l 539 561 q 692 453 643 529 q 725 271 742 376 q 662 121 713 185 q 533 22 611 57 q 357 -14 454 -14 z "},"Є":{"ha":833,"x_min":82,"x_max":799,"o":"m 358 -14 q 200 22 264 -14 q 109 124 136 57 q 96 282 82 192 l 167 732 q 230 890 182 824 q 353 992 278 957 q 524 1028 429 1028 q 681 992 618 1028 q 772 890 744 956 q 785 732 799 824 l 635 732 q 613 853 647 811 q 504 896 579 896 q 379 853 428 896 q 317 733 331 811 l 293 579 l 597 579 l 576 443 l 272 443 l 246 282 q 269 161 233 204 q 379 118 304 118 q 503 161 456 118 q 564 282 551 204 l 714 282 q 651 125 700 192 q 528 22 603 58 q 358 -14 453 -14 z "},"Э":{"ha":833,"x_min":74,"x_max":790,"o":"m 347 -14 q 190 22 254 -14 q 100 125 126 58 q 88 282 74 192 l 238 282 q 259 161 225 204 q 368 118 293 118 q 493 161 444 118 q 554 282 542 204 l 581 443 l 276 443 l 297 579 l 601 579 l 625 733 q 603 853 639 811 q 493 896 568 896 q 369 853 417 896 q 308 732 321 811 l 158 732 q 220 890 172 824 q 344 992 268 956 q 513 1028 419 1028 q 672 992 608 1028 q 763 890 736 957 q 775 732 790 824 l 704 282 q 642 124 690 192 q 518 22 593 57 q 347 -14 443 -14 z "},"І":{"ha":833,"x_min":75,"x_max":797,"o":"m 75 0 l 96 133 l 301 133 l 419 881 l 214 881 l 236 1014 l 797 1014 l 776 881 l 571 881 l 453 133 l 658 133 l 636 0 l 75 0 z "},"Ї":{"ha":833,"x_min":75,"x_max":810,"o":"m 75 0 l 96 133 l 301 133 l 419 881 l 214 881 l 236 1014 l 797 1014 l 776 881 l 571 881 l 453 133 l 658 133 l 636 0 l 75 0 m 693 1129 q 627 1154 649 1129 q 613 1222 606 1179 q 649 1292 619 1267 q 724 1318 679 1318 q 788 1292 767 1318 q 803 1222 810 1267 q 767 1154 797 1179 q 693 1129 736 1129 m 375 1129 q 310 1154 332 1129 q 294 1222 289 1179 q 332 1292 301 1267 q 406 1318 363 1318 q 472 1292 450 1318 q 485 1222 493 1267 q 449 1154 479 1179 q 375 1129 419 1129 z "},"Ј":{"ha":833,"x_min":15,"x_max":797,"o":"m 311 -14 q 88 69 161 -14 q 38 296 15 153 l 188 296 q 213 165 175 211 q 332 118 251 118 q 467 165 414 118 q 533 294 521 211 l 626 876 l 388 876 l 410 1014 l 797 1014 l 683 294 q 619 131 669 200 q 490 24 568 61 q 311 -14 411 -14 z "},"Ћ":{"ha":833,"x_min":78,"x_max":785,"o":"m 88 0 l 226 879 l 78 879 l 100 1014 l 561 1014 l 539 879 l 376 879 l 326 560 l 351 582 q 583 688 467 688 q 735 617 685 688 q 765 428 785 547 l 699 0 l 549 0 l 613 407 q 603 521 625 482 q 526 560 581 560 q 453 541 492 560 q 371 482 414 522 l 304 422 l 238 0 l 88 0 z "},"Ю":{"ha":833,"x_min":14,"x_max":861,"o":"m 478 -14 q 322 56 372 -14 q 292 246 272 126 l 325 460 l 218 460 l 146 0 l 14 0 l 175 1014 l 307 1014 l 239 582 l 344 582 l 374 768 q 465 958 393 889 q 643 1028 538 1028 q 808 958 754 1028 q 843 768 861 889 l 760 246 q 665 56 742 126 q 478 -14 589 -14 m 497 108 q 583 143 550 108 q 628 242 617 178 l 711 772 q 699 871 722 836 q 624 906 676 906 q 539 871 572 906 q 494 772 506 836 l 411 242 q 423 143 400 178 q 497 108 446 108 z "},"Я":{"ha":833,"x_min":8,"x_max":814,"o":"m 8 0 l 322 494 l 326 425 q 208 476 256 436 q 141 578 160 517 q 133 717 122 640 q 198 874 147 807 q 326 977 249 940 q 499 1014 403 1014 l 814 1014 l 653 0 l 503 0 l 569 417 l 426 417 l 172 0 l 8 0 m 424 549 l 590 549 l 643 882 l 476 882 q 351 837 403 882 q 285 714 299 792 q 311 594 274 639 q 424 549 349 549 z "},"Ђ":{"ha":833,"x_min":78,"x_max":785,"o":"m 269 -250 l 292 -110 l 385 -110 q 498 -72 453 -110 q 553 32 543 -33 l 613 407 q 603 521 625 482 q 526 560 581 560 q 453 541 492 560 q 371 482 414 522 l 304 422 l 238 0 l 88 0 l 226 879 l 78 879 l 100 1014 l 561 1014 l 539 879 l 376 879 l 326 560 l 351 582 q 583 688 467 688 q 735 617 685 688 q 765 428 785 547 l 703 25 q 642 -119 690 -57 q 522 -216 594 -182 q 358 -250 449 -250 l 269 -250 z "},"Ү":{"ha":833,"x_min":140,"x_max":893,"o":"m 281 0 l 339 374 l 140 1014 l 293 1014 l 411 631 q 428 560 422 593 q 436 510 435 528 q 458 560 443 528 q 497 631 474 593 l 735 1014 l 893 1014 l 489 374 l 431 0 l 281 0 z "},"Ө":{"ha":833,"x_min":75,"x_max":797,"o":"m 353 -14 q 142 67 210 -14 q 97 285 75 147 l 167 731 q 229 889 182 822 q 350 992 276 956 q 518 1028 424 1028 q 729 948 661 1028 q 775 731 797 868 l 706 285 q 643 127 692 194 q 521 23 594 60 q 353 -14 447 -14 m 374 117 q 501 162 453 117 q 561 288 549 207 l 588 454 l 268 454 l 242 288 q 263 162 229 207 q 374 117 297 117 m 289 583 l 608 583 l 631 728 q 610 853 643 808 q 499 897 576 897 q 372 853 419 897 q 311 728 324 808 l 289 583 z "},"а":{"ha":833,"x_min":72,"x_max":776,"o":"m 299 -14 q 128 64 185 -14 q 94 274 72 142 l 128 489 q 183 643 142 579 q 287 742 225 707 q 425 778 349 778 q 567 726 519 778 q 600 583 615 674 l 574 618 l 607 618 l 628 764 l 776 764 l 656 0 l 508 0 l 532 146 l 500 146 l 538 181 q 458 38 522 90 q 299 -14 393 -14 m 372 117 q 491 160 443 117 q 551 282 539 204 l 582 482 q 562 603 596 560 q 456 647 528 647 q 336 605 382 647 q 276 482 290 563 l 246 282 q 265 159 232 201 q 372 117 299 117 z "},"б":{"ha":833,"x_min":74,"x_max":783,"o":"m 353 -14 q 143 67 213 -12 q 96 286 74 147 l 151 632 q 292 915 181 815 q 579 1014 403 1014 l 783 1014 l 760 867 l 556 867 q 384 806 449 867 q 301 632 319 746 l 288 540 l 307 540 l 285 514 q 358 641 297 594 q 513 688 418 688 q 689 609 633 688 q 722 393 744 531 l 704 286 q 643 126 690 193 q 522 22 596 58 q 353 -14 447 -14 m 374 118 q 495 162 449 118 q 554 286 542 206 l 572 393 q 553 519 586 475 q 444 563 519 563 q 324 519 371 563 q 264 393 276 476 l 246 286 q 267 162 233 206 q 374 118 300 118 z "}}}
